<?xml version="1.0" encoding="UTF-8"?>
<svg id="Layer_1" data-name="Layer 1" xmlns="http://www.w3.org/2000/svg" viewBox="0 0 671.2 868.32">
  <defs>
    <style>
      .cls-1 {
        fill: #fff;
      }

      .cls-1, .cls-2 {
        stroke: #202020;
        stroke-miterlimit: 10;
      }
    </style>
  </defs>
  <path class="cls-1" d="M.5,867.82V.5h670.2v867.32H.5ZM333.19,125.87l1.5-3.35c-.09-.08-1.14-.79-1.34-.52l-.72.97-2.52,3.58,3.07-.68ZM334.92,124.33l-1.01,2.39,2.87,1.21,1.01-2.39-2.87-1.21ZM329.78,127.33l-4.77-.15c1.51,1.15,3.73,1.61,4.77.15ZM346.97,129.01c0-.61-.49-1.1-1.1-1.1s-1.1.49-1.1,1.1.49,1.1,1.1,1.1,1.1-.49,1.1-1.1ZM347.31,132.79l-1.83-.18c-.36-.04-.59.71-.93,1.37l2.76-1.2ZM328.05,142.42l1.03-2.99-1.82-1.21.25,2c.05.37-3.96,3.28-3.56,4.65l4.09-2.45ZM329.58,141.54l-.88,2.56,2.99,1.03.88-2.56-2.99-1.03ZM323.51,145.2l-4.91-1.67c1.15,2.26,3.57,2.63,4.91,1.67ZM341.42,146.31c0-.56-.46-1.02-1.02-1.02s-1.02.46-1.02,1.02.46,1.02,1.02,1.02,1.02-.46,1.02-1.02ZM341.55,149.85l-3.45.15,2.06,1.04c.39.2,1.2-.8,1.39-1.19ZM326.63,162.19c.3-1.43.52-2.41.13-2.67-.31-.21-1.26-.5-1.53-.24l-1.32,1.31c-.96-1.04-.07-2.9,1.18-3.56l-2.61-2.02.34,2.11c-1.15,1.24-1.85,2.17-2.28,3.2l6.09,1.88ZM353.93,160.28l-2.79.15c.94,1.51,2.38,1.01,2.79-.15ZM319.22,162.17l-4.17-.81c.97,1.43,3.37,2.02,4.17.81ZM355.04,164.83c-1.11-.68-1.49-.78-1.38-.96l.91-1.47-3.35.52,1.46.7c.13.06-.23.32-.3.46l-.58,1.12,3.23-.37ZM336.49,167.56l-.02-4.06c0-.39-1.63-.85-1.71-.44l-.41,1.94c-.14.67-.13,1.95.07,2.52.22.63,2.07.67,2.07.05ZM355.08,166.82c-.89-.51-2.71-.79-2.7.7l2.7-.7ZM355.36,171.88c.76,0,.59-2.12.15-2.77-.55-.82-2.42-.38-2.94.24l1.19,1.08-.75,1.16c-.17.26,1.26.3,2.35.3ZM318.48,177.53c-.62-1.69.1-3.03,1.64-3.87l-1.75-.67-3.14,4.31c3.29-.29,5.41,3.55,6.63,1.01.41-.85-.38-2.19-1.25-2.23-.6-.03-1.17.6-2.14,1.45ZM355.26,204.52c-1.69-1.69-2.78-3.11-2.5-4.1.42-1.29.64-2.07-.11-2.82-.45-.45-2.14-.23-2.26.48-.63,3.84,1.54,7.71,5.75,8.55l1.92-6.9c4.99,1.93.71,7.52,4.68,7.76.46-2.87-.37-7.95-3.92-9.35.25-.19,1-.66,1.12-1.06.1-.31.04-1.15.03-1.44l5.82.04c-.25-2.91-6.59.12-7.07-3.37l-1.28-9.19c-.17-1.22-1.74-2.57-2.86-3.29.81-.22,2.44-1.03,2.33-1.7-.33-1.88-1.73-4.15-3.16-4.61l1.95,4.4c-2.13-.62-2.8-1.03-3.51-.84-.95.26-2.07,1.94-1.47,2.48,2.3.65,4.23.99,5.4,3.46l-1.74-.84c-.28.14-.78.62-.91.35l-.71-1.54c-.51.1-.63,1.57-.38,2.25.89,2.41,2.53-.56,4.18,2.55l-2.99-.05,3.06,2.54-2.39.22,3.1,2.3-2.44.16,3.18,2.63-3.02-.41c-.48-.07-.8,1.55-.6,2,.48,1.04,2.79,2.25,3.73,2.71-.91.93-1.71,2.08-2.01,3.17l-.93,3.45ZM352.09,174.8c0-.49-.4-.89-.89-.89s-.89.4-.89.89.4.89.89.89.89-.4.89-.89ZM315.07,178.32l-4.72.48c1.52.48,2.88.7,4.72-.48ZM363.25,188.32c.56-.07.79-.08.49-.15l-1.57-.33c.69-2.58.13-5.69-1.01-8.26-.87,1.68-1.36,2.53-2.2,3.02,1.18.26,2.67,1.81,2.63,3.06-.03.89-1.25,2.24-1.92,3.08l3.59-.42ZM331.13,181.22c0-.59-.48-1.08-1.08-1.08s-1.08.48-1.08,1.08.48,1.08,1.08,1.08,1.08-.48,1.08-1.08ZM329.94,183.2l-2.32-.24,2.5,2.88,1.58-1.17-.49-1.81c-.08-.3-.96.36-1.27.33ZM352.92,185.46c0-.37-.3-.67-.67-.67s-.67.3-.67.67.3.67.67.67.67-.3.67-.67ZM331.94,185.94l-5.06-.22c1.59,1.36,3.41,1.46,5.06.22ZM315.59,196.22c.55.17,1.57-1.26,1.32-1.72s-1.19-1-1.73-1.13c-.42-.1-.98.64-1.71,1.37-.52-.08-.54-2.12-.05-2.96.41-.7,2.11-.41,3.23-.3l-4.33-1.59c-.23,3.31-4.09,7.2-8.01,5.67,2.15,2.88,4.76,1.35,6.73-.75l4.54,1.41ZM362.48,190.23l.09,1.51c.01.2.87-.09.87-.3l.03-1.03c0-.2-1-.4-.99-.19ZM325.83,198.96c0-.56-.45-1.01-1.01-1.01s-1.01.45-1.01,1.01.45,1.01,1.01,1.01,1.01-.45,1.01-1.01ZM346.51,200.67l-2.13-2.26c-.85,1.43-1.16,1.92-2.09,2.2.26.4,1.55,1.14,2.22.96s2.2-.83,2-.9ZM322.94,203.68l3.57-1.21c.13-1.81-1.73-2.12-2.57-1.55-.53.36-1.01,1.39-1.58,2.63.44.88,2.48,1.28,3.79.5l-3.22-.37ZM299.31,202.59l-1.31,2.63.84.42,1.31-2.63-.84-.42ZM336.64,205.57c-.61-1.87-2.95-1.61-3.89-.67l3.89.67ZM336.9,207.82l-1.34-.57c-.14-.06-.22-.41-.53-1.26,0,0-.93.19-1.01.21-.34.85-.47,1.3-.72,1.41l-1.05.47c.81.57,1.94,1.18,2.51.98.65-.23,1.66-.86,2.14-1.23ZM308.17,211.87c-1.22-1.98.26-3.33,2.16-4.02l-2.7-.89-1.84,4.03c1.82.88,3.7,1.68,5.37,2.17.33-1.17.6-2.02.48-2.46s-1.51-.76-1.83-.44l-1.64,1.62ZM320.8,215.8c0-.61-.5-1.11-1.11-1.11s-1.11.5-1.11,1.11.5,1.11,1.11,1.11,1.11-.5,1.11-1.11ZM321.24,217.81l-3.73-.38c.21.8.35,1.98.81,2.35s1.92.13,2.39-.21c.39-.29.6-1.59.54-1.76ZM321.48,220.84l-4.88-.62c1.13,1.32,3.28,1.1,4.88.62ZM335.77,231.81c-.62-1.43-1.12-2.34-2.16-3.19-.72,2.11-.85,4.64-.67,6.8.06.69,1.71,1.05,2.34.92s1.92-1.22,1.66-1.81l-1.17-2.72ZM322.35,242.7l-.51-5.62c-.03-.35-1.26-.58-1.5-.32-1.14,1.24-.64,3.74-.42,5.84.05.48,1.63.33,2.42.09ZM327.56,242.86l-.37-6.35-4.17.27v6.31s4.54-.23,4.54-.23ZM348.11,237.3l-13.71-.47c-.74-.03-1.72.73-2.22,1.46-.12-.44-1.11-1.6-1.85-1.59-.65,0-1.96.24-2.45.45l.34,5.73,19.89.31c.32-1.88.39-3.86,0-5.88ZM327.38,252.72c.04-2.49.22-4.5.14-7.11l-4.42.05-.19,23.08,4.22.03.25-16.05ZM336.6,245.61h-3.61s-.29,12.9-.29,12.9l-.47-12.86h-3.93s-.2,16.44-.2,16.44c-.03,2.17-.4,4.3-.05,6.45,1.46.46,3.42.36,4.37-.77.81.98,2.77,1.29,4.41.73l-.12-3.75-.12-19.13ZM321.93,268.35l.16-15.24.27-6.75c.02-.62-2.15-1.12-2.35-.56-.16.45-.26,1.36-.27,2.13l-.3,20.42c0,.63,2.48.7,2.49,0ZM341.28,268.06l.1-22.22-4.06-.09c-.68,8.33.5,14.99.15,22.35-.05.96,3.79.91,3.81-.04ZM347.94,268.91c.32-.2.95-1.11.93-1.66l-.61-21.36-6.41-.24.17,22.95,4.09.14.22-13.49c1.06,1.49-.88,15.22,1.61,13.66ZM321.69,269.8c-.84-.61-2.27.72-2.28,1.77l-.33,19.37c.19.37,1.62.8,2.05.48.12-.09,1.33-19.52.56-21.62ZM327.18,291.09l-.03-21.34-4.07-.15c-.16,1.52-.54,3.22-.54,4.59l-.1,17.29,4.75-.39ZM332,273.43l.04-3.62c-1.34-.25-2.96-.19-4.18.33l-.11,21.25,4.13-.11.12-17.85ZM336.84,291.14l-.06-21.4-4.06.02-.1,21.47,4.22-.1ZM349.03,280.62l-.16-9.2c-.01-.77-1.67-2.19-1.9-1.49l-.64,5.42-.34-5.7-3.57.11-.78,1.93-.54-2.2-3.57.36v21.31c1.19.13,3.11.13,4.21-.02l.41-12.82.34,13.01,3.96-.08.4-8.74.42,8.79h1.45c.33.02.65-1.01.64-1.34l-.34-9.36ZM321.39,310.75l.04-18.52c-2.17-.05-2.58,1.37-2.6,2.95l-.19,15.29c0,.67-.32,1.83.16,1.89l1.81.21c.38.04.78-1.21.78-1.81ZM326.71,312.4c-.01-4.95-.12-9.01.13-13.46.13-2.36.25-4.42-.04-6.71l-4.25.05-.35,9.52c-.13,3.6-.24,6.96-.16,10.65l4.67-.06ZM331.92,312.25l-.04-19.93c-1.62-.02-2.91,0-4.08.16l-.19,19.95,4.31-.17ZM337.1,312.34l-.2-7.89-.04-12.02c-1.24-.16-2.8-.17-4.09.01-.3,2.94-.3,5.76,0,8.23,1.39-.08,2.52-.05,2.96.48s.43,2.33-.03,2.85-1.65.51-3.07.32l-.1,8.11,4.56-.1ZM341.93,312.36l-.09-20.18-4.18.05.1,20.18,4.17-.04ZM346.71,309.14l-.17-16.98-4.1.07.05,20.09,4.51.13c-.09-1.19-.28-2.18-.29-3.31ZM349.72,310.98l-.49-17.28c-.02-.66-1.28-1.63-1.95-1.72-.12,5.19-.2,9.71.02,14.66l.2,4.46c.03.74.63,1.71,1.34,1.53.44-.12.9-1.08.88-1.64ZM318.19,332.01c0,.7,2.59.74,2.59.1l.23-18.93c-2.21.04-2.73,1.69-2.74,3.61l-.08,15.22ZM326.63,332.5l.04-19.01c-1.62-.2-3.1-.21-4.71-.01l-.05,19.04h4.72ZM331.89,332.51l-.02-19.18-4.41.07-.1,19.12h4.52ZM337.1,332.46l-.08-19.06-4.43-.05-.04,19.21,4.55-.1ZM342.08,325.93l-.29-12.7-4.09.15.04,19.07,4.49-.03-.15-6.48ZM347.18,332.4l-.1-19.07-4.46-.05c-.61,7.56.83,11.08.29,19.11h4.27ZM350.01,330.1l-.19-14.49c-.01-1.09-.89-2.26-2.18-2.5l.1,18.85c0,.66,1.7.77,2.04.38s.24-1.2.22-2.25ZM331.83,351.26v-17.71s-4.54-.3-4.54-.3l-.13,18.01h4.67ZM332.48,351.25l4.62.02-.08-18-4.46.28.06,7.05c1.31-.25,2.72-.29,3.22.28s.48,2.6-.21,2.9c-.59.26-1.74.25-3,.19l-.15,7.27ZM342.38,351.26l-.09-17.91-4.51-.06-.02,17.98h4.62ZM350.44,350.36l-.16-15.2c0-.84-1.62-2.29-2.11-2.04l-.76,3.18-.32-3.11-4.15.17.08,17.89h4.52s.43-14.06.43-14.06l.43,14.12c.88.01,2.05-.46,2.04-.96ZM320.46,349.04l.27-4.05c.26-3.9.17-7.65-.07-11.57-1.82.16-2.83,1.55-2.84,3.05l-.08,14.8c1.22,0,2.56.22,2.59-.25l.13-1.98ZM326.57,351.05l-.04-17.56-4.4.07c-.33,1.4-.7,3.01-.7,4.1v13.7s5.15-.31,5.15-.31ZM320.36,366.96l.06-14.92c-2.45-.13-2.69,1.7-2.76,3.56l-.48,11.71c-.04,1.04.82,1.91,1.94,2.04.62.07,1.23-1.26,1.24-2.39ZM326.09,368.93l.17-16.75-4.75-.04-.2,12.42-.07,4.59,4.85-.22ZM331.92,368.86l-.07-16.74-4.69.04c.5,7.72-.82,11.07-.15,16.99l4.92-.29ZM337.18,369.09l-.07-17-4.64.02v16.97s4.71.02,4.71.02ZM342.47,369.04l-.1-16.95h-4.65s.03,16.98.03,16.98l4.71-.03ZM348.46,351.78l-.52,11.79-.38-11.5-4.55.03.08,16.9,7.79.13-.16-13.75c-.02-1.45-.58-3.11-2.26-3.6ZM319.96,378.8c.35-3.26.57-5.81-.1-9.12-.66.09-2.59,1.17-2.6,1.87l-.16,13.34c0,.42,1.11,1.11,1.49,1.17,2.21.38,1.01-3.82,1.38-7.26ZM326.1,385.58v-15.62s-5.02.1-5.02.1l-.22,15.89,5.24-.38ZM331.78,385.66l-.05-15.64h-4.88s0,15.86,0,15.86l4.93-.21ZM332.47,385.65l4.65.1-.02-15.85-4.63.04.13,5.91c1.45-.36,2.84-.1,3.33.74.36.61.14,2.37-.47,2.74s-1.88.27-2.95.1l-.05,6.22ZM343.58,385.78l4.66-.09-.15-15.77-10.22-.05v15.74c1.63.15,3.33.17,4.87.09l.47-11.76.38,11.85ZM351.29,383.22l-.43-11.36c-.04-1.06-.99-2.3-2.21-1.95l.18,15.26c0,.61,2.04.85,2.22.39s.28-1.33.24-2.35ZM319.65,401.23l.29-14.68c-1.05.04-2.37.5-2.56,1.14-.18.58-.36,1.87-.38,2.62l-.3,10.56c-.02.73,2.93,1.1,2.95.36ZM325.69,401.57c.56-5.37.63-9.83.12-14.93-1.94,0-3.61.08-4.95.23l-.11,14.82,4.93-.11ZM331.75,401.53v-14.74s-4.99-.09-4.99-.09l-.09,14.92,5.08-.09ZM337.18,386.5h-4.73v14.97h4.73v-14.97ZM342.95,401.68l-.08-15.06-5.06-.02.08,14.93,5.06.14ZM351.58,400.81l-.21-12.06c-.02-1.28-1.4-2.52-2.28-2.22l-.61,3.34-.42-3.35-4.59.06.09,15.08,4.92-.2.5-3.91.44,3.67c.07.61,2.18.32,2.17-.41ZM319.34,416.55l.18-4.75c.12-3.1.43-6.37-.12-9.4-2.04-.21-2.8,1.52-2.8,3.06l.03,10.63,2.71.46ZM325.59,416.41l.17-13.69c-1.59-.3-3.23-.4-5.2-.25l-.27,13.92,5.31.02ZM337.1,402.36l-4.71.05.25,5.38c1.01-.46,1.99-.84,2.5-.48.61.42,1.32,1.56,1.33,2.19s-1.25,1.76-1.88,1.74c-.86-.03-2.79-1.13-2.82-1.94l-.26-6.74h-4.83s-.22,13.77-.22,13.77h4.97s.47-3.53.47-3.53l.59,3.59,4.75-.06-.14-13.97ZM342.99,416.39l-.1-14.15-4.91.26v13.9s5.01-.01,5.01-.01ZM348.81,416.27l-.2-13.92-5.06-.06.09,14.06,5.17-.08ZM351.9,415.27l-.05-10.85c-.24-1.1-.95-2.05-2.52-2.49l-.07,13.49c0,.5.95,1.28,1.34,1.26s1.29-.87,1.29-1.41ZM319.29,429.93l.05-12.63c-1.11-.42-2.82.71-2.87,1.79l-.44,9.16c-.03.73.52,1.97,1.02,2.33.42.3,2.24-.09,2.24-.64ZM325.56,430.49l.03-13.23h-5.16s-.23,13.2-.23,13.2l5.36.03ZM331.4,430.49l.03-13.16-4.91-.09c-.47,4.47-.42,8.62-.18,13.26h5.06ZM337.34,430.41l-.15-13.12-4.87-.05c-.51,4.47-.48,8.55-.12,13.22l5.14-.05ZM343.15,423.64l-.31-6.44-4.76.13.1,13.2,5.07-.06c.1-2.34.02-4.34-.1-6.82ZM352.22,429.58l-.33-10.78c-.03-.97-1.95-2.29-2.22-1.63l-.7,4.22-.37-4.2-4.81.11.08,4.54.25,8.68,4.75-.03.56-1.87,1.02,1.88c.17.31,1.78-.49,1.77-.92ZM319.29,442.02l-.11-10.6c-1.2-.42-3.03.62-3.04,1.84l-.07,9.19c0,.61,1.26,1.45,1.92,1.43.51-.02,1.31-1.2,1.3-1.86ZM325.49,443.59l-.08-12.15-5.4.1-.16,12.21,5.63-.16ZM331.42,443.67l-.04-12.28-5.09.06-.09,12.22h5.22ZM337.46,443.59l-.04-12.15-5.21-.06c-.34,4.24-.33,7.83-.07,12.26l5.32-.05ZM343.44,443.75l-.06-12.35-5.36.05.02,12.14,5.39.16ZM349.33,443.7l-.2-12.34-5.15.04.11,12.26,5.25.05ZM352.49,442.12l-.16-9.27c-.02-.89-1.77-2.19-2.51-1.48v11.64c.01.52,1.47,1.13,1.8.88s.88-1.16.87-1.76ZM318.84,455.42l.03-10.91c-.84.04-1.92.17-2.27.57-.28.32-.57,1.4-.59,1.87l-.27,8.56c-.03.88,3.1.95,3.1-.08ZM324.84,450.62l.57-6-5.54.04-.09,11.31c1.89.27,3.52.33,5.3-.1l-.25-5.25ZM326.38,456.25l4.99-.23v-11.5s-5.06,0-5.06,0c-1.26,5.5,2.75,4.57,1.65,6.39-1.37,2.27-2.68,1.57-1.59,5.33ZM337.53,456.04l-.07-11.6-5.39.14-.04,11.43,5.5.03ZM343.15,452.46c-1.52-.35-2.78-.9-2.86-1.52-.07-.52.19-1.8.7-1.94l2.38-.63v-3.96s-5.34.18-5.34.18l.29,11.47,5.13-.05c-.03-1.35-.13-3.14-.3-3.55ZM350.1,444.16l-.58,5.08-.37-4.74-5.01-.05.09,5.82.05,5.8,8.69-.15-.4-7.83c-.09-1.81-.16-3.83-2.48-3.93ZM268.11,448.2l1.35-1.8c-1.06-.24-2.3-.36-3.25-.33l1.53.69-.96,1.03c-.19.2,1.16.64,1.33.42ZM351.26,527.78c-.56-.47-1.76-1.16-2.41-1.09l-3.84.44c-.34,1.67-.36,1.5-.29.57-.41-.36-.9-.84-1-.84h-5.4s.06,7.19.06,7.19l5.89-.15.3-1.55c.03-.16.27-.02.37.12s.36,1.18.54,1.19l8.66.35c.57,2.95,12.55,6.45,15.14,6.9,11.92,2.09,23.2-3.2,29.48-13.38,4.41-7.14,7.18-14.8,8.86-23.07.11-.55,1.08-1.67,1.58-1.89s1.66.09,2.1.48c7.69,6.83,5.96,23.6,3.94,32.68-2.28,10.3-6.57,19.3-10.91,28.98-4.96,11.05-5.69,24.09-1.92,35.61,3.09,9.43,7.51,17.69,11.7,26.58,7.1,15.08,13.37,34.16,16.35,50.59.94,5.2-1.34,11.4-6.87,13.11-6.71.2-8.42,1.38-12.84-2.38-8.7-7.4-17.49-13.94-26.86-20.48-6.37-4.45-12.97-8.19-21.17-8.22l-23.25-.1c-.56,0-.74,1.58-.47,1.86h7c2.54.02,5.02-.23,7.61-.28l4.14-.08c1.59-.03,5.1.21,5.12,2.62l.25,26.9c-2.06.64-4.41.52-6.57-.34l6.44-1.01-2.69-1.5-.61-.27c.17-1.52.28-2.89-.3-3.31-.38-.28-2.33.3-2.17.75l.55,1.52c.2.56.59,1.74.09,1.92l-2.21.81c-.63.23-.48,1.78-.46,3.16l7.11-.76c.06.27.14,1.24-.11,1.45s-1.17.58-1.52.59l-48.13.79c-1.45.02-3.69-.24-4.76-.64-2.24-1.94-1.87-4.93-1.89-7.51l-.19-21.5c0-.92,1.14-3.1,2.03-3.13l7.07-.22c.34-.01.12-1.6-.35-1.62-8.39-.42-14.44.75-21.51-3.34-4.6-2.67-7.43-7.48-9.12-12.52-3.78-11.27-2.92-23.23.66-34.52,2.5-7.89,5.22-15.08,8.37-22.69,7.7-18.55,8.6-38.61,2.57-57.74-1.4-4.45-1.35-9.25.18-13.4,1.29-3.49,4.67-6.3,8.44-5.34,3.57.91,7.02,2.3,10.36,3.66l.28,3.22c.08.86,2.82,1.22,2.9.41.23-2.3.27-5,.22-7.46-.57-.23-1.76.04-2.93.4.07.29-.17-.7-.24-.97-.04-.18.44-.41.63-.41l2.5-.07c.53-2.94.56-6.05-.09-8.69l-2.82.65c.26-1.55,1.37-1.32,3.1-1.32l.19-8.84-2.9.28c-.02-.45.23-1.3.63-1.29l2.22.07.12-9.88c-1.28.1-2.53.4-2.89,1.04-.31.56-.31,2.21-.36,2.95l-.64,10.53c-.35,5.81-6.28,9.52-11.86,8.87-6.91-.8-13.11-3.93-18.11-8.59-8.51-7.94-8.97-21.69-10.4-33.09-.67-5.39-4.64-8.24-9.82-8.01-4.29.19-8.08,2.23-10.93,5.79-8.25,10.29-10.25,25.81-9.1,38.7,2.47,27.47,12.26,44.28,16.42,70.35,1.17,7.33.06,15.57-2.24,22.55-2.82,8.58-6.25,16.52-9.8,24.86-7.07,16.61-16.29,41.42-17.35,59.23l-.41,6.87c-.26,4.33.15,8.59.54,12.91,1.14,12.61,6.54,23.86,15.6,32.79,7.85,7.74,17.03,13.75,27.36,17.8,18.39,7.2,38.67,6.91,58.15,6.89l-.51,4.89.62-.03,1.57-.52c.28-.09.12.7.13,1.43,1.1.18,1.8.18,3.1-1.03l1.09.42s.13-1.11.19-1.59c.13-1.06-3.72.74-2.53-.75l.63-.78c.18-.21.66-.59.48-.64s-.85-.26-1.01-.25l-1.91.17c-.29.03.17,1.09.27,1.44.08.27-.42,1.1-.61.89l-.61-.66.51-2.61,4.97-.26c13.12-.67,25.75-.01,38.87-1.22,16.03-1.48,30.85-7.41,42.92-17.92,11.32-9.86,17.61-23.16,18.85-38.09,1.08-12.99-.55-25.59-4.53-38.02l-2.51-7.85,1.52,5.85c4.09,15.78,6.04,21.35,4.07,39.03.16.32-.45-.39-.61-.64.42-4.19.11-7.63-.36-11.73-1.98-17.27-7.17-33.47-14.16-49.35l-13.2-29.99c-5.12-11.62-3.78-23.27.72-34.9l6.46-16.7c4.58-11.85,6.74-24.11,5.05-36.72-.98-7.26-3.99-13.04-8.95-18.8,4.84.93,7.11,5.27,8.69,9.17,3.95,9.72,3.09,21.95,1.85,32.42,1.46-4.4,1.45-8.92,1.52-13.73.12-8.21-.94-16.18-5.02-23.38-2.9-5.11-10.88-10.39-17.06-6.91-1.78,1-3.43,3.28-4.09,5.77l-3.42,12.9c-1.53,5.78-4.52,11.15-9.04,15.04-6.99,6.01-20.83,7.13-27.12.82-3.14-3.15-4.53-7.64-4.63-12.07l-.28-12.9c-.03-1.49-2.35-2.87-3.33-1.97-.3,1.57-.51,1.31-.83-.26l-5.34.02-.54,3.61-.36-3.62h-5.64s.08,8.57.08,8.57l15.59-.1c-.29,1.07-.42,1.39-.64,1.05l-14.95-.13-.02,8.1,10.23-.09c1.85-.02,4.22-1.11,5.79.91l-16.01.02-.02,7.29h6.95c1.95,0,4.19.02,5.81-.53,4.16,1.62,2.91-.66,3.37,1.78.15.81-2.54-.87-2.73-.21l-.49,1.65c-.18,1.2-.23,1.43.03-.77ZM318.7,467.87l.07-10.9c-1.28-.24-3.1.46-3.12,1.44l-.2,9.32,3.25.14ZM325.06,467.87l.09-10.8-5.2-.09c-.62,3.9-.76,7.34-.33,10.98l5.44-.09ZM331.36,467.9v-10.91s-5.18.02-5.18.02l-.24,5.22c-.09,1.94-.11,3.83,0,5.65l5.42.02ZM337.55,467.85l-.07-10.87-5.46.11-.02,10.81,5.56-.05ZM343.52,467.88l-.06-10.91-5.21.04v10.88s5.27-.01,5.27-.01ZM350.51,468.07l2.28-.41c.21-.04.3-.89.3-1.21l-.16-7.93c-.02-1.02-1.8-1.65-2.64-1.64l-6.1.09.03,10.85,5.49.03.33-8.84.48,9.05ZM318.27,478.49l.24-3.6c.14-2.09.18-4.21-.21-6.21-1.2-.19-3.08,1.02-3.1,2.03l-.13,8.23c.88.15,3.15.26,3.19-.45ZM325.04,478.98l-.02-10.22-5.41-.06-.32,10.27h5.75ZM331.37,478.99l-.04-10.29-5.5.1-.06,10.23,5.59-.04ZM337.66,479l-.08-10.27-5.57.07v10.22s5.65-.01,5.65-.01ZM353.46,478.88v-7.75c0-.57-.76-1.85-1.22-2.16-.39-.26-1.38-.07-2.01.05-1.8-.15-3.8-.24-5.86-.25l-6.11-.06v10.26s5.46.01,5.46.01l.56-6.3.35,6.27,8.83-.07ZM325.01,489.55l-.06-9.73-5.63.06-.07,9.65h5.77ZM331.27,489.51l-.04-9.7h-5.48s-.05,9.75-.05,9.75l5.58-.05ZM332.06,489.54h5.49s-.04-9.76-.04-9.76l-5.47.08.09,4.92c.67-.94,1.76-1.8,2.54-1.53.59.2,1.54,1.28,1.53,1.9s-.94,1.67-1.53,1.86-1.72-.39-2.57-.98l-.03,3.51ZM343.99,489.51l-.12-9.69-5.58-.02.03,9.72h5.67ZM353.46,489.04l.07-7.31c.01-1.53-1.77-1.92-2.79-1.91l-6.24.02.09,9.69h5.51s.47-3.18.47-3.18l.32,2.9c.06.57,2.57.4,2.58-.21ZM324.96,499.34l-.07-8.89-5.47-.16c-.71,3.35-.7,6.01-.26,9.17l5.8-.12ZM331.35,499.45l-.1-9.12-5.56.09-.05,9.02,5.71.02ZM337.66,499.48l-.07-9.17-5.58.12-.02,9,5.68.05ZM343.98,499.44l-.08-9.13-5.65.11.04,9.02h5.68ZM354,491l-3.02-.88-.39,2.69-.54-2.53-5.44.07-.02,9.03,4.29.13c.3,0,1.14-.18,1.25-.46l.41-.99c.3.45.95,1.41,1.45,1.37l2.1-.16-.09-8.25ZM324.74,508.76l-.05-8.42-5.59-.09-.31,8.65,5.96-.14ZM331.33,508.77l-.06-8.5-5.71.04v8.53s5.78-.07,5.78-.07ZM337.67,508.86l-.07-8.6-5.64.04.1,8.54,5.6.03ZM324.54,517.74l-.02-8.02h-5.67s-.16,8.05-.16,8.05l5.86-.03ZM331.32,517.67l-.08-7.96-5.78.03c-.33,3.03-.34,5.38-.02,7.99l5.88-.06ZM337.7,517.76l-.07-8.1-5.62.05-.05,8.04,5.74.02ZM412.19,511.1c-.3-.38-.86-.95-1.24-1.18s-1.48.69-1.61,1.1c-.24.75-.04,2.08.51,2.22.45.12,1.86.14,2.11-.25s.19-.9.22-1.89ZM305.22,516.34c-.23-.97-.87-2.76-1.62-2.95-1.12-.28-2.22,1.65-1.97,2.63.34,1.39,2.04,1.51,3.59.31ZM317.51,526.27l.22-7.73c-1.13-.12-3.04.57-3.07,1.48l-.22,5.58,3.08.67ZM324.5,525.96l-.03-7.34-5.69-.03c-.39,2.68-.46,5.03-.09,7.52l5.81-.15ZM331.22,526.03v-7.37s-5.96,0-5.96,0l.07,7.42,5.89-.05ZM337.68,525.91l-.05-7.34-5.67.03v7.27s5.72.04,5.72.04ZM317.54,534.09l-.19-7.13c-.87-.05-2.95.5-3.03,1.24-.15,1.27-.18,3.83-.25,5.67l3.47.23ZM324.48,533.99l-.11-7.16-5.85.2-.21,7.06,6.16-.09ZM331.17,533.97l-.05-6.96-5.88.02-.02,7.02,5.96-.09ZM337.69,534.04l-.08-7.15-5.66.04v7.11s5.73,0,5.73,0ZM317.05,538.57c.5-1.31.53-3.25-.24-3.67s-2.28.91-2,1.45c.37.71.95,1.28,2.24,2.22ZM324.38,540.19l-.03-5.26-5.97-.06-.03,4.07,6.03,1.25ZM331.22,540.62l-.14-5.69-5.86-.08-.06,5.58,6.06.19ZM331.89,534.74l-.04,6.18,5.83.03.04-6.18-5.83-.03ZM351.08,534.69l-6.55.32-6.17-.23.03,5.86,6.91-.66c2.57-.25,5.6-1.04,7.81-2.3.58-.33,1.21-2.17.72-2.58s-1.72-.45-2.75-.4ZM358.13,540.92c-.29-.49-1.96-.59-2.08-.16l-.61,2.22c-.23.84,1.98,1.06,2.85.67.61-.27.17-2.18-.16-2.73ZM408.81,586.46c-.3-9.07,5.16-22.7,8.51-30.9,1.97-4.82,4.07-9.39,4.96-14.51l-7.86,18.94c-3.58,8.64-5.63,17.48-6.44,26.75l1,5.34-.18-5.61ZM403.55,557.89c.34.02,1.41-.6,1.35-.91l-.27-1.43c-.07-.38-.92-1.32-1.31-1.39s-1.01.77-1.46,1.3c-.29.33.11.42,1.06.96l-1.07.7c-.16.11.19.66.38.68l1.31.09ZM307.91,556.81c-.03-.6-1.45-1.35-1.87-1.05s-1.06,1.14-1.31,1.76c-.33.82.05,2.6.73,2.7.58.08,1.78-.15,2.28-.46s.23-1.64.17-2.94ZM316.71,559.93c.1-1.86.13-2.76-.01-4.31-.95.46-1.48,1.31-1.63,2.02-.24,1.08-.2,1.46,1.64,2.29ZM324.03,559.74l-.18-4.42c-1.43,1.09-1.83,1.64-1.99,2.41-.19.96.61,1.87,2.17,2.01ZM330.7,559.49l.05-3.72c-.76.68-1.33,1.31-1.49,1.86-.22.75.66,1.83,1.44,1.86ZM344.33,556.4c-.77,1.02-.54,2.68.36,3.05.8.33,2.62-.23,2.67-1.22-.21-.66-1.04-1.75-1.67-2.48l-.86,2.77-.51-2.12ZM352.64,555.79c-1.46,1.73-.59,4.01-.11,3.84l1.72-.61c.76-.27-.92-4.04-1.61-3.22ZM364.28,558.95c.2-2.16-1.21-3.76-2.91-2.99l-.44,3.77c.67.55,3.26.31,3.36-.78ZM336.86,559.64c1.17-1.19,1.02-2.42.53-3.37-.39,1.28-.62,2.37-.53,3.37ZM339.08,559.52c.73-1.38.35-2.26-.2-3.13-.05,1.45,0,2.52.2,3.13ZM297.86,584.05c.25.73,1.94,1.24,2.58.88.78-.43,1.35-1.84,1.11-2.54-.28-.85-1.77-1.87-2.55-1.33-.65.45-1.38,2.28-1.14,2.98ZM431.13,645.97c-3.53-11.85-8.88-22.06-13.53-33.01l-7.93-18.69c.95,5.27,3.13,9.58,5.15,14.11l9.09,20.34,7.21,17.25ZM306.49,596.55c-.53.12-1.58.98-1.75,1.51-.24.78-.19,2.26.28,2.64s1.89.28,2.62,0c.65-.25.19-4.46-1.16-4.15ZM323.58,600.89l-.14-4.21c-.76.83-1.08,1.26-1.49,2.09-.23.47.25,1.11,1.63,2.11ZM330.73,600.68l-.12-3.86c-.61.88-1.06,1.61-1.39,2.32-.23.49.71,1.37,1.52,1.54ZM360.45,600.4c.93.54,2.48.73,3.38.12.7-.48.61-2.23.22-3.03-.32-.67-2.51-1.18-2.7-.46l-.9,3.37ZM316.09,600.51l-.09-3.37c-.52.17-1.25,1.41-1.34,2.04-.07.46.69,1.02,1.43,1.33ZM324.65,600.55c.59-.55,1.19-1.35.94-1.79l-.93-1.6v3.38ZM331.65,600.54c2.27-1.23.79-2.4-.03-3.11l.03,3.11ZM338.02,600.53l-.13-3.38c-.6.75-.95,1.21-1.19,1.61-.4.69.11,1.65,1.31,1.77ZM339.15,600.73c1.12-1.56.53-2.56-.37-3.5-.12,1.23-.02,2.47.37,3.5ZM345.03,600.53l-.08-3.33-1.01,1.94c-.18.35.62,1.01,1.09,1.39ZM345.77,600.95c1.81-.98,1.8-2.03,1.18-2.57l-1.31-1.14.13,3.71ZM354.44,598.97c0-.94-.77-1.71-1.71-1.71s-1.71.77-1.71,1.71.77,1.71,1.71,1.71,1.71-.77,1.71-1.71ZM317.23,600.41c1.26-.46,1.74-1.93.21-2.84l-.21,2.84ZM399.51,602.7c-.56-1.54-.96-2.36-1.84-3.56-1.26.78-2.36,2.26-1.99,3.18.55,1.39,2.11,1.52,3.82.38ZM383.21,615.66c1.46,1.07,3.04-.59,3.28-1.89.17-.93-1.24-2.68-2.41-2.29-1.6.52-2.38,3.06-.86,4.18ZM392.31,621.9c-.82-1.85-2.35-3.33-4.12-4.57.7,1.99,1.56,3.91,4.12,4.57ZM284.89,622.98c0,.68,1.8,1.35,2.51,1.07.64-.25,1.41-1.32,1.33-2s-1.3-2.14-2.05-2.11c-.85.03-1.79,2.11-1.8,3.04ZM400.59,631.59c-.65-2.29-1.75-3.58-3.63-3.88.65,1.86,2.12,3.1,3.63,3.88ZM307.8,633.25c-.27-.29-1.52-.37-1.72-.02l-.93,1.65c-.34.61-.43,2.07.09,2.46.45.34,2.12.67,2.44.21s.64-3.73.11-4.3ZM405.98,637.49c0-1.61-.46-3.26-1.65-3.43-.95-.14-2.09,1.13-2.19,1.9-.13,1.01.57,2.33,1.44,2.47.92.15,2.41-.27,2.4-.94ZM316.94,639.62c1.65-1.03,1.97-1.71,1.59-2.19l-1.66-2.08c-.39,1.86-.35,3.12.07,4.26ZM325.8,639.55l-1.46-2.9-.31,4.13c.39.12,1.98-.81,1.78-1.22ZM331.56,642.05c2.52-1.36,1.06-2.84-.09-3.7l.09,3.7ZM330.67,641.78l-.1-2.93-.72,1.32c-.08.14-.19-.01-.35-.16l-.71-.67c-.03.54.25,1.86.68,2.01l1.19.43ZM336.39,641.87c.13.97,2.11,1.49,3.06,1.08.68-.3.91-1.72.63-2.5-.25-.7-2.19-1.64-2.6-1.02s-.97,1.89-1.08,2.45ZM416.52,641.65c0-1.05-.85-1.89-1.89-1.89s-1.89.85-1.89,1.89.85,1.89,1.89,1.89,1.89-.85,1.89-1.89ZM343.88,643.32c-.24.57,1.31,1.13,1.91.93.66-.22,1.94-1.57,1.48-2l-2.12-1.98-1.28,3.05ZM354.38,644.05l-2.17-2.8-1.41,3.73c.54.32,1.74.65,2.26.62s1.6-1.18,1.32-1.55ZM364.4,645.71c-.2-1.46-1.38-3.53-2.45-3.03s-2.27,2.31-2.43,3.52c-.1.78,1.82,1.63,2.59,1.52s2.41-1.12,2.29-2ZM300.63,655.73c.63-.6.34-2.23-.12-3-.33-.54-1.76-.93-2.17-.43-.73.88-1.29,2.59-.72,3.15.67.65,2.23,1.02,3.01.28ZM377.94,658.9l-1.1-2.8c-1.17-.08-2.29.7-2.52,1.84-.15.73.64,2.08,1.39,2.28.69.18,2.49-.67,2.23-1.31ZM316.25,659.5v1.83h6.68v-1.83h-6.68ZM329.72,661.3c.25,0,.91-.57,1.11-.72s-.48-1.06-.73-1.06l-5.88.06c-.44,0-.14,1.76.34,1.76l5.17-.04ZM337.02,661.31c.27,0,1.01-.55,1.2-.73s-.39-1.14-.66-1.13l-6,.06v1.78s5.45.03,5.45.03ZM358,666.16c.78.16,2.34-.25,2.73-.84.29-.44-.29-1.54-.6-1.97s-1.87-.53-1.91-.01l-.21,2.82ZM312.01,665.52c.28-.79-.37-1.88-1.16-2.22-.54-.23-1.89.69-1.78,1.38.09.6.39,1.52.53,1.76l1.21-1.63c.18-.24.88.57,1.21.7ZM341.92,668.48l8.04-.25,6.16-.19c.56-.02.74-1.6.32-1.9-.34-.24-1.14-.41-1.77-.4l-23.13.54c-.72.02-.3,2.91.5,2.81l6.38-.8c.84.06,2.29.22,3.5.18ZM325.38,669.58l4.84-.9c.48-.09.94-1.95.44-2.09l-1.92-.53c-.32-.09-1.19.33-1.09.62l.48,1.36c-1.2-.95-3.73-2.03-4.58-.66-.22.35-.21,1.99.18,2.05.26.04,1.33.21,1.65.15ZM320.04,669.71c.67-.34,2.41-.27,2.86-.82.2-.25.24-1.71-.06-1.79l-1.49-.41c-.36-.1-1.56.15-1.45.5l.44,1.41c-1.15-.51-3.53-.96-4.19-.08-.81,1.08.25,2.8,1.32,2.41.65-.24,1.48-.65,2.57-1.21ZM359.66,667.68l-1.13-1.11c-.15-.15-1.19.71-.99.74l2.11.37ZM314.05,669.59l-1.44-1.9c-.58,1.36-1.04,2.53-.39,2.78.72.29,2.08.39,2.56.05.72-.5.67-1.94-.47-2.68l-.26,1.74ZM351.38,669c-.3.02-.6,1.07-.36,1.25s.85.44,1.01.18l.55-.93c.11-.19-.97-.51-1.2-.5ZM356.93,669.82c0-.49-.4-.88-.88-.88s-.88.4-.88.88.4.88.88.88.88-.4.88-.88ZM336.07,669.36c-.39.01-.95,1.05-.63,1.28.38.26.89.7,1.11.47l1.04-1.1c.22-.23-1.2-.66-1.52-.65ZM340.43,668.87l-1.11,1.23,1.42,1.28,1.11-1.23-1.42-1.28ZM344.1,669.12l-1.22.79.93,1.43,1.22-.79-.93-1.43ZM347.53,669.71c-.32.1.36.94.61,1.16s.64.06.76-.25c.14-.37.28-1.45-.04-1.34l-1.33.43ZM328.76,669.68l-1.18,1.13,1.05,1.1,1.18-1.13-1.05-1.1ZM333.4,669.63l-1.3.57.68,1.55,1.3-.57-.68-1.55ZM320.38,670.56c-.38-.06-.1,1.27.09,1.61.15.27.95-.04,1.14-.28s.7-1.03.4-1.07l-1.64-.25ZM324.98,670.6c-.35-.02-.53.8-.27,1.03.37.32.77.77.93.54l.83-1.16c.16-.22-.85-.37-1.5-.41ZM314.82,671.99c.6.12-.14-.03-.79-.16-.3-.11-1.33-.36-1.36-.02l-.12,1.28c-.02.26.75.26.95.08l1.33-1.18ZM317.67,671.16l-1.24,1.24,1.16,1.16,1.24-1.24-1.16-1.16ZM337.24,679.46l2.29-.8c.3-.15-.02-1.54-.38-1.73s-1.28-.23-1.39.13c-.18.6-.26,1.59-.64,1.74l-2.15.8c.59.14,1.64.1,2.27-.13ZM347.55,678.01c-.22-.84-1.63-1.78-1.88-1.35-.22.37-.64,1.33-.86,1.85l-1.9,1.31c1.71-.3,3.1-.89,4.65-1.81ZM353.67,679.02c.44-.05,1.5-1.01,1.33-1.45-.15-.4-.53-.66-1.09-.9-.39-.17-.96.95-1.18,1.5s-1.37.65-2.44,1c.8.11,1.98.02,3.39-.15ZM332.43,680.08c.27.18,1.56.42,1.59.15s.13-.77.13-.74l-1.95-.84c-.32-.88-1-1.84-1.53-1.69-.43.12-.86,1.14-1.14,1.64-.23.42-1.19.7-2,1,.11.3.24.88.52.83,2.42-.45,2.4-1.66,3.04-1.23l1.35.9ZM326.67,680.83c-1.36-.82-1.99-.95-2.11-1.34l-.4-1.41-1.8.03c-.39,0-.48,1.39-.82,1.58l-1.85,1.07,6.97.07ZM355.57,678.91c-.31.06.43,1.04.72.91.19-.08.62-.24.83-.32s-.09-.9-.3-.85l-1.25.26ZM316.23,679.02l-.86,1.73-.59-1.61c-.42.91-.51,1.56-.86,1.72l-2.01.9c1.01.26,3.02.3,4.28.09.65-.16.48-2.3.05-2.82ZM337.56,692.4l-.13-3.4-1.58-.23c.95-1.33,1.09-3.69.13-4.52-.5-.43-2.57-.47-2.73.13-.13.5-.28,1.36-.39,2.09l-.59,3.9c-.06.42-.53,1.51-.85,1.35-.4-.2-.57-.33-1.35.54l7.5.14ZM321.73,689.05l-4.87.02-.2,3.21-2.35-.07-.71-2.82c-1.18-.38-2.11-.6-2.51-1.05s-.77-1.93-.5-2.46c.14-.29,1.18-1.13.86-1.18l-1.93-.31c-.12,2.02-.64,3.91-2.72,5.26l4.6.12c.3,0,.85,1.04.57,1.13-.19.06-.81.26-1.08.31l-3.52.7c2.66.8,5.09.92,7.72.84l6.6-.2.04-3.51ZM424.32,686.54c-.18-.96-.41-1.75-.79-2.14s-1.96.38-2.1.89c-.21.77-.37,1.93,0,2.31.3.31,1.22.62,1.84.78.33.09,1.65-.55,1.5-.87l-.45-.97ZM340.12,692.21l4.93-.17v-3.17s-5.14.24-5.14.24l.21,3.1ZM329.36,692.37l.06-3.37c-1.63-.01-3.44-.02-4.68.35-.75.23-.66,2.65-.36,3.07l4.98-.05ZM352.25,692.02l-.2-2.96c-1.41-.04-3.07.02-4.53.21l.41,2.81,4.31-.05Z"/>
  <path class="cls-2" d="M351.26,527.78c-.26,2.21-.21,1.98-.03.77l.49-1.65c.19-.66,2.88,1.02,2.73.21-.46-2.44.8-.16-3.37-1.78-1.61.55-3.85.53-5.81.53h-6.95s.02-7.28.02-7.28l16.01-.02c-1.57-2.02-3.94-.93-5.79-.91l-10.23.09.02-8.1,14.95.13c.21.33.35.01.64-1.05l-15.59.1-.08-8.57h5.64s.36,3.61.36,3.61l.54-3.61,5.34-.02c.32,1.57.52,1.83.83.26.99-.89,3.3.49,3.33,1.97l.28,12.9c.1,4.42,1.49,8.92,4.63,12.07,6.29,6.31,20.13,5.19,27.12-.82,4.52-3.89,7.51-9.26,9.04-15.04l3.42-12.9c.66-2.49,2.32-4.77,4.09-5.77,6.18-3.48,14.16,1.8,17.06,6.91,4.08,7.2,5.14,15.17,5.02,23.38-.07,4.81-.06,9.32-1.52,13.73,1.24-10.46,2.09-22.69-1.85-32.42-1.58-3.9-3.85-8.23-8.69-9.17,4.95,5.76,7.97,11.54,8.95,18.8,1.69,12.61-.46,24.86-5.05,36.72l-6.46,16.7c-4.5,11.63-5.83,23.28-.72,34.9l13.2,29.99c6.99,15.88,12.18,32.08,14.16,49.35.47,4.1.78,7.55.36,11.73.16.26.77.96.61.64,1.97-17.68.02-23.25-4.07-39.03l-1.52-5.85,2.51,7.85c3.98,12.42,5.61,25.03,4.53,38.02-1.25,14.93-7.53,28.22-18.85,38.09-12.07,10.51-26.89,16.44-42.92,17.92-13.12,1.21-25.76.55-38.87,1.22l-4.97.26-.51,2.61.61.66c.19.21.68-.62.61-.89-.09-.34-.56-1.41-.27-1.44l1.91-.17c.16-.01.83.2,1.01.25s-.3.43-.48.64l-.63.78c-1.2,1.49,2.65-.3,2.53.75-.06.48-.19,1.62-.19,1.59l-1.09-.42c-1.3,1.21-2,1.2-3.1,1.03-.01-.74.15-1.53-.13-1.43l-1.57.52-.62.03.51-4.89c-19.48.02-39.76.31-58.15-6.89-10.33-4.04-19.51-10.05-27.36-17.8-9.05-8.93-14.46-20.19-15.6-32.79-.39-4.33-.8-8.58-.54-12.91l.41-6.87c1.07-17.81,10.28-42.62,17.35-59.23,3.55-8.34,6.97-16.28,9.8-24.86,2.3-6.98,3.41-15.22,2.24-22.55-4.15-26.06-13.95-42.87-16.42-70.35-1.16-12.89.85-28.42,9.1-38.7,2.85-3.55,6.65-5.6,10.93-5.79,5.18-.23,9.14,2.63,9.82,8.01,1.43,11.4,1.89,25.16,10.4,33.09,5,4.66,11.2,7.79,18.11,8.59,5.59.65,11.51-3.06,11.86-8.87l.64-10.53c.05-.74.05-2.39.36-2.95.35-.64,1.61-.94,2.89-1.04l-.12,9.88-2.22-.07c-.4-.01-.65.83-.63,1.29l2.9-.28-.19,8.84c-1.73,0-2.84-.22-3.1,1.32l2.82-.65c.64,2.64.62,5.75.09,8.69l-2.5.07c-.18,0-.67.23-.63.41.07.27.3,1.26.24.97,1.17-.36,2.36-.63,2.93-.4.05,2.46.02,5.16-.22,7.46-.08.81-2.82.46-2.9-.41l-.28-3.22c-3.34-1.35-6.8-2.74-10.36-3.66-3.77-.97-7.14,1.85-8.44,5.34-1.54,4.16-1.59,8.95-.18,13.4,6.03,19.13,5.13,39.18-2.57,57.74-3.16,7.61-5.87,14.79-8.37,22.69-3.58,11.29-4.44,23.25-.66,34.52,1.69,5.04,4.52,9.85,9.12,12.52,7.07,4.09,13.12,2.92,21.51,3.34.47.02.69,1.61.35,1.62l-7.07.22c-.9.03-2.04,2.21-2.03,3.13l.19,21.5c.02,2.57-.35,5.56,1.89,7.51,1.07.4,3.31.66,4.76.64l48.13-.79c.35,0,1.27-.38,1.52-.59s.17-1.18.11-1.45l-7.11.76c-.02-1.38-.17-2.93.46-3.16l2.21-.81c.49-.18.11-1.36-.09-1.92l-.55-1.52c-.16-.44,1.79-1.02,2.17-.75.58.43.47,1.79.3,3.31l.61.27,2.69,1.5-6.44,1.01c2.16.86,4.51.98,6.57.34l-.25-26.9c-.02-2.41-3.53-2.65-5.12-2.62l-4.14.08c-2.58.05-5.06.29-7.61.29h-7c-.27-.29-.09-1.87.47-1.87l23.25.1c8.19.04,14.79,3.77,21.17,8.22,9.36,6.54,18.16,13.08,26.86,20.48,4.42,3.76,6.14,2.58,12.84,2.38,5.53-1.71,7.82-7.91,6.87-13.11-2.98-16.43-9.25-35.5-16.35-50.59-4.18-8.89-8.61-17.15-11.7-26.58-3.77-11.52-3.04-24.56,1.92-35.61,4.34-9.68,8.63-18.68,10.91-28.98,2.01-9.08,3.74-25.85-3.94-32.68-.44-.39-1.6-.7-2.1-.48s-1.47,1.34-1.58,1.89c-1.68,8.27-4.45,15.93-8.86,23.07-6.28,10.17-17.56,15.46-29.48,13.38-2.59-.45-14.57-3.95-15.14-6.9l-8.66-.35c-.18,0-.43-1.04-.54-1.19s-.34-.28-.37-.12l-.3,1.55-5.89.15-.06-7.17h5.4c.09-.01.59.47,1,.83-.07.93-.04,1.11.29-.57l3.84-.44c.65-.07,1.85.62,2.41,1.09ZM233.16,686.92c.66-2.95.96-5.5,1.15-8.24.48-6.99,1.92-13.61,3.83-20.31l5.58-19.59c1.89-6.64,4.51-12.72,7.32-19.01,3.5-7.84,6.75-15.38,9.64-23.45,4.11-11.47,4.85-23.09,2.24-35.03-1.96-8.93-4.28-17.39-6.83-26.21-5.81-20.12-10.79-36.45-6.69-57.67,1.1-5.69,3.41-10.69,6.81-15.32.77-1.05,1.19-2.14,1.22-4.05-15.84,10.99-14.08,42.43-9.48,58.81l7.82,27.89c6.06,21.61,9.26,33.41.18,55.34l-9.69,23.39c-5.92,14.3-13.1,35.17-14.2,50.53-.32,4.43-1.57,8.89,1.1,12.92ZM282.58,496.66c-2.29-3.18-4.34-5.38-5.6-8.31-2.57-5.99-3.87-12-4.75-18.42-.59-4.25-.61-8.68-3.24-12.23,1.11,5.33,2.23,9.86,2.83,14.84.89,7.44,3.08,14.43,6.74,20.88.92,1.62,2.54,3.27,4.03,3.23ZM402.38,502.1c.46-1.78,1.15-3.28.7-5.25-1.76,2.26-2.59,5.01-3.03,7.93-1.2,7.89-4,14.88-8.35,21.42,6.23-2.37,9.26-18.57,10.67-24.09ZM361.95,532.46c-5.05-4.96-4.4-2.39-6.78-9.32-.83,2.85,2.68,11.13,6.78,9.32Z"/>
  <path class="cls-2" d="M349.03,280.62l.34,9.36c.01.33-.31,1.36-.64,1.35h-1.45s-.42-8.81-.42-8.81l-.4,8.74-3.96.08-.34-13.01-.41,12.82c-1.1.15-3.02.14-4.21.02v-21.31s3.57-.36,3.57-.36l.54,2.2.78-1.93,3.57-.11.34,5.7.64-5.42c.22-.69,1.88.72,1.9,1.49l.16,9.2Z"/>
  <path class="cls-2" d="M336.6,245.61l.12,19.13.12,3.75c-1.65.57-3.6.25-4.41-.73-.95,1.14-2.91,1.23-4.37.77-.35-2.15.02-4.28.05-6.45l.2-16.45h3.93s.47,12.87.47,12.87l.29-12.9h3.61Z"/>
  <path class="cls-2" d="M343.58,385.78l-.38-11.85-.47,11.76c-1.53.09-3.23.06-4.88-.09v-15.74s10.23.05,10.23.05l.15,15.77-4.66.09Z"/>
  <path class="cls-2" d="M353.46,478.88l-8.83.07-.35-6.27-.56,6.3h-5.45s0-10.28,0-10.28l6.11.06c2.05.02,4.06.1,5.86.25.63-.12,1.62-.32,2.01-.05.47.32,1.21,1.59,1.21,2.16v7.75Z"/>
  <path class="cls-2" d="M347.94,268.91c-2.5,1.55-.55-12.17-1.61-13.66l-.22,13.49-4.09-.14-.17-22.95,6.41.24.61,21.36c.02.55-.61,1.46-.93,1.66Z"/>
  <path class="cls-2" d="M355.26,204.52l.93-3.45c.3-1.1,1.1-2.24,2.01-3.17-.94-.46-3.24-1.67-3.73-2.71-.21-.44.11-2.06.6-2l3.02.41-3.18-2.63,2.44-.16-3.1-2.3,2.39-.22-3.06-2.54,2.99.05c-1.66-3.1-3.29-.13-4.18-2.55-.25-.68-.13-2.15.38-2.25l.71,1.54c.12.27.63-.21.91-.35l1.74.84c-1.18-2.47-3.1-2.81-5.4-3.46-.6-.54.52-2.22,1.47-2.48.7-.19,1.37.22,3.51.84l-1.95-4.4c1.43.46,2.83,2.73,3.16,4.61.12.67-1.52,1.48-2.33,1.7,1.12.72,2.69,2.07,2.86,3.29l1.28,9.19c.49,3.49,6.82.46,7.07,3.37l-5.82-.04c.01.28.07,1.12-.03,1.44-.12.39-.87.86-1.12,1.06,3.55,1.4,4.38,6.48,3.92,9.35-3.97-.25.31-5.83-4.68-7.76l-1.92,6.9c-4.21-.84-6.37-4.71-5.75-8.55.12-.71,1.81-.93,2.26-.48.75.74.54,1.53.11,2.82-.29.99.8,2.41,2.5,4.1ZM358.76,196.39c-.66-.86-1.55-1.36-2.72-1.47.66.86,1.55,1.35,2.72,1.47Z"/>
  <path class="cls-2" d="M337.1,402.36l.14,13.97-4.75.06-.59-3.59-.47,3.54h-4.97s.22-13.77.22-13.77h4.83s.26,6.73.26,6.73c.03.81,1.96,1.91,2.82,1.94.63.02,1.89-1.11,1.88-1.74s-.71-1.76-1.33-2.19c-.51-.35-1.49.02-2.5.48l-.25-5.38,4.71-.05Z"/>
  <path class="cls-2" d="M348.46,351.78c1.68.49,2.24,2.15,2.26,3.6l.16,13.75-7.79-.13-.08-16.9,4.55-.03.38,11.5.52-11.79Z"/>
  <path class="cls-2" d="M350.44,350.36c0,.5-1.16.97-2.04.96l-.43-14.12-.43,14.07h-4.52s-.08-17.9-.08-17.9l4.15-.17.32,3.11.76-3.18c.5-.25,2.1,1.2,2.11,2.04l.16,15.2Z"/>
  <path class="cls-2" d="M348.11,237.3c.39,2.02.32,4,0,5.88l-19.89-.31-.34-5.73c.48-.21,1.8-.45,2.45-.45.73-.01,1.72,1.15,1.85,1.59.51-.73,1.49-1.48,2.22-1.46l13.71.47Z"/>
  <path class="cls-2" d="M351.58,400.81c.01.73-2.09,1.03-2.17.41l-.44-3.67-.5,3.91-4.92.2-.09-15.08,4.59-.06.42,3.35.61-3.34c.88-.3,2.26.94,2.28,2.22l.21,12.06Z"/>
  <path class="cls-2" d="M352.22,429.58c.01.43-1.6,1.23-1.77.92l-1.02-1.88-.56,1.87-4.75.03-.25-8.68-.08-4.54,4.81-.11.37,4.2.7-4.22c.27-.66,2.19.66,2.22,1.63l.33,10.78Z"/>
  <path class="cls-2" d="M327.38,252.72l-.25,16.05-4.22-.03.19-23.08,4.42-.05c.08,2.62-.1,4.62-.14,7.11Z"/>
  <path class="cls-2" d="M327.18,291.09l-4.75.39.1-17.29c0-1.37.38-3.07.54-4.59l4.07.15.03,21.34Z"/>
  <path class="cls-2" d="M350.1,444.16c2.32.1,2.39,2.12,2.48,3.93l.4,7.83-8.69.15-.05-5.8-.09-5.82,5.01.05.37,4.74.58-5.08Z"/>
  <path class="cls-2" d="M326.71,312.4l-4.67.06c-.09-3.7.02-7.06.16-10.65l.35-9.52,4.25-.05c.3,2.29.18,4.35.04,6.71-.25,4.45-.14,8.51-.13,13.46Z"/>
  <path class="cls-2" d="M350.51,468.07l-.48-9.05-.33,8.84-5.49-.03-.03-10.85,6.1-.09c.85-.01,2.62.62,2.64,1.64l.16,7.93c0,.32-.09,1.17-.3,1.21l-2.28.41Z"/>
  <path class="cls-2" d="M332,273.43l-.12,17.85-4.13.11.11-21.25c1.22-.52,2.85-.58,4.18-.33l-.04,3.62Z"/>
  <path class="cls-2" d="M341.28,268.06c-.01.94-3.85,1-3.81.04.35-7.36-.83-14.02-.15-22.35l4.06.09-.1,22.22Z"/>
  <path class="cls-2" d="M326.57,351.05l-5.15.31v-13.7c0-1.09.37-2.7.7-4.1l4.4-.07.04,17.56Z"/>
  <path class="cls-2" d="M326.63,332.5h-4.72s.05-19.03.05-19.03c1.62-.19,3.09-.18,4.71.01l-.04,19.01Z"/>
  <polygon class="cls-2" points="337.1 332.46 332.55 332.55 332.59 313.34 337.02 313.39 337.1 332.46"/>
  <polygon class="cls-2" points="331.89 332.51 327.37 332.52 327.47 313.41 331.88 313.34 331.89 332.51"/>
  <polygon class="cls-2" points="336.84 291.14 332.62 291.23 332.72 269.76 336.78 269.74 336.84 291.14"/>
  <path class="cls-2" d="M346.71,309.14c.01,1.14.2,2.12.29,3.31l-4.51-.13-.05-20.09,4.1-.07.17,16.98Z"/>
  <polygon class="cls-2" points="342.38 351.26 337.77 351.27 337.79 333.29 342.3 333.35 342.38 351.26"/>
  <polygon class="cls-2" points="341.93 312.36 337.76 312.41 337.66 292.23 341.84 292.18 341.93 312.36"/>
  <path class="cls-2" d="M353.46,489.04c0,.61-2.51.78-2.58.21l-.32-2.9-.47,3.17h-5.51s-.09-9.68-.09-9.68l6.24-.02c1.01,0,2.8.38,2.79,1.91l-.07,7.31Z"/>
  <path class="cls-2" d="M331.92,312.25l-4.31.17.19-19.95c1.17-.15,2.46-.18,4.08-.16l.04,19.93Z"/>
  <polygon class="cls-2" points="331.83 351.26 327.16 351.26 327.29 333.24 331.83 333.55 331.83 351.26"/>
  <path class="cls-2" d="M347.18,332.4h-4.27c.54-8.04-.9-11.56-.29-19.12l4.46.05.1,19.07Z"/>
  <path class="cls-2" d="M354,491l.09,8.25-2.1.16c-.51.04-1.15-.92-1.45-1.37l-.41.99c-.11.28-.95.47-1.25.46l-4.29-.13.02-9.03,5.44-.07.54,2.53.39-2.69,3.02.88Z"/>
  <path class="cls-2" d="M331.92,368.86l-4.92.29c-.67-5.93.65-9.27.15-16.99l4.69-.04.07,16.74Z"/>
  <polygon class="cls-2" points="342.08 325.93 342.23 332.42 337.73 332.45 337.7 313.38 341.79 313.23 342.08 325.93"/>
  <polygon class="cls-2" points="331.78 385.66 326.85 385.87 326.86 370.01 331.74 370.02 331.78 385.66"/>
  <polygon class="cls-2" points="326.1 385.58 320.87 385.96 321.09 370.07 326.1 369.96 326.1 385.58"/>
  <polygon class="cls-2" points="326.09 368.93 321.24 369.16 321.31 364.57 321.51 352.15 326.26 352.19 326.09 368.93"/>
  <polygon class="cls-2" points="337.18 369.09 332.48 369.07 332.47 352.1 337.12 352.09 337.18 369.09"/>
  <polygon class="cls-2" points="342.47 369.04 337.76 369.07 337.73 352.08 342.37 352.09 342.47 369.04"/>
  <polygon class="cls-2" points="331.75 401.53 326.66 401.62 326.75 386.7 331.75 386.79 331.75 401.53"/>
  <path class="cls-2" d="M325.69,401.57l-4.93.11.11-14.82c1.33-.15,3-.23,4.95-.23.51,5.1.44,9.56-.12,14.93Z"/>
  <polygon class="cls-2" points="342.95 401.68 337.89 401.53 337.82 386.6 342.87 386.62 342.95 401.68"/>
  <path class="cls-2" d="M337.1,312.34l-4.56.1.1-8.11c1.42.19,2.61.2,3.07-.32s.47-2.32.03-2.85-1.57-.56-2.96-.48c-.31-2.47-.31-5.29,0-8.23,1.29-.18,2.84-.17,4.09-.01l.04,12.02.2,7.89Z"/>
  <path class="cls-2" d="M351.08,534.69c1.03-.05,2.27-.01,2.75.4s-.14,2.25-.72,2.58c-2.21,1.26-5.24,2.05-7.81,2.3l-6.91.66-.03-5.86,6.17.23,6.55-.32Z"/>
  <path class="cls-2" d="M325.59,416.41l-5.31-.02.27-13.92c1.97-.14,3.61-.04,5.2.25l-.17,13.69Z"/>
  <polygon class="cls-2" points="348.81 416.27 343.65 416.35 343.56 402.29 348.62 402.35 348.81 416.27"/>
  <polygon class="cls-2" points="342.99 416.39 337.99 416.4 337.98 402.5 342.9 402.24 342.99 416.39"/>
  <path class="cls-2" d="M332.48,351.25l.15-7.27c1.26.06,2.41.07,3-.19.69-.3.7-2.34.21-2.9s-1.91-.53-3.22-.28l-.06-7.05,4.46-.28.08,18-4.62-.02Z"/>
  <polygon class="cls-2" points="325.49 443.59 319.86 443.75 320.02 431.54 325.42 431.44 325.49 443.59"/>
  <polygon class="cls-2" points="325.56 430.49 320.2 430.46 320.43 417.26 325.59 417.26 325.56 430.49"/>
  <path class="cls-2" d="M337.34,430.41l-5.14.05c-.36-4.67-.39-8.75.12-13.22l4.87.05.15,13.12Z"/>
  <path class="cls-2" d="M331.4,430.49h-5.06c-.24-4.63-.29-8.78.18-13.25l4.91.09-.03,13.16Z"/>
  <rect class="cls-2" x="332.45" y="386.5" width="4.73" height="14.97"/>
  <path class="cls-2" d="M343.15,423.64c.12,2.48.2,4.49.1,6.82l-5.07.06-.1-13.2,4.76-.13.31,6.44Z"/>
  <polygon class="cls-2" points="349.33 443.7 344.08 443.65 343.98 431.39 349.13 431.35 349.33 443.7"/>
  <polygon class="cls-2" points="331.42 443.67 326.2 443.67 326.29 431.45 331.38 431.39 331.42 443.67"/>
  <polygon class="cls-2" points="343.44 443.75 338.04 443.58 338.02 431.45 343.38 431.4 343.44 443.75"/>
  <path class="cls-2" d="M337.46,443.59l-5.32.05c-.26-4.43-.27-8.02.07-12.26l5.21.06.04,12.15Z"/>
  <polygon class="cls-2" points="337.53 456.04 332.03 456.01 332.07 444.58 337.46 444.45 337.53 456.04"/>
  <polygon class="cls-2" points="337.55 467.85 332 467.9 332.02 457.08 337.48 456.98 337.55 467.85"/>
  <path class="cls-2" d="M325.06,467.87l-5.44.09c-.44-3.64-.3-7.07.33-10.98l5.2.09-.09,10.8Z"/>
  <path class="cls-2" d="M324.84,450.62l.25,5.25c-1.79.43-3.42.37-5.3.1l.09-11.31,5.54-.04-.57,6Z"/>
  <path class="cls-2" d="M332.47,385.65l.05-6.22c1.07.17,2.34.28,2.95-.1s.82-2.13.47-2.74c-.49-.84-1.88-1.1-3.33-.74l-.13-5.91,4.63-.04.02,15.85-4.65-.1Z"/>
  <polygon class="cls-2" points="337.66 479 332 479.01 332.01 468.79 337.57 468.72 337.66 479"/>
  <polygon class="cls-2" points="325.04 478.98 319.3 478.98 319.61 468.71 325.02 468.77 325.04 478.98"/>
  <polygon class="cls-2" points="331.37 478.99 325.77 479.03 325.83 468.8 331.33 468.7 331.37 478.99"/>
  <path class="cls-2" d="M341.92,668.48c-1.21.04-2.66-.12-3.5-.18l-6.38.8c-.8.1-1.22-2.79-.5-2.81l23.13-.54c.63-.01,1.43.15,1.77.4.42.3.24,1.88-.32,1.9l-6.16.19-8.04.25Z"/>
  <path class="cls-2" d="M331.36,467.9l-5.42-.02c-.11-1.82-.09-3.71,0-5.65l.24-5.22,5.19-.02v10.91Z"/>
  <polygon class="cls-2" points="343.52 467.88 338.26 467.89 338.25 457.01 343.45 456.97 343.52 467.88"/>
  <polygon class="cls-2" points="343.99 489.51 338.32 489.52 338.28 479.8 343.86 479.82 343.99 489.51"/>
  <polygon class="cls-2" points="325.01 489.55 319.25 489.54 319.32 479.89 324.95 479.82 325.01 489.55"/>
  <polygon class="cls-2" points="331.27 489.51 325.69 489.55 325.75 479.82 331.23 479.8 331.27 489.51"/>
  <path class="cls-2" d="M324.96,499.34l-5.8.12c-.44-3.16-.46-5.82.26-9.17l5.47.16.07,8.89Z"/>
  <path class="cls-2" d="M326.38,456.25c-1.09-3.76.22-3.05,1.59-5.33,1.1-1.82-2.92-.9-1.65-6.39h5.05s.01,11.5.01,11.5l-4.99.23Z"/>
  <polygon class="cls-2" points="331.35 499.45 325.64 499.43 325.69 490.41 331.25 490.32 331.35 499.45"/>
  <polygon class="cls-2" points="337.66 499.48 331.98 499.43 332 490.42 337.58 490.31 337.66 499.48"/>
  <polygon class="cls-2" points="343.98 499.44 338.29 499.45 338.25 490.42 343.9 490.31 343.98 499.44"/>
  <path class="cls-2" d="M321.93,268.35c0,.7-2.5.63-2.49,0l.3-20.42c.01-.77.11-1.67.27-2.13.2-.56,2.37-.07,2.35.56l-.27,6.75-.16,15.24Z"/>
  <path class="cls-2" d="M321.39,310.75c0,.6-.4,1.86-.78,1.81l-1.81-.21c-.48-.06-.17-1.21-.16-1.89l.19-15.29c.02-1.58.43-3,2.6-2.95l-.04,18.52Z"/>
  <path class="cls-2" d="M321.69,269.8c.77,2.11-.44,21.53-.56,21.62-.43.32-1.86-.11-2.05-.48l.33-19.37c.02-1.05,1.44-2.38,2.28-1.77Z"/>
  <path class="cls-2" d="M331.32,517.67l-5.88.06c-.32-2.61-.31-4.96.02-7.99l5.78-.03.08,7.96Z"/>
  <polygon class="cls-2" points="324.74 508.76 318.78 508.9 319.09 500.25 324.68 500.34 324.74 508.76"/>
  <polygon class="cls-2" points="331.33 508.77 325.55 508.84 325.55 500.31 331.26 500.27 331.33 508.77"/>
  <path class="cls-2" d="M320.46,349.04l-.13,1.98c-.03.47-1.37.24-2.59.25l.08-14.8c0-1.5,1.02-2.89,2.84-3.05.24,3.92.33,7.67.07,11.57l-.27,4.05Z"/>
  <path class="cls-2" d="M343.15,452.46c.17.41.27,2.2.3,3.55l-5.13.05-.29-11.47,5.34-.18v3.96s-2.38.63-2.38.63c-.51.13-.76,1.42-.7,1.94.08.62,1.34,1.17,2.86,1.52Z"/>
  <path class="cls-2" d="M318.19,332.01l.08-15.22c.01-1.92.54-3.57,2.74-3.61l-.23,18.93c0,.64-2.6.61-2.59-.1Z"/>
  <polygon class="cls-2" points="337.7 517.76 331.95 517.74 332.01 509.71 337.62 509.66 337.7 517.76"/>
  <polygon class="cls-2" points="331.22 526.03 325.33 526.08 325.27 518.66 331.22 518.66 331.22 526.03"/>
  <polygon class="cls-2" points="324.54 517.74 318.68 517.77 318.85 509.71 324.51 509.72 324.54 517.74"/>
  <path class="cls-2" d="M320.36,366.96c0,1.13-.62,2.46-1.24,2.39-1.12-.13-1.98-1-1.94-2.04l.48-11.71c.08-1.86.31-3.69,2.76-3.56l-.06,14.92Z"/>
  <path class="cls-2" d="M324.5,525.96l-5.81.15c-.37-2.49-.31-4.84.09-7.52l5.69.03.03,7.34Z"/>
  <path class="cls-2" d="M332.06,489.54l.03-3.51c.85.59,1.98,1.17,2.57.98s1.51-1.23,1.53-1.86-.93-1.7-1.53-1.9c-.77-.27-1.87.6-2.54,1.53l-.09-4.92,5.47-.08.04,9.75h-5.49Z"/>
  <polygon class="cls-2" points="324.48 533.99 318.31 534.08 318.52 527.03 324.37 526.83 324.48 533.99"/>
  <polygon class="cls-2" points="331.17 533.97 325.21 534.06 325.24 527.04 331.12 527.01 331.17 533.97"/>
  <path class="cls-2" d="M321.73,689.05l-.04,3.51-6.6.2c-2.63.08-5.06-.05-7.72-.84l3.52-.7c.26-.05.89-.25,1.08-.31.28-.1-.27-1.12-.57-1.13l-4.6-.12c2.07-1.35,2.6-3.23,2.72-5.26l1.93.31c.32.05-.72.89-.86,1.18-.27.53.1,2.01.5,2.46s1.33.66,2.51,1.05l.71,2.82,2.35.07.2-3.21,4.87-.02Z"/>
  <path class="cls-2" d="M319.96,378.8c-.37,3.44.83,7.64-1.38,7.26-.38-.07-1.49-.76-1.49-1.17l.16-13.34c0-.7,1.94-1.78,2.6-1.87.68,3.31.45,5.86.1,9.12Z"/>
  <path class="cls-2" d="M319.65,401.23c-.01.74-2.97.37-2.95-.36l.3-10.56c.02-.76.2-2.04.38-2.62.19-.64,1.51-1.1,2.56-1.14l-.29,14.68Z"/>
  <polygon class="cls-2" points="337.69 534.04 331.95 534.04 331.96 526.93 337.62 526.88 337.69 534.04"/>
  <path class="cls-2" d="M349.72,310.98c.02.56-.44,1.52-.88,1.64-.7.18-1.3-.79-1.34-1.53l-.2-4.46c-.22-4.95-.14-9.47-.02-14.66.67.09,1.93,1.06,1.95,1.72l.49,17.28Z"/>
  <path class="cls-2" d="M350.01,330.1c.01,1.05.11,1.86-.22,2.25s-2.04.28-2.04-.38l-.1-18.85c1.29.24,2.16,1.4,2.18,2.5l.19,14.49Z"/>
  <path class="cls-2" d="M337.67,508.86l-5.6-.03-.1-8.54,5.64-.04.07,8.6ZM336.31,504.9c0-1.1-.89-1.99-1.99-1.99s-1.99.89-1.99,1.99.89,1.99,1.99,1.99,1.99-.89,1.99-1.99Z"/>
  <path class="cls-2" d="M408.81,586.46l.18,5.61-1-5.34c.81-9.27,2.85-18.11,6.44-26.75l7.86-18.94c-.89,5.12-2.99,9.69-4.96,14.51-3.36,8.21-8.81,21.83-8.51,30.9Z"/>
  <path class="cls-2" d="M319.34,416.55l-2.71-.46-.03-10.63c0-1.54.76-3.27,2.8-3.06.56,3.03.24,6.3.12,9.4l-.18,4.75Z"/>
  <path class="cls-2" d="M319.29,429.93c0,.55-1.82.95-2.24.64-.5-.36-1.05-1.6-1.02-2.33l.44-9.16c.05-1.08,1.76-2.2,2.87-1.79l-.05,12.63Z"/>
  <path class="cls-2" d="M337.56,692.4l-7.5-.14c.79-.87.95-.73,1.35-.54.32.16.79-.93.85-1.35l.59-3.9c.11-.72.26-1.59.39-2.09.15-.59,2.22-.56,2.73-.13.96.82.82,3.19-.13,4.52l1.58.23.13,3.4Z"/>
  <path class="cls-2" d="M319.29,442.02c0,.66-.8,1.85-1.3,1.86-.65.02-1.92-.82-1.92-1.43l.07-9.19c0-1.22,1.84-2.26,3.04-1.84l.11,10.6Z"/>
  <polygon class="cls-2" points="331.22 540.62 325.16 540.43 325.22 534.86 331.08 534.93 331.22 540.62"/>
  <rect class="cls-2" x="331.69" y="534.94" width="6.18" height="5.83" transform="translate(-204.97 869.56) rotate(-89.67)"/>
  <path class="cls-2" d="M351.9,415.27c0,.54-.89,1.39-1.29,1.41s-1.35-.76-1.34-1.26l.07-13.49c1.57.44,2.28,1.39,2.52,2.49l.05,10.85Z"/>
  <path class="cls-2" d="M351.29,383.22c.04,1.01-.06,1.9-.24,2.35s-2.21.21-2.22-.39l-.18-15.26c1.22-.35,2.17.89,2.21,1.95l.43,11.36Z"/>
  <path class="cls-2" d="M318.7,467.87l-3.25-.14.2-9.32c.02-.99,1.84-1.68,3.12-1.44l-.07,10.9Z"/>
  <path class="cls-2" d="M318.27,478.49c-.05.71-2.31.6-3.19.45l.13-8.23c.02-1.01,1.9-2.22,3.1-2.03.4,2,.35,4.13.21,6.21l-.24,3.6Z"/>
  <path class="cls-2" d="M318.84,455.42c0,1.03-3.13.95-3.1.08l.27-8.56c.01-.47.3-1.55.59-1.87.35-.4,1.43-.53,2.27-.57l-.03,10.91Z"/>
  <path class="cls-2" d="M352.49,442.12c.01.6-.54,1.51-.87,1.76s-1.79-.36-1.79-.88v-11.64c.73-.71,2.49.59,2.5,1.48l.16,9.27Z"/>
  <path class="cls-2" d="M337.68,525.91l-5.71-.04v-7.27s5.66-.03,5.66-.03l.05,7.34ZM336.38,522.5c0-1.1-.89-1.99-1.99-1.99s-1.99.89-1.99,1.99.89,1.99,1.99,1.99,1.99-.89,1.99-1.99Z"/>
  <polygon class="cls-2" points="324.38 540.19 318.36 538.93 318.39 534.87 324.35 534.92 324.38 540.19"/>
  <path class="cls-2" d="M431.13,645.97l-7.21-17.25-9.09-20.34c-2.02-4.53-4.2-8.84-5.15-14.11l7.93,18.69c4.65,10.95,10,21.16,13.53,33.01Z"/>
  <polygon class="cls-2" points="327.56 242.86 323.01 243.08 323.02 236.78 327.19 236.51 327.56 242.86"/>
  <path class="cls-2" d="M315.59,196.22l-4.54-1.41c-1.97,2.1-4.58,3.63-6.73.75,3.92,1.52,7.77-2.37,8.01-5.67l4.33,1.59c-1.11-.11-2.82-.4-3.23.3-.49.84-.47,2.88.05,2.96.73-.72,1.29-1.47,1.71-1.37.53.13,1.48.67,1.73,1.13s-.77,1.89-1.32,1.72Z"/>
  <path class="cls-2" d="M317.54,534.09l-3.47-.23c.07-1.83.11-4.4.25-5.67.08-.74,2.16-1.28,3.03-1.24l.19,7.13Z"/>
  <path class="cls-2" d="M317.51,526.27l-3.08-.67.22-5.58c.04-.91,1.94-1.6,3.07-1.48l-.22,7.73Z"/>
  <path class="cls-2" d="M335.77,231.81l1.17,2.72c.26.6-1.03,1.68-1.66,1.81s-2.28-.23-2.34-.92c-.18-2.16-.06-4.69.67-6.8,1.04.85,1.54,1.76,2.16,3.19Z"/>
  <path class="cls-2" d="M364.4,645.71c.12.88-1.49,1.89-2.29,2s-2.69-.73-2.59-1.52c.16-1.2,1.4-3.03,2.43-3.52s2.25,1.56,2.45,3.03Z"/>
  <path class="cls-2" d="M326.63,162.19l-6.09-1.88c.43-1.03,1.13-1.95,2.28-3.2l-.34-2.11,2.61,2.02c-1.26.66-2.14,2.51-1.18,3.56l1.32-1.31c.27-.26,1.21.03,1.53.24.39.26.17,1.24-.13,2.67Z"/>
  <path class="cls-2" d="M318.48,177.53c.96-.84,1.54-1.47,2.14-1.45.87.04,1.67,1.37,1.25,2.23-1.23,2.54-3.34-1.29-6.63-1.01l3.14-4.31,1.75.67c-1.54.84-2.26,2.18-1.64,3.87Z"/>
  <polygon class="cls-2" points="340.12 692.21 339.91 689.1 345.06 688.87 345.04 692.04 340.12 692.21"/>
  <path class="cls-2" d="M329.36,692.37l-4.98.05c-.3-.42-.39-2.84.36-3.07,1.24-.37,3.05-.36,4.68-.35l-.06,3.37Z"/>
  <path class="cls-2" d="M320.04,669.71c-1.1.55-1.92.97-2.57,1.21-1.07.39-2.13-1.33-1.32-2.41.65-.87,3.04-.42,4.19.08l-.44-1.41c-.11-.35,1.09-.6,1.45-.5l1.49.41c.31.08.26,1.55.06,1.79-.44.55-2.19.48-2.86.82Z"/>
  <path class="cls-2" d="M325.38,669.58c-.32.06-1.39-.12-1.65-.15-.38-.06-.4-1.69-.18-2.05.85-1.37,3.38-.29,4.58.66l-.48-1.36c-.1-.29.76-.71,1.09-.62l1.92.53c.49.14.03,2-.44,2.09l-4.84.9Z"/>
  <path class="cls-2" d="M352.25,692.02l-4.31.05-.41-2.81c1.45-.18,3.11-.25,4.53-.21l.2,2.96Z"/>
  <path class="cls-2" d="M363.25,188.32l-3.59.42c.67-.84,1.89-2.19,1.92-3.08.04-1.26-1.45-2.8-2.63-3.06.84-.49,1.33-1.34,2.2-3.02,1.15,2.57,1.7,5.68,1.01,8.26l1.57.33c.3.06.06.08-.49.15Z"/>
  <path class="cls-2" d="M322.35,242.7c-.79.24-2.37.39-2.42-.09-.22-2.1-.73-4.61.42-5.84.24-.26,1.47-.03,1.5.32l.51,5.62Z"/>
  <path class="cls-2" d="M337.02,661.31l-5.47-.03v-1.78s6.01-.06,6.01-.06c.27,0,.85.95.66,1.13s-.93.74-1.2.73Z"/>
  <rect class="cls-2" x="316.25" y="659.5" width="6.68" height="1.83"/>
  <path class="cls-2" d="M329.72,661.3l-5.17.04c-.48,0-.78-1.76-.34-1.76l5.88-.06c.25,0,.93.91.73,1.06s-.85.72-1.11.72Z"/>
  <path class="cls-2" d="M383.21,615.66c-1.52-1.12-.74-3.66.86-4.18,1.17-.38,2.59,1.37,2.41,2.29-.24,1.3-1.82,2.96-3.28,1.89Z"/>
  <path class="cls-2" d="M360.45,600.4l.9-3.37c.19-.72,2.38-.21,2.7.46.38.8.48,2.55-.22,3.03-.9.61-2.45.43-3.38-.12Z"/>
  <path class="cls-2" d="M307.91,556.81c.07,1.3.33,2.63-.17,2.94s-1.7.54-2.28.46c-.69-.09-1.06-1.88-.73-2.7.25-.62.89-1.46,1.31-1.76s1.84.44,1.87,1.05Z"/>
  <path class="cls-2" d="M405.98,637.49c0,.67-1.48,1.08-2.4.94-.87-.14-1.56-1.45-1.44-2.47.1-.77,1.24-2.04,2.19-1.9,1.2.17,1.64,1.82,1.65,3.43Z"/>
  <path class="cls-2" d="M307.8,633.25c.53.57.2,3.86-.11,4.3s-1.99.12-2.44-.21c-.53-.39-.44-1.85-.09-2.46l.93-1.65c.2-.35,1.45-.27,1.72.02Z"/>
  <path class="cls-2" d="M364.28,558.95c-.1,1.08-2.69,1.32-3.36.78l.44-3.77c1.7-.77,3.11.83,2.91,2.99Z"/>
  <path class="cls-2" d="M300.63,655.73c-.78.74-2.34.38-3.01-.28-.57-.56,0-2.26.72-3.15.41-.5,1.85-.11,2.17.43.47.77.75,2.4.12,3Z"/>
  <path class="cls-2" d="M306.49,596.55c1.35-.32,1.81,3.89,1.16,4.15-.73.28-2.15.39-2.62,0s-.52-1.86-.28-2.64c.16-.53,1.22-1.39,1.75-1.51Z"/>
  <path class="cls-2" d="M284.89,622.98c.01-.93.95-3.01,1.8-3.04.74-.03,1.97,1.43,2.05,2.11s-.7,1.75-1.33,2c-.71.27-2.52-.39-2.51-1.07Z"/>
  <path class="cls-2" d="M336.39,641.87c.11-.55.69-1.85,1.08-2.45s2.35.33,2.6,1.02c.28.79.06,2.21-.63,2.5-.95.41-2.94-.11-3.06-1.08Z"/>
  <path class="cls-2" d="M297.86,584.05c-.24-.7.5-2.53,1.14-2.98.78-.54,2.27.48,2.55,1.33.23.7-.34,2.1-1.11,2.54-.64.36-2.32-.15-2.58-.88Z"/>
  <path class="cls-2" d="M377.94,658.9c.25.65-1.54,1.5-2.23,1.31-.75-.2-1.54-1.54-1.39-2.28.23-1.14,1.35-1.92,2.52-1.84l1.1,2.8Z"/>
  <path class="cls-2" d="M336.49,167.56c0,.62-1.85.58-2.07-.05-.2-.57-.22-1.85-.07-2.52l.41-1.94c.08-.4,1.71.05,1.71.44l.02,4.06Z"/>
  <path class="cls-2" d="M424.32,686.54l.45.97c.15.32-1.17.95-1.5.87-.62-.16-1.54-.47-1.84-.78-.37-.39-.22-1.54,0-2.31.14-.51,1.72-1.27,2.1-.89s.61,1.18.79,2.14Z"/>
  <path class="cls-2" d="M399.51,602.7c-1.71,1.14-3.27,1.01-3.82-.38-.37-.93.73-2.4,1.99-3.18.88,1.21,1.28,2.03,1.84,3.56Z"/>
  <circle class="cls-2" cx="414.62" cy="641.65" r="1.89"/>
  <path class="cls-2" d="M328.05,142.42l-4.09,2.45c-.4-1.37,3.6-4.28,3.56-4.65l-.25-2,1.82,1.21-1.03,2.99Z"/>
  <path class="cls-2" d="M305.22,516.34c-1.55,1.2-3.25,1.07-3.59-.31-.24-.98.85-2.91,1.97-2.63.75.19,1.39,1.98,1.62,2.95Z"/>
  <path class="cls-2" d="M326.67,680.83l-6.97-.07,1.85-1.07c.34-.19.43-1.58.82-1.58l1.8-.03.4,1.41c.11.39.75.52,2.11,1.34Z"/>
  <path class="cls-2" d="M333.19,125.87l-3.07.68,2.52-3.58.72-.97c.2-.27,1.25.44,1.34.52l-1.5,3.35Z"/>
  <path class="cls-2" d="M354.38,644.05c.28.37-.81,1.52-1.32,1.55s-1.72-.3-2.26-.62l1.41-3.73,2.17,2.8Z"/>
  <path class="cls-2" d="M308.17,211.87l1.64-1.62c.33-.32,1.71,0,1.83.44s-.15,1.29-.48,2.46c-1.67-.48-3.55-1.29-5.37-2.17l1.84-4.03,2.7.89c-1.9.69-3.37,2.03-2.16,4.02Z"/>
  <path class="cls-2" d="M343.88,643.32l1.28-3.05,2.12,1.98c.46.43-.83,1.78-1.48,2-.6.2-2.15-.36-1.91-.93Z"/>
  <path class="cls-2" d="M355.36,171.88c-1.09,0-2.52-.05-2.35-.3l.75-1.16-1.19-1.08c.53-.62,2.39-1.06,2.94-.24.44.65.6,2.78-.15,2.77Z"/>
  <path class="cls-2" d="M344.33,556.4l.51,2.12.86-2.77c.63.73,1.46,1.82,1.67,2.48-.06.99-1.87,1.55-2.67,1.22-.91-.37-1.13-2.04-.36-3.05Z"/>
  <path class="cls-2" d="M358.13,540.92c.33.56.77,2.46.16,2.73-.87.38-3.08.16-2.85-.67l.61-2.22c.12-.43,1.79-.32,2.08.16Z"/>
  <rect class="cls-2" x="334.55" y="124.58" width="2.6" height="3.11" transform="translate(88.93 386.4) rotate(-67.09)"/>
  <path class="cls-2" d="M321.24,217.81c.06.17-.15,1.47-.54,1.76-.47.34-1.94.58-2.39.21s-.6-1.55-.81-2.35l3.73.38Z"/>
  <circle class="cls-2" cx="352.73" cy="598.97" r="1.71"/>
  <rect class="cls-2" x="329.28" y="141.75" width="2.7" height="3.16" transform="translate(87.67 409.48) rotate(-71.04)"/>
  <path class="cls-2" d="M403.55,557.89l-1.31-.09c-.19-.01-.55-.57-.38-.68l1.07-.7c-.96-.55-1.35-.63-1.06-.96.45-.53,1.06-1.37,1.46-1.3s1.24,1.01,1.31,1.39l.27,1.43c.06.31-1.02.94-1.35.91Z"/>
  <path class="cls-2" d="M322.94,203.68l3.22.37c-1.31.78-3.35.38-3.79-.5.57-1.25,1.05-2.27,1.58-2.63.83-.56,2.69-.25,2.57,1.55l-3.57,1.21Z"/>
  <path class="cls-2" d="M412.19,511.1c-.03.99.03,1.5-.22,1.89s-1.66.37-2.11.25c-.54-.14-.74-1.46-.51-2.22.13-.41,1.24-1.34,1.61-1.1s.94.81,1.24,1.18Z"/>
  <path class="cls-2" d="M352.64,555.79c.69-.81,2.37,2.95,1.61,3.22l-1.72.61c-.48.17-1.35-2.1.11-3.84Z"/>
  <path class="cls-2" d="M346.51,200.67c.2.07-1.32.72-2,.9s-1.96-.57-2.22-.96c.93-.27,1.25-.77,2.09-2.2l2.13,2.26Z"/>
  <path class="cls-2" d="M336.9,207.82c-.48.37-1.49,1-2.14,1.23-.57.2-1.7-.41-2.51-.98l1.05-.47c.25-.11.38-.55.72-1.41.08-.02,1-.21,1.01-.21.31.85.38,1.2.53,1.26l1.34.57Z"/>
  <path class="cls-2" d="M317.05,538.57c-1.29-.94-1.87-1.51-2.24-2.22-.28-.54,1.2-1.89,2-1.45s.74,2.36.24,3.67Z"/>
  <path class="cls-2" d="M358,666.16l.21-2.82c.04-.52,1.6-.41,1.91.01s.89,1.53.6,1.97c-.39.59-1.95.99-2.73.84Z"/>
  <path class="cls-2" d="M329.94,183.2c.31.03,1.19-.63,1.27-.33l.49,1.81-1.58,1.17-2.5-2.88,2.32.24Z"/>
  <path class="cls-2" d="M314.05,669.59l.26-1.74c1.13.74,1.18,2.18.47,2.68-.48.34-1.84.23-2.56-.05-.65-.26-.19-1.43.39-2.78l1.44,1.9Z"/>
  <path class="cls-2" d="M324.03,559.74c-1.56-.14-2.36-1.05-2.17-2.01.16-.78.56-1.32,1.99-2.41l.18,4.42Z"/>
  <path class="cls-2" d="M316.23,679.02c.43.52.6,2.66-.05,2.82-1.26.21-3.27.17-4.28-.09l2.01-.9c.36-.16.44-.8.86-1.72l.59,1.61.86-1.73Z"/>
  <path class="cls-2" d="M355.04,164.83l-3.23.37.58-1.12c.07-.14.43-.4.3-.46l-1.46-.7,3.35-.52-.91,1.47c-.11.18.27.28,1.38.96Z"/>
  <path class="cls-2" d="M337.24,679.46c-.63.22-1.68.27-2.27.13l2.15-.8c.38-.14.46-1.14.64-1.74.11-.36,1.03-.32,1.39-.13s.68,1.57.38,1.73l-2.29.8Z"/>
  <path class="cls-2" d="M316.71,559.93c-1.85-.82-1.88-1.2-1.64-2.29.16-.71.68-1.56,1.63-2.02.14,1.55.11,2.45.01,4.31Z"/>
  <path class="cls-2" d="M347.55,678.01c-1.55.92-2.94,1.51-4.65,1.81l1.9-1.31c.22-.52.64-1.48.86-1.85.25-.42,1.67.52,1.88,1.35Z"/>
  <path class="cls-2" d="M392.31,621.9c-2.56-.66-3.42-2.58-4.12-4.57,1.77,1.24,3.31,2.72,4.12,4.57Z"/>
  <path class="cls-2" d="M400.59,631.59c-1.51-.78-2.98-2.02-3.63-3.88,1.88.3,2.98,1.59,3.63,3.88Z"/>
  <path class="cls-2" d="M312.01,665.52c-.33-.13-1.03-.94-1.21-.7l-1.21,1.63c-.14-.24-.44-1.16-.53-1.76-.1-.69,1.24-1.61,1.78-1.38.79.34,1.44,1.43,1.16,2.22Z"/>
  <path class="cls-2" d="M325.8,639.55c.21.41-1.39,1.34-1.78,1.22l.31-4.13,1.46,2.9Z"/>
  <circle class="cls-2" cx="345.87" cy="129.01" r="1.1"/>
  <path class="cls-2" d="M330.73,600.68c-.81-.17-1.75-1.05-1.52-1.54.34-.72.78-1.44,1.39-2.32l.12,3.86Z"/>
  <path class="cls-2" d="M316.94,639.62c-.42-1.14-.46-2.4-.07-4.26l1.66,2.08c.38.48.06,1.15-1.59,2.19Z"/>
  <path class="cls-2" d="M330.7,559.49c-.78-.03-1.67-1.11-1.44-1.86.17-.55.73-1.18,1.49-1.86l-.05,3.72Z"/>
  <path class="cls-2" d="M323.58,600.89c-1.38-1.01-1.86-1.64-1.63-2.11.41-.83.73-1.26,1.49-2.09l.14,4.21Z"/>
  <circle class="cls-2" cx="340.4" cy="146.31" r="1.02"/>
  <path class="cls-2" d="M332.43,680.08l-1.35-.9c-.64-.42-.62.78-3.04,1.23-.27.05-.41-.52-.52-.83.82-.3,1.77-.57,2-1,.28-.5.71-1.52,1.14-1.64.53-.15,1.21.82,1.53,1.69l1.95.84s-.1.48-.13.74-1.32.02-1.59-.15Z"/>
  <path class="cls-2" d="M331.56,642.05l-.09-3.7c1.15.86,2.61,2.34.09,3.7Z"/>
  <path class="cls-2" d="M330.67,641.78l-1.19-.43c-.44-.16-.72-1.48-.68-2.01l.71.67c.16.15.27.3.35.16l.72-1.32.1,2.93Z"/>
  <path class="cls-2" d="M323.51,145.2c-1.34.96-3.76.59-4.91-1.67l4.91,1.67Z"/>
  <path class="cls-2" d="M268.11,448.2c-.17.22-1.52-.21-1.33-.42l.96-1.03-1.53-.69c.95-.03,2.18.09,3.25.33l-1.35,1.8Z"/>
  <path class="cls-2" d="M345.77,600.95l-.13-3.71,1.31,1.14c.62.54.63,1.59-1.18,2.57Z"/>
  <circle class="cls-2" cx="319.69" cy="215.8" r="1.11"/>
  <path class="cls-2" d="M353.67,679.02c-1.41.17-2.58.27-3.39.15,1.07-.35,2.22-.46,2.44-1s.79-1.68,1.18-1.5c.56.24.94.5,1.09.9.17.44-.89,1.39-1.33,1.45Z"/>
  <circle class="cls-2" cx="330.05" cy="181.22" r="1.08"/>
  <path class="cls-2" d="M338.02,600.53c-1.2-.12-1.72-1.08-1.31-1.77.23-.4.58-.86,1.19-1.61l.13,3.38Z"/>
  <path class="cls-2" d="M329.78,127.33c-1.04,1.46-3.25,1-4.77-.15l4.77.15Z"/>
  <path class="cls-2" d="M316.09,600.51c-.74-.32-1.49-.87-1.43-1.33.09-.63.83-1.87,1.34-2.04l.09,3.37Z"/>
  <path class="cls-2" d="M331.65,600.54l-.03-3.11c.82.7,2.3,1.87.03,3.11Z"/>
  <rect class="cls-2" x="316.75" y="671.54" width="1.75" height="1.64" transform="translate(-382.37 421.44) rotate(-44.99)"/>
  <circle class="cls-2" cx="324.82" cy="198.96" r="1.01"/>
  <path class="cls-2" d="M331.94,185.94c-1.65,1.24-3.47,1.14-5.06-.22l5.06.22Z"/>
  <path class="cls-2" d="M319.22,162.17c-.81,1.2-3.2.61-4.17-.81l4.17.81Z"/>
  <path class="cls-2" d="M341.55,149.85c-.2.38-1,1.38-1.39,1.19l-2.06-1.04,3.45-.15Z"/>
  <path class="cls-2" d="M320.38,670.56l1.64.25c.3.05-.21.83-.4,1.07s-.99.55-1.14.28c-.19-.34-.47-1.66-.09-1.61Z"/>
  <path class="cls-2" d="M347.53,669.71l1.33-.43c.32-.1.18.97.04,1.34-.12.31-.51.46-.76.25s-.92-1.06-.61-1.16Z"/>
  <path class="cls-2" d="M347.31,132.79l-2.76,1.2c.34-.66.57-1.41.93-1.37l1.83.18Z"/>
  <path class="cls-2" d="M336.64,205.57l-3.89-.67c.94-.94,3.28-1.2,3.89.67Z"/>
  <circle class="cls-2" cx="356.05" cy="669.82" r=".88"/>
  <path class="cls-2" d="M314.82,671.99l-1.33,1.18c-.19.17-.97.18-.95-.08l.12-1.28c.03-.35,1.07-.09,1.36.02.64.13,1.38.29.79.16Z"/>
  <path class="cls-2" d="M324.98,670.6c.65.05,1.66.19,1.5.41l-.83,1.16c-.17.23-.56-.22-.93-.54-.26-.23-.09-1.06.27-1.03Z"/>
  <rect class="cls-2" x="327.88" y="670.04" width="1.64" height="1.53" transform="translate(-372.35 412.84) rotate(-43.69)"/>
  <rect class="cls-2" x="332.38" y="669.84" width="1.42" height="1.69" transform="translate(-241.87 190.9) rotate(-23.75)"/>
  <path class="cls-2" d="M315.07,178.32c-1.85,1.18-3.21.96-4.72.48l4.72-.48Z"/>
  <path class="cls-2" d="M321.48,220.84c-1.6.49-3.75.71-4.88-.62l4.88.62Z"/>
  <path class="cls-2" d="M339.15,600.73c-.39-1.03-.49-2.27-.37-3.5.9.95,1.49,1.94.37,3.5Z"/>
  <rect class="cls-2" x="343.22" y="669.38" width="1.46" height="1.7" transform="translate(-309.25 294.95) rotate(-32.96)"/>
  <rect class="cls-2" x="339.76" y="669.17" width="1.65" height="1.91" transform="translate(-385.29 474.76) rotate(-47.99)"/>
  <path class="cls-2" d="M336.07,669.36c.32-.01,1.73.42,1.52.65l-1.04,1.1c-.22.23-.73-.2-1.11-.47-.32-.23.23-1.26.63-1.28Z"/>
  <path class="cls-2" d="M351.38,669c.22-.02,1.31.3,1.2.5l-.55.93c-.15.26-.77,0-1.01-.18s.06-1.22.36-1.25Z"/>
  <circle class="cls-2" cx="351.2" cy="174.8" r=".89"/>
  <path class="cls-2" d="M324.65,600.55v-3.38s.94,1.6.94,1.6c.25.43-.35,1.24-.94,1.79Z"/>
  <path class="cls-2" d="M336.86,559.64c-.09-1,.14-2.09.53-3.37.49.96.64,2.18-.53,3.37Z"/>
  <path class="cls-2" d="M345.03,600.53c-.47-.38-1.27-1.03-1.09-1.39l1.01-1.94.08,3.33Z"/>
  <path class="cls-2" d="M317.23,600.41l.21-2.84c1.52.91,1.05,2.38-.21,2.84Z"/>
  <path class="cls-2" d="M353.93,160.28c-.41,1.16-1.85,1.66-2.79.15l2.79-.15Z"/>
  <rect class="cls-2" x="297.6" y="203.65" width="2.94" height=".94" transform="translate(-17.26 380.31) rotate(-63.43)"/>
  <circle class="cls-2" cx="352.25" cy="185.46" r=".67"/>
  <path class="cls-2" d="M355.08,166.82l-2.7.7c0-1.48,1.81-1.2,2.7-.7Z"/>
  <path class="cls-2" d="M339.08,559.52c-.21-.61-.25-1.68-.2-3.13.55.86.93,1.75.2,3.13Z"/>
  <path class="cls-2" d="M359.66,667.68l-2.11-.37c-.2-.04.84-.89.99-.74l1.13,1.11Z"/>
  <path class="cls-2" d="M355.57,678.91l1.25-.26c.21-.04.51.78.3.85s-.64.23-.83.32c-.29.13-1.04-.85-.72-.91Z"/>
  <path class="cls-2" d="M362.48,190.23c-.01-.21,1-.02.99.19l-.03,1.03c0,.2-.86.5-.87.3l-.09-1.51Z"/>
  <path class="cls-1" d="M233.16,686.92c-2.67-4.03-1.42-8.48-1.1-12.92,1.09-15.36,8.27-36.23,14.2-50.53l9.69-23.39c9.08-21.93,5.88-33.74-.18-55.34l-7.82-27.89c-4.59-16.38-6.36-47.83,9.48-58.81-.03,1.91-.45,3-1.22,4.05-3.39,4.62-5.7,9.63-6.81,15.32-4.11,21.22.87,37.55,6.69,57.67,2.55,8.82,4.87,17.27,6.83,26.21,2.61,11.93,1.87,23.56-2.24,35.03-2.89,8.07-6.14,15.62-9.64,23.45-2.81,6.29-5.43,12.37-7.32,19.01l-5.58,19.59c-1.91,6.7-3.35,13.33-3.83,20.31-.19,2.75-.48,5.29-1.15,8.24Z"/>
  <path class="cls-1" d="M402.38,502.1c-1.42,5.53-4.45,21.72-10.67,24.09,4.34-6.53,7.15-13.53,8.35-21.42.44-2.91,1.27-5.67,3.03-7.93.45,1.97-.25,3.47-.7,5.25Z"/>
  <path class="cls-1" d="M282.58,496.66c-1.49.03-3.11-1.62-4.03-3.23-3.66-6.45-5.84-13.43-6.74-20.88-.6-4.99-1.72-9.51-2.83-14.84,2.63,3.55,2.65,7.98,3.24,12.23.89,6.42,2.18,12.43,4.75,18.42,1.26,2.93,3.31,5.13,5.6,8.31Z"/>
  <path class="cls-1" d="M361.95,532.46c-4.1,1.81-7.6-6.47-6.78-9.32,2.38,6.94,1.72,4.37,6.78,9.32Z"/>
  <path class="cls-1" d="M358.76,196.39c-1.17-.11-2.05-.61-2.72-1.47,1.17.11,2.06.61,2.72,1.47Z"/>
  <circle class="cls-1" cx="334.32" cy="504.9" r="1.99"/>
  <circle class="cls-1" cx="334.39" cy="522.5" r="1.99"/>
</svg>