<?xml version="1.0" encoding="UTF-8"?>
<svg id="Layer_1" data-name="Layer 1" xmlns="http://www.w3.org/2000/svg" viewBox="0 0 594.68 470.78">
  <defs>
    <style>
      .cls-1 {
        fill: #fff;
      }
    </style>
  </defs>
  <path d="M594.65,331.15c0-.38-1.64-.92-1.74-.57l-.32,1.07c-.1.33,1.55,2.67.87,3.04l-2.07,1.14,1.59,1.87c.35.41-.3,1.87-.59,2.4-3.93,7.11-1.18,5.07-10.03,7.78-5.63,1.72-7.43.03-12.6,3.16-1.87,1.13-3.21,1.87-5.22,2.83l-1.75,3.5c-2.97-.37-3.89,1.11-4.65,3.54-.56,1.81-3.42,2.3-5.04,2.94-3.21,1.26-6.04,2.47-9.48.02l6.28-3.01c.09-.04,9.01-6.66,7.3-9.08l-3.29-.89c-.36-.1-.95-.8-1.1-1.12-.93-1.96,7.87-2.71,9.63-2.59,2.74.18,4.57-.11,7.07-.47,4.93-.71,9.83-.07,14.63-2.05,1.21-.87,4.7-10.52,4.88-11.45l2.11-10.74c.37-1.88,2.91-3.37,2.04-5.87l-2.41-6.91-8.27-16.06c-.74-1.43-1.76-3.09-2.62-4.57-4.51-7.75-8.87-15.15-12.82-23.2-3.04-6.18-9.28-17.1-13.11-22.89l-18.43-27.88c-.95-1.44-5.31-1.61-4.87-4.98.23-1.75-.91-4.83-2.77-4.97-.72-.05-1.67-.11-1.55-.44.09-.25.5-1.24.52-1.5.08-1.17-2.08-2.55-3.42-3.05-2.75-1.03-4.61-4.59-4.59-7.11v-1.18c.02-.17-.45-.06-.57.05l-.95.87-1.08-1.83c-1.27-2.15-2.75-3.35-4.49-5.32l-4.52-5.13c-5.09-5.78-2.51-6.47-5.66-7.81-.43.12-1.9,1.42-2,1.03l-.54-2.03c-.5-1.88-1.78-4.79-3.42-3.73-.28.18-.78,1.04-.55,1.28l1.06,1.1c.34.36,1.59,1.49,1.23,1.85l-1.44,1.45c-.28.28-1.13-.77-1.4-1.15l-5.48-7.8c-2.37-3.37-5.13-6.96-9.57-7.67l-2.04-2.79c-1.41,2.12-3.23,3.31-4.18,4.92l-2.52,4.24c.06.35,1.38,2.01.91,2.25-.5.25-1.41.66-1.9.84-.39.15-1.16-1.51-1.08-1.93l1.29-7.01c.09-.47-1-1.58-1.36-1.32l-1.81,1.31c-1.3.94-5.37-.29-5.81-1.84l-.67-2.36c-.14-.49-1.61-.42-1.99-.09-.96.84-.1,3.94-3.2,3.79-1.02-.05-1.72-.12-1.86.31-2.03,5.98-3.21,6.18-5.13,12.94-.14.14-1.31-.02-1.36-.41l-.25-1.91c-.09-.68-.48-2.36-.38-3.01l.82-5.38c-3.4-1.14-5.78.37-7.59,2.72l-3.23-1.01c-.89-.28-.65,2.58-.86,3.61l-2.27,11.3c-.27,1.34-2.64,2.77-1.11,4.79,1.33,1.75,1.39,4.64-.15,6.13-2.48,2.4-.4,4.1-.26,6.58.17,3.11-.88,7.4-1.66,10.4-6.84,4.78,1.86,5.14-1.53,11-.18.3-1.32.18-1.39-.17l-.32-1.63c-.16-.83-2.1-1.11-3-.79-.83.3-1.65,2.78-.8,2.94,1.6.32,4.16,2.12,3.6,3.3-.09.18-1.07.84-1.21.98-.15.14-.09.35.09.37l1.96.26c.14-.15-.35.38-.72.78-2.23.14-4.16,1.36-5.07,3.27,3.07,4.76-6.5,1.94-4.84,8.83.21.87-.89,2.03-2.15,2.26-2.5.45-3.29,8.31.06,8.29,2.7-.01,5.83-.34,8.44-.7,2.52-.35,5.11-1.85,7.66-.47-.18,1.28-1.73,1.43-2.97,1.59-3.4.43-6.26,1.06-9.56,1.75-1.63.34-4.4-.04-6.23.11-6.14.5-10.19-.72-9.76,1.76.12.66,1.17,1.87,1.68,1.41.45-.4,1.81-1.58,1.71-1.47,1.41,3.56,6.68,1.23,7.32,4.46.2,1.02-.59,2.9-1.25,3.05-1.45-1.8-5.33-2.96-6.51-1.54-2.15,2.69-3.91,5.92-7.57,5.89-1.74-.02-3.51-3.4-3.01-5.2.69-2.5,1.52-4.88,2.23-6.93l-1.78-1.36c-.36-.27,1.11-1.47,1.56-1.42,1.39.17,4.72.3,5.5-.87,2.04-3.08.3-7.15,1.26-10.13,1.08-3.33.92-5.55.16-9.06-.29-3.06,1.22-6.95,1.62-10.43l4.45-3.44-2.41-2.63c1.13-1.31,2.38-1.09,3.11-.22.79.95.69,1.98.29,3.19-2.56,7.88,2.74,5.96-5.84,11.46,1.37.72,2.93,1.27,3.42,2.02.43.66.1,2.61-.17,3.43-3.05,9.29,1.05,7.32-3.47,12.48l1.61,3.69,5.81-.86-1.52-3.23,1.66-11.22c.22-.77,2.26-2.35,1.92-3.16-1.18-2.78.07-5.81.71-8.36.87-3.41,1.61-5.29,5.28-6.62,1.17-2.31-1.41-6.01-1.12-7.97.34-2.26,2.96-4.64.89-7.19.77-2.24,5.35-1.22,4.7-3.08-.87-2.49-4.81-1.21-4.84-3.44-.06-5.24,4.07-4.03,3.94-8.91-2.52.09-4.93,1.12-6.36,2.53l1.05,1.9c.21.38-1.15.7-2.02.86-2.63.48-1.55,5.31-2.69,5.78l-2.34.96-.98.41c-.76.32-.25-13.52-.15-15.02.66-9.81-.64-13.19-.31-24.09l-5.57.41,3.97,2.34c-.57,1.31-2.28,2.85-3.59,2.76-4.97-7.14.98-8.13-3.8-10.81-.46-.26-.61-2.05-.15-1.95l1.74.37c3.41.73,4.66-2.53,6.87,1.12.07,1.3.25,1.26.88.03.7-2.42.12-6.09-1.24-8.14-5.54-1.02-4.27-4.21-6.73-.94-.27.36-.78.95-.88.72-.1-.23-.3-1.02-.19-1.22l2.98-5.13-.38,3.32c.86.01,2.23-1.41,1.91-2.08-.38-.78-.66-2.75-.01-2.75h2.91s-1.06-4-1.06-4c2.08.95,3.74.98,5.92.28l-.38-4.67,2.34,3.24c1.74,2.4,6.14,1.74,8.48,1.49l-7.19-2.65c-.55-.2-1.02-1.99-.59-2.21l1.99-1.01-3.69-9.01-3.99,9.58c-.51,1.22-2.82,2.84-4.02,3.83l-6.08-5.53c-.2-.18-.47-1.44-.56-1.69-.06-.17.51-.11.68-.06l1.02.28,2.05.58c.41.12-.06,1.21-.17,1.91l3.87,2.42c3.5-3.62,4.92-8.55,3.22-13.16-3.21-8.7-5.28-4.54-5.38-10.48l3.07.89-2.03-6.69c-.32-1.06-.38-3.44-.61-4.5-3.01-7.88-3.65-16.06-6.84-23.56l-4.66-10.96c-.94-2.21-3.17-14.67-8.47-26.41-1.65-3.66-3.12-7.71-6.27-10.31l-14.04-11.61c-5.34-4.42-1.03-3.59-9.99-5.47l3.83,3.76c.33.32,1.16,1.47,1.58,1.3l2.14-.87,2.17,5.97c3.45,1.29,6.93,3.29,9.27,6.44l.08,3.5c2.54,1.9,3.91,5.2,4.99,7.9,8.16,3.21,9.57,11.54,7.87,18.48l-1.65-1.06c-.24-.15-.32,1.13-.47,1.39l-1.01,1.66c-.22.37-1.85-.44-2.06-.83l-3.56-6.55c-1.63.02-2.88-.81-3.57-2.62-1.55-4.02-3.06-.51-6.36-10.66l-1.48,1.61-5.84-5.06-1.11,3.13-4.88-7.11c-.82-1.19-2.16-2.88-2.91-3.61-3.51,1.75-4.07-3.53-7-1.99l2.7,3.09c-3.54.14-5.55-2-7.32-4.69l2.98-1.17-6.03-5.67c-3.93,4.04-6.01.27-9.29.99,1.26,1.43,2.56,2.03,4.46,2.76l.24,1.32c-7.97-2.32-9.89-1.91-17.61-4.99l-6.14,2.37,5.59,1.28c6.46,1.48-3.19,1.49-8.04.11-2.81-.8-5.05-1.19-7.63-1.56-3.39-.49-4.74.46-7.54,1.93l-5.2,2.73c-3.23,1.7-5.56,3.83-6.12,7.79l-1.76,3.96c-.19.42-1.09,1.05-1.47.81-2.49-1.55,3.81-2.9,1.27-6.36-.4-.55-1.04-1.67-1.41-1.4l-1.37.97c-.56.39-2.52,1.23-2.69.58l-.61-2.29c-.27-1.02-.72-2.68-.35-3.46.38-.79,1.89-1.9,2.74-2.52l6.92-5.03c-2.54-1.33-5.4-.1-7.23,2.44-7.37,10.19-.91,4.95-5.11,10.56-.28.38-.53,1.43-.51,1.87.02.33.71.25,1.89.2-.2-.34.21.36.48.82-4.64.75-4.6,9.52-4.15,11.59,1.02.32,2.44.67,2.18,1.03l-1.23,1.73c-.93,1.31-.95,3.57,0,5.56,1.05-1.32,1.26-2.34,1.48-4,1.74,1.65,3.89,2.07,5.93-.11l1.37,1.85c.21.72.3,1.31.45,1.09.1-.14.63-.77.71-.92l2.11-3.98c.92-1.72-1.26-1.02-1.79-3.56-.05-.25.87-.58,1.06-.41l.82.7,1.02.87c.2.17.72-.73.83-.98,1.84-4.5,4.53-8.55,7.42-12.33-1.27-.34-2.96-1-3.05-1.74s1.24-2.25,1.98-2.22c.64.02,1.33.81,2.17,1.51,5.83-3.75,5.26-7.27,12.42-6.13,3.47.55,5.16,1.11,7.6,4.21.3.38-.75,1.6-.56,2.05.53,1.25,3.24,1.9,5.06,1.67,2.18-.27,5.23,1.47,7.2,1.71,2.54-2.35,9.09,3.3,10.95,6.31-3.34-1.01-6.09-2.25-10.11-.38.38,1.94,6.2,4.6,5.02,6.13l-1.4,1.82c.74.26,2.6.85,3.2,1.47l5.91,6.11c.36.38.79,1.94.43,2.25-.36.31-1.11.54-2.05.8-3.94,1.08,3.79,2.96-12.93,8.83-2.17.76-3.85,2.64-4.61,4.44l2.23,1.74,1.39,4.4-4.14,2.68-4.46,3.29,2.04,3.05-1.64,2.2c.19,1.16.42,2.41.28,3.1-.13.69-1.66,1.8-2.15,1.81-1.37-1.02-12.12-8.04-13.04-5.61.9.95,1.9,1.5,2.95,2.04-3.71,1.6-8.53.24-11.39-2.11,2.88-1.62,4.57-3.17,6.74-5.19,2.06-1.92,5-4.63,4.23-7.86-.28-1.17-2.71-2.56-3.28-2.38.73,1.41,1.25,2.56,1.32,3.88l-6.86-.59c-2.58-2.08-5.58-3.08-8.8-1.41l-6.46,3.34c-4.79-1.37-4.53,5.79-5.06,2.31-.15-.98.41-3.3.05-4.21l-1.99-4.98c-2.34,4.52,2.14,6.64-.72,9.27.41,1.86,3.05,3.29,5.78,2.43l1.27,5.09c-4.87,1.08-11.97,3.2-15.89,1.62l.76-1.27c.05-.08-3.62-2.03-4.71,1.04l-35.88,4.49-2.38,3.81c1.69,3.18,1.77,6.34.41,9.86l-93.67,241.91c-.85,2.2-1.68,4.83-3.14,4.97-.87.08-1.09,1.63-.65,1.59,2.84-.2,1.09-1.26,3.57-2.08.6-.2,1.8.6,2.63,1.29.99.82.72,3.07-.1,4.31-1.5,2.28-6.71,1.69-9.21.76l-6.61,11c-.38.62-1.53,1.53-2.09,1.78-.47.21-1.74-.91-2.22-.77-1.39.56-4.17,1.62-5.92,1.62-10.45-.04-21.24,1.8-26.65,11.26l7.82-5.54c3.19-2.26,23.98-4.56,27.44-3.48l62.33,19.41,6.09,2.05c2.1.71.3,4.54.23,6.13-.35,8.82.71,15.61,2.9,23.87l1.67,6.29,2.23,8.03,2.37,8.13c.98,3.36,4.7,9.82,7.3,12.82l4.3,4.96c4.31,4.98,10.79,13.17,18.39,13.16h51.03c1.75-.02,3.33-1.05,4.48-2.15l5.3-5.01,6.77-5.47c3.03-2.45,5.61-5.28,8.36-8.09,5.36-5.47,2.52-6.17,7.24-6.45,2.6-.16,4.75-.21,5.53,2.81.26,1,.89,2.79,1.23,3.78-.75,3.89-1.36,8.07-1.25,11.81,5.47-.46,1.85,1.28,10.61,2.43.77.1,1.91,1.04,2.38.66.39-.32,1.24-1.54,1.71-1.85l6.12-4c.99-.65,3.6-.91,4.83-.97,1.27-.07,3.15,1.47,2.75,2.46-.73,1.8-5.42,5.28-7.7,6.26l-1.96,3.41c1.85.12,3.19-.27,4.89-1.11.02-.17,1.66,1.48,2.19,1.47l11.52-.07,4.35-6.4c3.68-.4,5.57,2.57,8.24,3.92,1.63.82,3.69-.27,4.6,2.41,1.76.28,5.26.19,7.32-.18,3.62-5.88,2.51-3.87,9.14-4.63l1.67,4.94,20.88-.12-4.53-3.94,2.33-15.51,2.47-16.41,6.16-3.58c1.65,1.4,5.54,3.2,5.97,5.74.65,3.82-.66,7.88-1.17,11.65l-1.97,14.47c-.43,3.19-.87,5.27-3.84,7.68h38.21c2.54.01,4.66-1.5,6.63-2.68,4.01-2.38,14.01-7.18,18.49-7.25,1.22-.02,2.42,3.31,1.75,4.36l-3.25,5.13c1.24.79,2.64.12,3.67-.9l4.41-4.37c1.1-1.09,3.37-2.06,5.41-2.73,1.38-.45,3.42,1.85,3.81,3.09.47,1.49-.36,3.15-1.41,5.09,4.13.35,9.25.38,13.59.11,1.55-2.95,3.11-4.98,4.84-7.19l5.05-6.45,4.32-5.56,5.06-6.52,4.76-6.14c2.22-2.87,4.52-5.07,7.34-7.31l6.14-4.88,6.1-4.87,6.08-4.86c5.65-4.51,9.87-13.95,13.77-19.21l3.93-5.3c1.31-1.77,2.51-3.56,3.71-5.41l3.82-5.9,4.32-6.67,4.06-6.29,3.83-5.94,4.31-6.68,4.34-6.66c2.4-3.68,4.07-6.59,4.05-11.49l-.03-5.94ZM580.14,292.89l1.74,1.25-.9,1.26-1.74-1.25.9-1.26ZM578.24,288.33c.67.95,2.15,2.11-.73,3.8l-2.07-3.8c.39-.61,2.38-.6,2.8,0ZM573.77,322.5c.84,0,1.52.68,1.52,1.52s-.68,1.52-1.52,1.52-1.52-.68-1.52-1.52.68-1.52,1.52-1.52ZM570.96,283.99c-.09-.54-.17-1.3-.25-2.26l1.73,1.79c.26.26-1.43.84-1.49.47ZM570.41,278.32c.36.2.98,1.31.6,1.48l-1.06.47c-.38.17-.95-1.29-.9-1.73.03-.31,1.1-.37,1.36-.22ZM406.43,142.34c.56.18.39,1.64-.14,1.58-.79-.09-1.86-.4-2.29-.65l-1.72-2.22,4.16,1.3ZM407.24,112.27h1.22v3.66h-1.22v-3.66ZM273.53,25.45l-1.28.82c-.17.11-1.03-.04-.9-.2l1-1.2c.21-.25,1.09-.31,1.76-.4.3-.04-.22.74-.58.97ZM322.44,15.14c1.52-.73,2.88-1.01,3.62.9l-3.62-.9ZM562.53,270.89c1.68.68,3.45,1.89,4.37,3.26-1.73,1.32-1.63,1.34-1.76,1.12-2.57-4.26-6.47-2.99-6.04-9.87l-3.25-1.76c-.21-.11-.63-.89-.54-1.1l.32-.78c.36-.88,6.37,4.2,6.91,9.12ZM551.73,256.58c1.09,1.54,3.03,1.99,3.83,4.37-3.82-.72-5.92-4.76-7.86-8.26,2.97-.6,2.8,2.16,4.02,3.89ZM545.17,248.34c.61-.02.95.85.82,2.35-.62-.43-1.04-1.5-.82-2.35ZM540.6,245.57l3.1,5.01c-2.35-.48-4.05-2.57-3.1-5.01ZM542.18,366.2c-.87.69-3.22.25-2.78-1.09.18-.55,1.59-1.04,2.09-.84.52.21,1.1,1.6.69,1.93ZM540.9,241.04c.28.23.31.88.44,2.4l-2.19-2.12c1.01-.3,1.47-.51,1.74-.28ZM532.01,230.07l-1.72-4.28c1.3.52,3.44,2.06,1.72,4.28ZM526.46,217.83c.38.47,1.06,1.41,1.38,1.92.36.58-1.5,1.28-2.61,1.11l1.23-3.03ZM434.06,247.7c1.85-.68,3.01,1.49,3.49,3.14l2.78-2.8-1.49.13c-.37.03-1.28-.75-1.02-1.14l2.89-4.29,2.61-1.21c-.07-1.06-.03-3.71.82-4.55,1.82-1.8,4.96-2.44,6.96-2.11-2.1,1.38-2.37,2.87-3.59,4.51l-2.89,3.88,2.31,1.99c.57.49-.22,2.81-.53,2.97-7.18-1.92-4.2,4.59-10.49,3.13l-2.47,1.65c-.89-1.27-1.14-4.65.6-5.29ZM417.73,250.65c.63,0,1.14.51,1.14,1.14s-.51,1.14-1.14,1.14-1.14-.51-1.14-1.14.51-1.14,1.14-1.14ZM419,268.91c.21.18-.06.58-.42,1.37-.72,1.5-1.79,2.99-3.05,3.1-1.51.12-3.14-.51-3.85-1.84,1.76-1.73,5.38-4.26,7.32-2.62ZM399.37,276.99c.07-.44,1.48-.67,1.82-.39,2.37,1.98.21,3,3.23,4.53.7.36,1.77-.35,3.52-.84,1.02-.28.37,4.01-.66,3.73l-5.37-1.45c-1.54-.42-2.77-4.09-2.53-5.58ZM403.9,289.66c.03.41-.78.79-2.49,1.19l1.91-3.13c.37.99.55,1.53.58,1.94ZM399.5,239.21c.28,1.1.27,3.69-.13,4.73-.22.58-2.84-.18-2.38-.37.5-.36,1.65-7.72,2.51-4.36ZM399.02,154.95c0,.6-.48,1.08-1.08,1.08s-1.08-.48-1.08-1.08.48-1.08,1.08-1.08,1.08.48,1.08,1.08ZM397.52,129.52c-1.03-1.61-2.16-3.84-3.12-5.94-.24.02-1.35.29-2.27.52l.67-2.33,4.01,1.68c.88,1.53,1.79,3.09.71,6.07ZM392.54,248.56c0,.51-.41.92-.92.92s-.92-.41-.92-.92.41-.92.92-.92.92.41.92.92ZM389.98,51.22l.86,3.73c-1.62-.64-1.63-2.03-.86-3.73ZM388.16,104.99c5.7,1.83.46,1.06,5.07,7.94l4.29,6.39c.11.17-.05,1.37-.13,1.55-.09.2-.3.33-.41.17-.13-.18-.52-.69-.62-.86l-2.98-4.87c-1.17.8.09,3.06-.37,3.83l-2.94,4.94c-.08.29-2.32-.72-2.44-1.37l-1.46-7.93c-.29-1.58.24-2.83.96-4.35-.55-1.86-1.84-4.17-3.39-6.18l.77,5.62c-1.59-.69-2.78-3.29-2.44-4.54l1.33-4.85,4.76,4.53ZM389.49,252.34c1.37,1.33-4.78,6.15-1.77,9.9l1.31,1.63c1.03,1.28-5.41,5.8-6.05,8.11.15,1.79-.25,2.96-.82,4.65-.68,2.01-.87,5.59-4.29,4.93-1.44-2.12-.66-6.6,2-8.45-1.67-2.94-1.83-5.83-.41-8.74l2.98-6.14c.38-.77,1.99-2.43,1.46-3-1.87-2.01-2.13-4.38-1.03-6.85l2.44-5.47c.35-.8,2.19-2.82,2.57-2.05,1.07,2.18,1.8,4.1,2.42,5.81-1.78.28-3.48.68-4.23,1.76-.26,1.38,1.71,2.23,3.43,3.9ZM378.37,82.99c.48-1.89,3.02-1.91,4.62-.49-1.36.77-3.78,1.25-4.62.49ZM381.21,90.78c-.46-2.38-.34-4.61,1-6.95,1.31,2.46,1.11,4.93-1,6.95ZM370.07,78.18l8.28-4.5c1.52-.82,3.4-1.11,4.89-.36l-.03,3.63c-.83,2.54-3.92,3.18-6.53,3.01-4.24-.29-7.2,1.63-7.78-.34-.12-.42.76-1.2,1.18-1.43ZM365.63,50c-1.48-1.44-2-3.66-2.5-5.98l-.91-9.33c2.26,4.67,3.24,9.31,3.41,15.31ZM366.52,73.02l-.84,2.15-1.39-.54.84-2.15,1.39.54ZM359.39,115.16c.41-2.64.98-5.58,1.86-7.88l5.59-2.53c-1.21-3.22-2.08-5.82-2.86-8.87.33-1.09.9-3.21,1.38-4.37,1.3-3.16,3.14,3.24,6.88,5.89,2.88,2.04,4.63,5.8,4.83,9.04-.79.99-1.3,1.92-1.82,3.52l-3.9.88-.91,3.68-2.74-1.81c-2.07,6.76.5,10.86-.32,13.29-2.42,7.24,1.45,5.42-6.88,10.76-.39.29-1.6-.6-1.4-1.06l1.3-2.89-4.22,2.11c-.04-.68.52-2.45,1.1-2.95l7.08-6.17c.51-2.42-.1-7.03-.72-9.15-3.09-1.24-3.16,1.67-5.67,3.15l1.4-4.62ZM371.39,189.3l-5.56,5.41,2.18-5.15c.43-1.03,1.49-2.62,2.32-2.41l1.49.39c.23.06-.19,1.52-.44,1.76ZM362.71,119.16c-.41.65-1.31,1.97-1.71,2.46-1.35-1.06-.03-2.72,1.71-2.46ZM356.22,110.01l1.39-.29c.28-.06.1,1.14-.08,1.37-1.08,1.38-2.23.22-2.03.32-.32-.16.37-1.32.72-1.39ZM358.28,198.6c.44.48,1.44,1.93,1.82,2.79.36.82-.36,2.43-.92,3.42l-3.02,5.35c-.65,1.15-1.18,2.03-1.86,2.92-.05-7.84,3.14-6.94,3.97-14.48ZM351.49,266.98l2.08.17-.15,1.86-2.08-.17.15-1.86ZM351.22,372.89c-7.68.63-5.58,6.91-10.53,3.84,1.44-4.19,6.88-4.93,10.53-3.84ZM345.68,291.29c1.83,2.12.9,3.88-.41,5.66-.45-2.1-.6-4.35.41-5.66ZM344.38,253.09l.89-3.09c.76,1.07.63,2.57-.89,3.09ZM346.61,242.14c.42.55.17,1.55-.65,2.41-.42-.55-.17-1.55.65-2.41ZM349.59,228.03c.68,1.65.4,3.51-.82,5.03l.82-5.03ZM323.63,179.67c.34,1.59-.19,9.76-.49,10.17-.55.74-2.41,1.76-3.08,1.35-.76-1.98-.99-3.75-1.12-5.82l-1.95,3.37c-3.05-4.15,2.43-2.64,6.63-9.07ZM316.84,190.95c2.78-.57,3.15,6.11,2.22,9.38.71,1.03,2.56-.34,3.88-1.46,1.68.18,2.78,3.48,3.55,4.96l2.15,4.14c1.76,2.61,4.83,4.03,5.38,7.55.24,1.56-2,3.32-3.5,4.43l.71,8.03,4.17.64c1.48.23.3-3.65,2.14-4.81.51-.32,2.09.49,1.92,1.08-.27.97-.69,3.8.28,3.98l4.32.82c-.24,2.95,1.51,4.66,3.79,6.24,1.01.89.33,4-.74,5.05l-.61-3.83c-2.92.42-5.52.35-6.91-1.35l2.17-1.58c.46-.34.23-1.94-.23-2.28-2.63-1.95-3.64,1.51-5.81-.24l-1.39-1.12c-2.41-1.94-1.1,6.08-4.84,5.16l1.46-5.63c-2.74,1.95-3.63,2.86-5.78,4.86,2.89,6.13,7.53,7.6,6.91,12.45l5.04,4.87c1.22,1.18,3.73-.17,4.25,3.02l-5.17-.77c-1.29-.19-2.93-.9-3.68.23-.8,1.22-.46,3.11.66,3.95,4.96,3.71,2.12,3.06,1.58,9.61,3.75.04,5.34,5.41,6.71,3.44.48-.69,1.02-1.72,1.56-2.8,1.23,1.37,2.13,4.8.87,6.71-.63.96-3.06,1.97-3.82,2.16l-1.76-3.66c-3.93,2.57-5.59,6.28-6.81,10.65l2.85,3.13c-.85,1.45-1.37,2.85-1.78,4.57l-1.42,6.02c-.59,2.5-1.74,4.25-.73,7.11.25.71-.62,2.85-1.29,2.51-2.19-2.11-1.57-5.51-1.39-8.15l.7-10.35-1.69-7.73c-.91-4.15-.85-7.49-2.29-11.4-.79-2.16-1-6.05-1.37-8.81l-2.16-15.97-1.1-9.38-1.45-13.99c-.25-2.44-1.95-5.12-1.13-7.58,1.21-3.6-2.79-23.41-.45-23.89ZM342.87,264.63c-.17-.72.13-2.61.52-3.61.86,1.41,1.66,2.98-.52,3.61ZM307.92,148.55l-.04,1.19c0,.24-1,.58-1.01.34l-.1-1.75c-.01-.23,1.16-.02,1.15.22ZM296.9,86.01c3.39-.72,6.89-.12,8.91,3.47-2.07,1.67-5.08,1.12-7.45-.6l-6.31,2.26c-1.21-3.56,2.3-4.58,4.85-5.13ZM303.2,154.04c-.68.06-2.39-.77-2.74-1.51.9-1.47,2.26.05,2.74,1.51ZM294.86,102.36c-.59-.09-1.05-1.44-1.07-2.03-.07-1.8,5.43-2.99,7.2-2.81,1,3.95-4.72,5.06-6.13,4.84ZM289.4,128.46c1.95-1.39,2.88-4.03,3.97-7.28l6.43,2.42c.09,1.24-.3,2.82-.74,4.27-2.27,7.47-3.19,4.35-3.96,8.5-.03.17.3.1.51-.02l1.26-.68-.8,4.98c-.57,3.53,3.89,13.13-.2,9.03-1.53-1.54-7.62-2.84-10.28-.88l-2.78-3.92,5-.95-3.59-1.19,1.23-6.65-2.41.88,1.87-5.14-3.87-1.71c3.08-.27,5.94.08,8.38-1.66ZM298.92,142.64c0,.48-1.35,1.34-1.52.96-.18-.42-.68-1.48-.41-1.78l.94-1.06c.26-.3.99,1.13.99,1.88ZM296.36,153.52c-.15,0-1.14.02-1.39,0-.38-.02-.4-1.24-.22-1.57.22-.42,1.32.8,1.61,1.56ZM280.84,69.86l-1.54,2.87c-1.13-.07-3.18-1.49-3.8-2.76l5.33-.11ZM268.85,99.12c.45-.09,1.64-.06,2.06.19l4.6,2.72,1.41,7.18c.15.77,1.48,1.96,1.91,1.75l1.84-3.35-1.5-3.91-2.47-1.3,4.09-2.09c.69-.35,2.45,1.29,2.16,2.05l-2.14,5.64-.04-.11c.59,2.2.9,4.14.83,6.37l-2.96-1.78c-.52-.31-1.14,1.21-1.53,2.64-4.73-3.04-3.93-10.17-8.37-14.5-.27-.26-.22-1.43.12-1.49ZM217.66,109.79c.16-.31.49-.94.69-.88l1,.29c.3.09-.12,1.12-.28,1.41l-1.46,2.63-.73,1.26c-.15.25-1.21-.84-1.09-1.09l1.87-3.63ZM213.98,110.62c.77,1.35.14,4.16-1.4,4.86-1.87-1.5-.24-4.25,1.4-4.86ZM202.6,141.1c2.21-4.59,3.93-8.9,5.91-13.63.4-.95,1.39-2.36,2.21-2.38.86-.02,2.58.67,3.04,1.34.78,1.14-8.19,24.81-8.63,25.04l-4.25,2.25c-.47.25-1.76.56-2.2.59-2.64.19,3.54-12.41,3.92-13.2ZM192.04,176.36c2.43-6.62,4.89-12.73,7.79-19.46,1.83,2.51.27,4.38-.5,6.37l-7.5,19.21c-.42,1.07-1.15,2.42-1.8,2.38-.66-.04-1.95-1.17-1.87-1.54,1.78-2.07,2.94-4.4,3.88-6.96ZM179.03,202.52c.47,0,.85.38.85.85s-.38.85-.85.85-.85-.38-.85-.85.38-.85.85-.85ZM157.73,256.37l3.49-7.78,3.83-9.58,4.57-11.26c1.37-3.38,2.29-6.79,3.51-10.25.96-2.72,3.18-5.2,3.88-8.16.25-1.06.82-2.29,1.52-2.53.72-.25,2.57-.19,3.1.33.62.6.62,2.54.31,3.44-2.77,8.15.05,4.35-4.5,13.23-4.71,9.2-1.61,5.26-4.69,14.06-2.49-.11-4.56.21-5.74,1.69l1.83,5.18c1.72,4.85-5.72,1.62-5.59,7.14l-2.25,3.35c.6,4.62.06,9.27-2.14,13.14-.81-3.99-2.78-8.36-1.15-11.99ZM142.2,295.85l2.48-6.69,5.46-14.52c.64-1.69,1.58-3.19,3-4.8,2.49,1.35.36,14.92-.21,15.6-1.02,1.24-3.48,1.55-5.3,2.02l.36,3.96c.12,1.34-1.63,4.12-1.67,5.48-.06,2.33.18,4.22-1.42,5.5-1.46,1.18-3.21,2.06-5.46.41l2.74-6.96ZM129.29,327.61l4.81-12.52,3.72-8.89c.24-.56,2.09-1.17,2.15-.57.3,2.74.88,5.98.18,8.43-1.79,6.27-4.8,12.09-7.57,17.9l-4.33,1.32c-.65-2.81.28-3.67,1.04-5.66ZM127.86,337.71c-.91,0-1.64-.74-1.64-1.64s.74-1.64,1.64-1.64,1.64.74,1.64,1.64-.74,1.64-1.64,1.64ZM159.37,371.95c-.93,0-1.68-.75-1.68-1.68s.75-1.68,1.68-1.68,1.68.75,1.68,1.68-.75,1.68-1.68,1.68ZM221.36,418.95c-.69-.11-.84-2.34-.24-2.76.55-.39,1.56-1.04,2.12-1.37.96,1.7.17,3.55-1.88,4.13ZM256.3,444.08l-4.3,2.11c-2.67,1.31-4.73,2.2-6.66,4.29-.39.18-1.83-1.03-1.94-1.71-.65-4.06,5.27-5.13,5.52-5.35,2.48-2.11,4.63-4.15,8.39-3.39l-1.02,4.04ZM259.15,449.81l-1.56-.75.85-1.74,1.56.75-.85,1.74ZM261.05,441.24l-3.66-3.94c.15-.37,1.46-1.34,2.14-1.51,1.35-.33,3.85,4.65,1.52,5.45ZM278.29,433.29c-1.81-.59-4.45-.68-5.73-2.02-1.54-1.62-3.12-2.35-5.26-2.21-.51.56-1.16,1.59-1.55,1.27-.58-.48-1.27-1.87-.9-2.32.56-.7,1.21-1.66.82-1.93-2.35-1.58-3.55,1.48-5.72-1.14-1.81-2.18-4.23-2.66-6.7-2.02-1.73-1.05-3-1.84-5.06-2.72,1.18,2.42,6.59,5.92,6.17,7.59-.58,2.3-1.23.35-2.39,3.08-.86,2.02,2.47-1.57,3.24-1.64,1.38-.13,3.33,2.05,3.76,3.33.2.6-1.21,1.99-1.86,2.03l-4.57.26.29,2.5c.28,2.44-6.53,3.16-7.51,3.39-1.06.25-2.41,1.4-3.27,1.19-1.11-.27-2.37-1.22-3.24-1.97l-3.84-3.32-2.53,1.28c-.53.27-.62-1.99-.87-2.63-2.64-6.74.21-14.22,4.24-20.08l2.53-3.68,27.46,9.9c3.3,1.19,5.26,4.4,8.13,5.95l5.47,2.94c2.01,1.08,3.92,1.47,3.8,4.59l-4.9-1.6ZM248.92,400.81c-.19-.72,1.42-1.98,2.17-1.92.72.06,2.31.37,2.73.68.5.37.54,2.47.06,2.87-1.23,1.05-4.42.41-4.96-1.63ZM284.56,421.43c-1.26,0-2.28-1.02-2.28-2.28s1.02-2.28,2.28-2.28,2.28,1.02,2.28,2.28-1.02,2.28-2.28,2.28ZM299.43,424.47c.21-2.77,1.52-5.05,3.26-7.31.14,2.59-.66,5.39-3.26,7.31ZM311.06,450.94c-.22.29-.64.8-1.07,1.25-3.44,3.63-1.44,3.56-3.18,4.17-1.22-2.15.03-4.5,1.8-5.59l1.36-.84c.31-.19,1.31.71,1.1,1ZM309.16,428.18c.03-2.1.88-3.77,2.32-5.09-.04,2.1-.88,3.76-2.32,5.09ZM312.08,447.44l.9-4.36.34-1.67c.08-.41,1.91.62,1.95,1.03.23,2.32-.72,4.64-3.19,5ZM314.03,419.14l-.99-.59,1.67-2.78.99.59-1.67,2.78ZM323.24,423.14c-2.16,3.86-3.32,7.79-6.24,11.18.31-4.61,2.73-8.07,4.54-12l4.49-9.75-3.64-1.38,1.32-3.39c.2-.52-1.14-1.36-1.66-1.52-3.36-.98-2.28,6.61-6.05,7.94-.15-2.02.48-3.25,1.46-5.25l-7.87-1.78-4.45,7.44c-.1.17-1.07.45-1.28.54-.21.09-.15-.88-.04-1.15l3.05-7.72c-2.72-.79-5.29-1.37-7.17-1.4l-2.71,4.22-2.67,4.11c-2.41,3.71-3.24,8.01-6.95,11.35.63-4.64,3.09-8.45,4.91-12.63l1.14-2.62c.16-.36.43-1.25.56-1.71.36-1.25-1.31.57-4.34.52-1.7-.03-1.7-5.2-3.85-2.47-.44.57,0,1.92.61,2.29l2.58,1.57c-1.71-.24-4.38-.62-5.6.18-2.4,4.33-3.97,9.02-7.39,12.63-.15-5.42,3.7-9.51,5.33-14.35l-8.5-3.37-5.1,8.87c-1.03,1.8-1.44,3.62-4,4.2l6.03-13.58-5.74-2.73,2.5.29c.97.47,2.55,1.03,3.42.65.71-.32,1.44-1.52,1.73-2.42l-8.78-2.92c-.91,1-.82,3.13-.26,4.05-4.51-.99-6.01,10.01-10.64,12.76.95-4.94,3.1-8.81,5.38-13.3l-3.1-2.21c1.97-.08,3.78.76,5.53-1.95l-8.65-3.15c-.54-.2-2.29.82-2.16,1.35.15.65.46,1.5.79,2.32l-2.36.18c-.63.05-1.03,1.14-1.53,2.02l-3.74,6.58c-.1.17-.55.7-.69.85-.21.22-.99-.07-1.01-.37-.02-.3.08-1.21.26-1.6l3.95-8.88c-1.4-.55-2.87-1.19-3.34-2.14l2.92.96c.74.24,2.29-1.51,2.29-2.66l-9.92-3.3c-.82.09-2.02,2.1-1.71,2.73,3.28,1.19,4.59,4.41,4.41,7.48-.04.8.48,2.92.12,3.61-1.62,3.12-7.25,1.1-10.75,3.01.3-2.27.61-4.77.68-7.01.26-7.43,3.17-1.81,4.08-14.02-1.17-.27-2.38.72-2.95,1.72l-3.02,5.3c-1.11,1.95-1.83,4.38-3.14,6.15-1.38,1.87.41,5.12-1.7,6.72-.75.57-2.39.77-3.8.92-1.56.16-4.46-1.15-3.86-3,1.28-3.99,5.85-7.44,5.02-11.83l-1.13-5.98c-.06-.31-.69-1.1-.95-1.3-.98-.74-1.57,3-4.77,7.77-.86,1.27.08,4.85-2.43,5.34-2.38.47-5.03.86-7.42,1.18-5.27.73-3.39,8.43-5.89,6.7l-1.96-1.36c-.71-.49-1.81-1.65-2-2.39-.21-.85.92-2.98,1.41-3.14,1.45.59,3.27,1.2,4.34.95.95-3.88,2.44-6.79,4.74-9.84,4.99-6.6,2.47-9.22,9.33-10.32l-1.22-1.85c-.27-.4,1.06-.59,1.72-.62l-2.44-4.36-4.11,1.36c-2.11,1.59-4.07,2.56-6.49,3.43-6.37,2.29-7.17,10.71-15.24,10.25-2.81-.16-3.78,1.21-4.71,3.28l-1.82,4.05c-1.2-4.17.33-7.7,2.49-10.87l4.21-6.18-14.15-4.6-6.35,9.23c-.88-4.2,1.7-7.13,3.56-10.06l-2.28-1.72c1.51-.33,3.04-.75,3.97-1.3l-5.01-3c2.3-.23,3.62.25,6.05.69.13-3.54-5.56-.67-6.78-5.33l-4.49-1.28-2.61,1.8,2.5,2.49-4.41-.43c-.35-.03-1.06,1.28-.74,1.43l1.42.62c1.35.59,2.63.5,2.92,2.35l-5.81-1.43-5.93,9.48c-.21.33-1.54,1.19-1.57.86-.03-.33-.08-1.38.07-1.72l3.5-7.67c.14-.3.92-1.03,1.14-1.28.29-.32-.82-1.36-1.23-1.49l-8.71-2.66c-1.84-.56-3.48-.72-4.72-2.65,3.68-.25,15.75,6.49,16.28,3.05l-13.05-4.45c-.61-.21-2.27-.98-2.7-.56l-2,1.94c-1.36-1.35-.88-4.36.94-5.69l-3.19-2.07c1.47-1.8,2.35-2.88,3.04-4.64l11.05-28.09c3.08.98,7.02,2.04,9.04-.72.27-3.97.4-9.01-.26-12.95-.55-3.28-1.2-5.73.11-9.03l10.5-26.63c2.63.49,5.8,1.38,7.71.47,3.84-1.82,3.6-6.37,3.75-9.82.16-3.65-1.25-5.93-5.16-6.81l43.63-111.18,1.6-4.13,15.09-43.16c3.36-.44,6.32.27,9.52.53l23.11,1.91c1.4,1.82,1.2,4,.14,5.98,2.61,2.19,4.55,5.15,5.59,8.51h.01s2.77,3.55,2.77,3.55c-.87,4.51.7,4.05,2.7,11.5.65,2.43,2.54,3.5,4.28,5.14,1.62,1.52.33,5.53-.98,7.31l2.11,3.08c.32.47-.75,1.77-1.26,2.37,5.08,10.67,11.85,5.23,11.68,13.92-.07,3.77,5.39,10.88,7.56,10.52l-1.35,4.25,6.05-2.18c.56,3.08-4.98,4.27-2.57,6.41l6.06-1.77c-.89-.88-2.16-2.49-1.51-2.89l3.73-2.33c.34-.21,1.34-.46,1.51-.14l1,1.94c.89,1.72,1.58,2.89,1.13,4.44-.65,2.22-2.76,2.15-5.17,1.37-.97,1.83-2.23,4.77-3.64,6.4-2.48,2.37-4.69,4.31-5.29,7.85l-1.32,7.68c-.33,1.92-.44,4.62-.37,6.6l.24,7.12c.02.69-2.32,2.04-2.69,1.45l-1.51-2.42c-1.68.12-1.56,2.88-.72,3.99,2.08,2.76,6.95.35,6.08,3.69l-.84,3.21.77,1.74c.18.4-.18,1.55-.62,1.58l-1.42.11c-.29.02-.24.93-.34,1.97l-2.76-1.35c-.21-1.95-.91-3.72-2.7-4.76-.43.52-1,2.29-.54,2.68l2.24,1.91,4.55,4.32,1.17-2.96c.7.45,1.84,1.33,1.71,1.87l-.54,2.28c2.77,6.53,2.37,14.95,3.36,21.55l1.55,10.37,2.27,12.12c.55,2.96,1.49,5.71,1.56,8.77l.09,4.18c1.5,2.32,2.15,4.56,2.95,7.26l4.02,13.68.43,6.99c.16,2.61.89,4.39.76,6.96l-.24,4.54c-.08,1.49.29,3.7.58,5.05-3.33,7.77,2.38,4.57,3.21,14.89.59-1.25.7-2.81.75-4.93,1.7-1.73,4.12,12.31,3.75,12.83l-2.37.85c-.42.15-.26,1.96.19,1.95l2.12-.09c.8,2.02,2.05,5.7,2.49,7.67.08.37-.87,2.07-1.23,1.92l-1.49-.64-1.34-.57c-.83-.35-1.69,3.7-.8,3.73l2.6.09,1.88,4.95c-2.25-.15-4.81-1.07-6.36-2.72-2.1,1.61-.63,3.92.36,5.62l-1.95,9.14c-.2.96-1.92,2.32-1.96,3.22-.05,1.03.72,3.34,1.69,3.66.82.26,2.97-.02,3.11-.75l.6-3.16c-.17-1.03-.42-1.66-.06-1.96.35-.29,1.62.12,2.04.4l3.5,2.38c-1.87,0-3.68.29-4.3,2.02-.58,1.61,0,3.18,1.9,4.05l1.45.67c1.05.49,3.91-9.11,5.61-11.24,3.35,1.5-.47,9.07-.7,10.21-.56,2.77,1.02,5.87-1.17,8.35-5.71,6.44.58,2-4.96,11.91l-2.59,4.63ZM379.97,462.3c-.25.22-1.3.53-1.61.44-.42-.12-.95-.91-.9-1.35.05-.44.82-1.28,1.24-1.46.39-.17,1.59.22,1.94.45.44.28-.13,1.46-.66,1.92ZM379.92,433.71c-3.05,4.91-5.63,10.02-7.91,15.25-.78,1.79-1.27,3.5-3.31,4.66.79-4.92,2.87-8.96,4.9-13.37l2.36-5.14-.17-2.52c1.67-.99,2.99-2.08,2.4-4.44.63-.05,2.66.41,3.25.81-.56,1.71-.93,3.79-1.52,4.75ZM404.97,425c-.86,0-1.56-.7-1.56-1.56s.7-1.56,1.56-1.56,1.56.7,1.56,1.56-.7,1.56-1.56,1.56ZM414.73,429.67c-.77,0-1.39-.62-1.39-1.39s.62-1.39,1.39-1.39,1.39.62,1.39,1.39-.62,1.39-1.39,1.39ZM428.93,454.38c-.39.31-1.16.37-2.49.31-.42-.73,1.65-2.37,2.5-2.08.35.12.29,1.54,0,1.77ZM428.25,432.72l-4.42,1.44c-.15-1.2-.19-3.12.23-4.7.34-1.31,2.94-1.57,3.96-.88.79.53,1.56,1.19,1.82,1.7.31.61-.87,2.22-1.59,2.45ZM432.17,428.42c-.44-.37.04-1.47.53-2.73-15.72-4.85-38.35-6.38-54.52-3.26.14,2.24-.36,3.34-2.57,4.06l1.69,1.33-2.35.56c-.5.12-.53,1.33-.61,2.28-.06.69-1.29,1.78-1.69,2.44-2.39,3.93-4.2,8.08-6.1,12.28-.94,2.07-1.71,4.05-3.89,5.34.58-3.69,2.01-6.66,3.29-9.83l-3.83-2.18c-1.83,1.66-3.33,9.04-6.41,10.43.63-3.51,1.87-6.33,3.26-9.48l4.19-9.44c-.31-1.44-3.86-2.23-4.55-.96l-2.78,5.11c-2.4,4.41-3.87,8.88-7.06,12.83.22-4.2,2.14-7.5,3.73-11.39-1.47-.3-3.92-1.14-3.67-2.07.6-2.2,3.42-1.56,4.66-.16l1.64-3.47c.34-.71.78-1.72,1.02-2.37.36-.95-2.65-2.34-4.86-1.16-.46.24-.56,1.69-.87,2.12-6.15,8.54-3.65,10.48-9.12,15.25.5-3.79,2.08-6.81,3.51-10.05l5.83-13.24c-.7-.9-4.11-2.2-4.68-1.09l-2.58,4.94-2.87,4.55-5.48,11.11c-.19.38-1.31,1.41-1.34,1.1-.03-.3-.34-1.6-.22-1.89l3.68-9.17-2.46.14c-.7.04-1.74-1.49-1.76-2.34-.01-.65,2.05-1.45,2.57-1.07l2.64,1.9,1.83-4.13c.24-.53,1.08-1.76.69-2.15l-1.66-1.61,2.81-.59c.63-.13,1.23-2.35.69-2.67-1.12-.68-3.52-1.1-5.33-1.36l-1.2,4.12c-1.42.85-2.04,2.28-1.57,3.96-3.72,1.09-4.97,10.55-8.91,13.86-.55-3.57,1.82-6.44,3.12-9.48l3.95-9.27c.7-1.65,2-3.55,3.09-5.2l14.63,4.61c2.29-1.05,5.41-3.28,6.12-5.64,2.25-7.53-4.14-8,3.45-17.57,5.35.59,9.94,3.77,15.82,4.74,3,.49,6.6.86,9.57.1l8.14-2.06c3.19-.81,6.68-.42,10.23-.26,1.75.08,3.94,1.34,5.76,2.07,7.08,2.86,15.27,4.72,20.98,10.15,4.32,4.11,8.08,8.41,12.97,12.03,1.7,1.26,3.36,2.75,4.97,4.14,2.13,1.83,4.63,2.46,6.71,5.14l-19.7-5.49.34,2.59c.03.22-2.08.74-3.48-.42ZM443.79,437.71c0,.64-.52,1.15-1.15,1.15s-1.15-.52-1.15-1.15.52-1.15,1.15-1.15,1.15.52,1.15,1.15ZM437.76,435.57c0,.76-.61,1.37-1.37,1.37s-1.37-.61-1.37-1.37.61-1.37,1.37-1.37,1.37.61,1.37,1.37ZM501.01,437.03c-.12.27-1.05.24-1.34.19-.29-.05-.04-1.21.23-1.32.3-.13,1.61-.04,1.5.23l-.38.9ZM503.63,423.67l.11,6.08c.01.76-.66,2.55-.75,3.23-1.12-.21-2.78-.31-4.25-.19l-3.12.25c-.77.06-1.1,2-1.71,2.48l-2.72,2.12c-.67.52-.41,2.72-.55,4.02-.13,1.13-3.48,1.31-4.08.69l1.96-3.28c-8.22,2.53-4.71,4.9-16.03,7.56-3.88.91-7.49,3.97-11.48,5.38-9.57,3.39-6.22,2.23-14.24,6.25-8.48,4.26-5.87,4.92-9.3,6.38-1,.42-1.49-3.66,2.19-7.72l-4.58.39c-.21-.29-.33-1.76,0-2.23.33-.46,1.62-1.14,2.22-1.18l7.73-.46c3.04-.18,6.05-3.84,7-6.73l4.2-12.79c2.2-6.69,2.69-5.65,14.81-8.43l11.95-2.74c5.69-1.3,11.43-2.87,16.03-6.55,2.23-1.79,4.29-2.76,7.07-1.05l2.13,1.3c.18.11-.33,6.92-4.56,7.23ZM520.95,421.09c-.38-.08-.91-1.37-.59-1.58l2.41-1.55.26,1.85c.07.48-1.48,1.41-2.08,1.28ZM522.4,411.57c.03-.66,2.01-.7,2.49,0-.01.82-2.31.87-2.49,0ZM531.8,409.66c-.51,0-.92-.41-.92-.92s.41-.92.92-.92.92.41.92.92-.41.92-.92.92ZM538.81,403.97c.34.5-.6,2.44-1.09,2.04l-2.98-2.46c-.57-.47-1.35-1.43-1.45-2.03-.1-.6,1.24-1.48,1.85-1.56l3.88-.4-1.05,2.31c-.22.48.35,1.34.85,2.1ZM542.22,394.49l-1.94.65c-.52.17-.89-1.58-1.06-2.27-2.83.59-5.84.34-8.56-1.05l-3.97-2.03c-.42-.21-1.85.64-2.12,1.09-.33.54.9,1.6,1.57,1.79l8.75,2.47c-.57,4.2-5.99-1.94-7.91,4.24l.51,3.69c.03.25-.13,1.34-.37,1.29l-1.47-.3c-.35-.07.41-1.03.76-1.67.33-.59-.74-1.53-1.28-1.94-.81-.61-2.86-.77-3.37.2.3.55,1.56,1.74,2.25,2.33.11,3.37-2.7,7.48-6.58,7.17-3.36-.27-6.39-.95-9.62-1.81l-6.31,1.79c.59-4.71,5.09-13.42,7.02-17.12,1.33-2.56,3.06-4.77,5.19-6.51,3.41-2.78,6.27-1.35,9.63-.54,3.31.8,6.94.55,9.76,3.77.74.84,2.66.91,4,.78.79-.33,7.49,3.22,5.1,4.01ZM549.15,390.47l-5.65-2.44c-4.3-1.86-8.77-1.91-11.36-6.35-6.96.19-2.11,1.81-10.59,1.64-.86-.45.29-2.89,1.29-3.45l5.83-3.27-2.58-3.11c3.13-2.63,3.97,3.3,12.64,5.16,2.6.56,3.71,2.53,5.59,4,1.4,1.09,4.76,2.02,6.61,2.71l9.27,3.46c-3.51,3.59-7.33,3.26-11.04,1.66Z"/>
  <path d="M287.41,47.84c-3.87,5.46-7.61,10.32-12.38,15.65l-1.35,2.82c-.38-1.9-.38-3.03-.25-4.97.89-13.75,3.08-6.13,8.79-15.41.64.03,2.2.59,2.53.16l1.39-1.84c3.17-4.17,7.85-4.1,12.44-4.88l6.22-1.05c1.62-.27,3.84-.4,5.17-.81,3.6-1.11,6.39-1.13,9.85.03l6.41,2.13c1.71.57,3.91,1.4,3.5,3.73-15.96,5.05-12.05,12.62-29.03,13.72-2.1.14-2.96.15-4.74-1.14-1.57-1.14-3.99-1.83-4.6-3.77-.66-2.11-1.64-3.64-3.93-4.38Z"/>
  <path d="M19.97,342.55c-2.38.59-1.86-5.95-3.66-7.86l2.02-4.25c.68-.11,2.74,1.2,3.29,2.16.61,1.05.18,3.2-.07,4.69s1.46,4.51-1.59,5.26Z"/>
  <path d="M37.3,344.43c-5.13-.07-3.61-5.64-5.89-8.13l1.54-4.99,4.79,3.65-1.75,3.03,1.3,6.45Z"/>
  <path d="M258.87,59.07l-1.1-7.25c-.04-.24-1.31-.11-1.3.14l.04,1.34c0,.35-.13,1.3-.18,1.64s-1.21-.51-1.19-.86c.11-1.46,0-4.74.59-6.09l4.73-7.27.29,5.12-2.03,4.41c.65,1.42.88,2.64.56,4.01l-.4,4.82Z"/>
  <path d="M51.25,342.49c.1.88-.91,2.43-1.59,2.49-3.66.31-.59-3.87-3.68-7.93l3.08-4.76c.83,1.21,1.33,2.38,1.48,3.66l.72,6.54Z"/>
  <path d="M80.38,343.76c-.07.74-2.11.84-2.7.35s-.9-1.25-1.44-2.43c-1.42-3.09.86-4.83,2.56-6.02,2.45,2.76,1.94,5.21,1.58,8.11Z"/>
  <path d="M270.86,52.72l1.12-6.03c.57-.89,2-2.1,2.21-3.85,3.88,6.18-.84,9-2.68,11.35-.18.23-.71-1.17-.65-1.46Z"/>
  <path d="M94.29,342.43c-.96.45-3.97-.16-3.9-1.2.08-1.16.75-3.02,1.5-3.27.85-.29,2.6.49,3.4,1.27.64.63.06,2.71-1,3.21Z"/>
  <path d="M313.33,469.92c-2.55.86-5.27.77-8.43.24-.58-2.57-.81-4.37-.5-6.86,1.06,4.24,3.86,6.1,8.93,6.62Z"/>
  <path d="M66.45,338.11c-.32,2.91-4.02,1.6-5.26.09.59-1.47,1.79-3.2,2.9-4.26l2.36,4.17Z"/>
  <path d="M95.01,346.02c-.21,1.28-.46,2.31-1,2.42s-2.03-.55-2.14-1.09l-.79-3.75,2.71.11c.63.03,1.34,1.57,1.22,2.31Z"/>
  <path d="M63.7,346.01c-1.3-.45-2.01-3.75-.96-4.29,1.27-.64,3.21.79,3.51,1.97.23.93-1.62,2.64-2.55,2.32Z"/>
  <path d="M76,357.07c.45.22-1.06-.51-1.6-.77-.59-.28-.68-2.27-.06-2.43.58-.15,2.4-.08,2.33-.55l-.46-2.99c.74-.18,2.56,1.76,2.11,2.52l-2.33,4.22Z"/>
  <path d="M420.53,221.02c-.07.56-.92,1.6-1.39,1.66s-1.58-.57-1.58-1.04c-.02-.94-.15-2.77.32-3.16.57-.47,1.57-.82,3.14-1.45l-.49,3.99Z"/>
  <path d="M68.16,331.63c-2.79-.15-5.16-.49-8.54-1.28,2.83-1.93,2.98.73,5.43-1.32l3.1,2.6Z"/>
  <path d="M30.62,350.33c-4.17-1.4-7.33,1.53-11.55,2.82,2.08-3.22,12.42-6.12,15.18-1.22l-3.64-1.6Z"/>
  <path d="M318.79.45c-2.81.64-5.64,1.02-8.54.67,2.63-1.46,5.13-1.27,8.54-.67Z"/>
  <path d="M295.62,4.64l-4.36,2.79c-.63-2.55,1.65-3.71,4.36-2.79Z"/>
  <path d="M50.12,329.67c-.89.67-3.79-.16-3.89-1.24,1.37-1.53,3.38-.28,3.89,1.24Z"/>
  <path d="M422.23,205.71c-.8-1.9-.2-3.1,1.68-4.05.19.51.51,1.81.41,2.3-.12.61-1.11,1.18-2.09,1.75Z"/>
  <circle cx="78.51" cy="346.6" r="1.32"/>
  <path d="M380.35,33.16c.32.25.65.89.44,1.17-.27.37-1.63.54-1.96.23-.77-.73-1.66-2.94-1.53-3.77l3.05,2.37Z"/>
  <rect x="259.58" y="74.62" width="3.69" height="1.76" transform="translate(17.6 196.3) rotate(-42.47)"/>
  <path d="M302.94,5.09l-1.92,1.49c-.42.33-1.82-.11-2.25-.59.62-1.07,2.08-1.22,4.17-.89Z"/>
  <path d="M4.99,354.6c-1.98.58-3.56.29-4.99-.83,1.9,0,3.45.29,4.99.83Z"/>
  <path d="M382.55,42.86l-1.71-4.21c1.48.83,2.38,2.34,1.71,4.21Z"/>
  <path d="M347.66.92c-.72.55-1.49,1.01-2.01.83-.85-.31-1.68-.91-2.05-1.58l4.05.76Z"/>
  <path d="M318.54,469.23c.58-.18,2.09.34,1.79.6-.33.28-.96.72-1.31.93s-.87-1.41-.48-1.53Z"/>
  <path d="M426.33,174.05l1.17-.19c.31-.05.39,1.05.1,1.18l-1.19.52c-.29.13-.39-1.47-.08-1.52Z"/>
  <path d="M82.79,332.61c-1.15.55-2.51.72-3.78-.52l3.78.52Z"/>
  <path d="M334.11,7.03l1.46-.29c.24-.05.58.9.35.98l-.98.37c-.34.13-1.19-1-.84-1.07Z"/>
  <path class="cls-1" d="M352.5,435.82c-1.47-.3-3.92-1.14-3.67-2.07.6-2.2,3.42-1.56,4.66-.16l1.64-3.47c.34-.71.78-1.72,1.02-2.37.36-.95-2.65-2.34-4.86-1.16-.46.24-.56,1.69-.87,2.12-6.15,8.54-3.65,10.48-9.12,15.25.5-3.79,2.08-6.81,3.51-10.05l5.83-13.24c-.7-.9-4.11-2.2-4.68-1.09l-2.58,4.94-2.87,4.55-5.48,11.11c-.19.38-1.31,1.41-1.34,1.1s-.34-1.6-.22-1.89l3.68-9.17-2.46.14c-.7.04-1.74-1.49-1.76-2.34-.01-.65,2.05-1.45,2.57-1.07l2.64,1.9,1.83-4.13c.24-.53,1.08-1.76.69-2.15l-1.66-1.61,2.81-.59c.63-.13,1.23-2.35.69-2.67-1.12-.68-3.52-1.1-5.33-1.36l-1.2,4.12c-1.42.85-2.04,2.28-1.57,3.96-3.72,1.09-4.97,10.55-8.91,13.86-.55-3.57,1.82-6.44,3.12-9.48l3.95-9.27c.7-1.65,2-3.55,3.09-5.2l14.63,4.61c2.29-1.05,5.41-3.28,6.12-5.64,2.25-7.53-4.14-8,3.45-17.57,5.35.59,9.94,3.77,15.82,4.74,3,.49,6.6.86,9.57.1l8.14-2.06c3.19-.81,6.68-.42,10.23-.26,1.75.08,3.94,1.34,5.76,2.07,7.08,2.86,15.27,4.72,20.98,10.15,4.32,4.11,8.08,8.41,12.97,12.03,1.7,1.26,3.36,2.75,4.97,4.14,2.13,1.83,4.63,2.46,6.71,5.14l-19.7-5.49.34,2.58c.03.22-2.08.74-3.48-.42-.44-.37.04-1.47.53-2.73-15.72-4.85-38.35-6.38-54.52-3.26.14,2.24-.36,3.34-2.57,4.06l1.69,1.33-2.35.56c-.5.12-.53,1.33-.61,2.28-.06.69-1.29,1.78-1.69,2.44-2.39,3.93-4.2,8.08-6.1,12.28-.94,2.07-1.71,4.05-3.89,5.34.58-3.69,2.01-6.66,3.29-9.83l-3.83-2.18c-1.83,1.66-3.33,9.04-6.41,10.43.63-3.51,1.87-6.33,3.26-9.48l4.19-9.44c-.31-1.44-3.86-2.23-4.55-.96l-2.78,5.11c-2.4,4.41-3.87,8.88-7.06,12.83.22-4.2,2.14-7.5,3.73-11.39ZM357.94,423.49c-.26-1.43-3.92-2.1-4.72-.69-.68,1.19.92,2.2,2.17,2.64.88.31,2.82-.5,2.55-1.95ZM365.03,425.46c-1.89-1.56-3.84-1.96-4.52-.25-.64,1.61,1.19,2.67,2.62,2.75,1.04.06,2.61-1.92,1.9-2.51ZM373.71,424.14c-.49.44-1.17,1.33-.81,1.53l1.2.65c.34.19.93-.92.69-1.22-.18-.23-.85-1.16-1.07-.96ZM371.78,427.45c-.88-.68-2.97-1.27-3.65-.81-.63.42-.65,2.91.11,2.99l2.59.27c.63.07,1.44-2.07.95-2.45ZM367.44,437.38l2.44-4.77c.42-.82-1.1-2.38-1.95-2.24s-2.12.92-2.51,1.61l-2.71,4.82,4.74.59Z"/>
  <path class="cls-1" d="M341.37,255.32l-5.17-.77c-1.29-.19-2.93-.9-3.68.23-.8,1.22-.46,3.11.66,3.95,4.96,3.71,2.12,3.06,1.58,9.61,3.75.04,5.34,5.41,6.71,3.44.48-.69,1.02-1.72,1.56-2.8,1.23,1.37,2.13,4.8.87,6.71-.63.96-3.06,1.97-3.82,2.16l-1.76-3.66c-3.93,2.57-5.59,6.28-6.81,10.65l2.85,3.13c-.85,1.45-1.37,2.85-1.78,4.57l-1.42,6.02c-.59,2.5-1.74,4.25-.73,7.11.25.71-.62,2.85-1.29,2.51-2.19-2.11-1.57-5.51-1.39-8.15l.7-10.35-1.69-7.73c-.91-4.15-.85-7.49-2.29-11.4-.79-2.16-1-6.05-1.37-8.81l-2.16-15.97-1.1-9.38-1.45-13.99c-.25-2.44-1.95-5.12-1.13-7.58,1.21-3.6-2.79-23.41-.45-23.88,2.78-.57,3.15,6.11,2.22,9.38.71,1.03,2.56-.34,3.88-1.46,1.68.18,2.78,3.48,3.55,4.96l2.15,4.14c1.76,2.61,4.83,4.03,5.38,7.55.24,1.56-2,3.32-3.5,4.43l.71,8.03,4.17.64c1.48.23.3-3.65,2.14-4.81.51-.32,2.09.49,1.92,1.08-.27.97-.69,3.8.28,3.98l4.32.82c-.24,2.95,1.51,4.66,3.79,6.24,1.01.89.33,4-.74,5.05l-.61-3.83c-2.92.42-5.52.35-6.91-1.35l2.17-1.58c.46-.34.23-1.94-.23-2.28-2.63-1.95-3.64,1.51-5.81-.24l-1.39-1.12c-2.41-1.94-1.1,6.08-4.84,5.16l1.46-5.63c-2.74,1.95-3.63,2.86-5.78,4.86,2.89,6.13,7.53,7.6,6.91,12.45l5.04,4.87c1.22,1.18,3.73-.17,4.25,3.02ZM323.68,208.29c.4-.58,1.08-3,.46-3.39-.96-.6-3.95-1.84-5.28-1.48-.47.12-.74,1.76-.36,1.99l5.18,2.88ZM330,228.01c.13-1.15-1.42-3.32-2.26-4.03-1.28,1.3-2.53,3.1-2.07,4.43.53,1.56,4.12,1.52,4.33-.4Z"/>
  <path class="cls-1" d="M460.99,452c-9.57,3.39-6.22,2.23-14.24,6.25-8.48,4.26-5.87,4.92-9.3,6.38-1,.42-1.49-3.66,2.19-7.72l-4.58.39c-.21-.29-.33-1.76,0-2.23s1.62-1.14,2.22-1.18l7.73-.46c3.04-.18,6.05-3.84,7-6.73l4.2-12.79c2.2-6.69,2.69-5.65,14.81-8.43l11.95-2.74c5.69-1.3,11.43-2.87,16.03-6.55,2.23-1.79,4.29-2.76,7.07-1.05l2.13,1.3c.18.11-.33,6.92-4.56,7.23l.11,6.08c.01.76-.66,2.55-.75,3.23-1.12-.21-2.78-.31-4.25-.19l-3.12.25c-.77.06-1.1,2-1.71,2.48l-2.72,2.12c-.67.52-.41,2.72-.55,4.02-.13,1.13-3.48,1.31-4.08.69l1.96-3.28c-8.22,2.53-4.71,4.9-16.03,7.56-3.88.91-7.49,3.97-11.48,5.38ZM458.09,446.51c4.96-1.29,9.62-3.68,11.03-8.33l1.44-4.74c-1.07-1.79-3.52-2.22-5.5-1.2l-4.77,2.47-1.4,6.08c-.46,2.02-1.21,3.49-.8,5.71Z"/>
  <path class="cls-1" d="M248.18,420.19c1.18,2.42,6.59,5.92,6.17,7.59-.58,2.3-1.23.35-2.39,3.08-.86,2.02,2.47-1.57,3.24-1.64,1.38-.13,3.33,2.05,3.76,3.33.2.6-1.21,1.99-1.86,2.03l-4.57.26.29,2.5c.28,2.44-6.53,3.16-7.51,3.39-1.06.25-2.41,1.4-3.27,1.19-1.11-.27-2.37-1.22-3.24-1.97l-3.84-3.32-2.53,1.28c-.53.27-.62-1.99-.87-2.63-2.64-6.74.21-14.22,4.24-20.08l2.53-3.68,27.46,9.9c3.3,1.19,5.26,4.4,8.13,5.95l5.47,2.94c2.01,1.08,3.92,1.47,3.8,4.59l-4.9-1.6c-1.81-.59-4.45-.68-5.73-2.02-1.54-1.62-3.12-2.35-5.26-2.21-.51.56-1.16,1.59-1.55,1.27-.58-.48-1.27-1.87-.9-2.32.56-.7,1.21-1.66.82-1.93-2.35-1.58-3.55,1.48-5.72-1.14-1.81-2.18-4.23-2.66-6.7-2.02-1.73-1.05-3-1.84-5.06-2.72ZM247.24,428.87c-.1,1.6,1.16,3.89,2.73,4.12,1.94.31-1.72-5.57-2.73-4.12ZM247.37,433.26c0-.49-.4-.9-.9-.9s-.9.4-.9.9.4.9.9.9.9-.4.9-.9Z"/>
  <path class="cls-1" d="M526.98,399.35l.51,3.69c.03.25-.13,1.34-.37,1.29l-1.47-.3c-.35-.07.41-1.03.76-1.67.33-.59-.74-1.53-1.28-1.94-.81-.61-2.86-.77-3.37.2.3.55,1.56,1.74,2.25,2.33.11,3.37-2.7,7.48-6.58,7.17-3.36-.27-6.39-.95-9.62-1.81l-6.31,1.79c.59-4.71,5.09-13.42,7.02-17.12,1.33-2.56,3.06-4.77,5.19-6.51,3.41-2.78,6.27-1.35,9.63-.54s6.94.55,9.76,3.77c.74.84,2.66.91,4,.78.79-.33,7.49,3.22,5.1,4.01l-1.94.65c-.52.17-.89-1.58-1.06-2.27-2.83.59-5.84.34-8.56-1.05l-3.97-2.03c-.42-.21-1.85.64-2.12,1.09-.33.54.9,1.6,1.57,1.79l8.75,2.47c-.57,4.2-5.99-1.94-7.91,4.24ZM519.5,394.04l.1,1.74c.01.24,1.01-.1,1.01-.34l.04-1.19c0-.24-1.16-.47-1.15-.21Z"/>
  <path class="cls-1" d="M360.52,136.76c-.39.29-1.6-.6-1.4-1.06l1.3-2.89-4.22,2.11c-.04-.68.52-2.45,1.1-2.95l7.08-6.17c.51-2.42-.1-7.03-.72-9.15-3.09-1.24-3.16,1.67-5.67,3.15l1.4-4.62c.41-2.64.98-5.58,1.86-7.88l5.59-2.53c-1.21-3.22-2.08-5.82-2.86-8.87.33-1.09.9-3.21,1.38-4.37,1.3-3.16,3.14,3.24,6.88,5.89,2.88,2.04,4.63,5.8,4.83,9.04-.79.99-1.3,1.92-1.82,3.52l-3.9.88-.91,3.68-2.74-1.81c-2.07,6.76.5,10.86-.32,13.29-2.42,7.24,1.45,5.42-6.88,10.76ZM364.73,108.15l-2.04.07.1,2.68,2.04-.07-.1-2.68Z"/>
  <path class="cls-1" d="M168.86,244.72c1.72,4.85-5.72,1.62-5.59,7.14l-2.25,3.35c.6,4.62.06,9.27-2.14,13.14-.81-3.99-2.78-8.36-1.15-11.99l3.49-7.78,3.83-9.58,4.57-11.26c1.37-3.38,2.29-6.79,3.51-10.25.96-2.72,3.18-5.2,3.88-8.16.25-1.06.82-2.29,1.52-2.53s2.57-.19,3.1.33c.62.6.62,2.54.31,3.44-2.77,8.15.05,4.35-4.5,13.23-4.71,9.2-1.61,5.26-4.69,14.06-2.49-.11-4.56.21-5.74,1.69l1.83,5.18Z"/>
  <path class="cls-1" d="M295.85,149.69c-1.53-1.54-7.62-2.84-10.28-.88l-2.78-3.92,5-.95-3.59-1.19,1.23-6.65-2.41.88,1.87-5.14-3.87-1.71c3.08-.27,5.94.08,8.38-1.66,1.95-1.39,2.88-4.03,3.97-7.28l6.43,2.42c.09,1.24-.3,2.82-.74,4.27-2.27,7.47-3.19,4.35-3.96,8.5-.03.17.3.1.51-.02l1.26-.68-.8,4.98c-.57,3.53,3.89,13.13-.2,9.03ZM294.1,131.92c.28-.08,1.01-1.06.7-1.16l-.66-.2c-.19-.06-.98.33-1.1.48-.21.26-.46,1.31-.14,1.22l1.2-.34ZM293.01,136.91c-.79-.39-2.49-.06-2.73.63s.17,3.07.81,2.75c1.14-.59,1.99-2.42,1.92-3.38Z"/>
  <path class="cls-1" d="M543.5,388.03c-4.3-1.86-8.77-1.91-11.36-6.35-6.96.19-2.11,1.81-10.59,1.64-.86-.45.29-2.89,1.29-3.45l5.83-3.27-2.58-3.11c3.13-2.63,3.97,3.3,12.64,5.16,2.6.56,3.71,2.53,5.59,4,1.4,1.09,4.76,2.02,6.61,2.71l9.27,3.46c-3.51,3.59-7.33,3.26-11.04,1.66l-5.65-2.44ZM539.85,382.54c0-.74-.6-1.34-1.34-1.34s-1.34.6-1.34,1.34.6,1.34,1.34,1.34,1.34-.6,1.34-1.34Z"/>
  <path class="cls-1" d="M382.97,271.99c.15,1.79-.25,2.96-.82,4.65-.68,2.01-.87,5.59-4.29,4.93-1.44-2.12-.66-6.6,2-8.45-1.67-2.94-1.83-5.83-.41-8.74l2.98-6.14c.38-.77,1.99-2.43,1.46-3-1.87-2.01-2.13-4.38-1.03-6.85l2.44-5.47c.35-.8,2.19-2.82,2.57-2.05,1.07,2.18,1.8,4.1,2.42,5.81-1.78.28-3.48.68-4.23,1.76-.26,1.38,1.71,2.23,3.43,3.9,1.37,1.33-4.78,6.15-1.77,9.9l1.31,1.63c1.03,1.28-5.41,5.8-6.05,8.12ZM382.17,265.17c0,.44,1.51,1.66,1.57,1.23l.21-1.32c.05-.32-1.78-.23-1.78.09Z"/>
  <path class="cls-1" d="M205.14,151.46l-4.25,2.25c-.47.25-1.76.56-2.2.59-2.64.19,3.54-12.41,3.92-13.2,2.21-4.59,3.93-8.9,5.91-13.63.4-.95,1.39-2.36,2.21-2.38"/>
  <path class="cls-1" d="M213.77,126.42c.78,1.14-8.19,24.81-8.63,25.04"/>
  <path class="cls-1" d="M210.73,125.08c.86-.02,2.58.67,3.04,1.34"/>
  <path class="cls-1" d="M148.01,291.42c.12,1.34-1.63,4.12-1.67,5.48-.06,2.33.18,4.22-1.42,5.5-1.46,1.18-3.21,2.06-5.46.41l2.74-6.96,2.48-6.69,5.46-14.52c.64-1.69,1.58-3.19,3-4.8,2.49,1.35.36,14.92-.21,15.6-1.02,1.24-3.48,1.55-5.3,2.02l.36,3.96Z"/>
  <path class="cls-1" d="M128.25,333.26c-.65-2.81.28-3.67,1.04-5.66l4.81-12.52,3.72-8.89c.23-.56,2.09-1.17,2.15-.57.3,2.74.88,5.98.18,8.43-1.79,6.27-4.8,12.09-7.57,17.9l-4.33,1.32Z"/>
  <path class="cls-1" d="M393,119.12l-2.94,4.94c-.08.29-2.32-.72-2.44-1.37l-1.46-7.93c-.29-1.58.24-2.83.96-4.35-.55-1.86-1.84-4.17-3.39-6.18l.77,5.62c-1.59-.69-2.78-3.29-2.44-4.54l1.33-4.85,4.76,4.53c5.7,1.83.46,1.06,5.07,7.94l4.29,6.39c.11.17-.05,1.37-.13,1.55-.09.2-.3.33-.41.17-.13-.18-.52-.69-.62-.86l-2.98-4.87c-1.17.8.09,3.06-.37,3.83Z"/>
  <path class="cls-1" d="M433.46,252.99c-.89-1.27-1.14-4.65.6-5.29,1.85-.68,3.01,1.49,3.49,3.14l2.78-2.8-1.49.13c-.37.03-1.28-.75-1.02-1.14l2.89-4.29,2.61-1.21c-.07-1.06-.03-3.71.82-4.55,1.82-1.8,4.96-2.44,6.96-2.11-2.1,1.38-2.37,2.87-3.59,4.51l-2.89,3.88,2.31,1.99c.57.49-.22,2.81-.53,2.97-7.18-1.92-4.2,4.59-10.49,3.13l-2.47,1.65Z"/>
  <path class="cls-1" d="M281.61,114.25l-2.96-1.78c-.52-.31-1.14,1.21-1.53,2.64-4.73-3.04-3.93-10.17-8.37-14.5-.27-.26-.22-1.43.12-1.49.45-.09,1.64-.06,2.06.19l4.6,2.72,1.41,7.18c.15.77,1.48,1.96,1.91,1.75l1.87-3.39c.65,2.34.98,4.36.91,6.69Z"/>
  <path class="cls-1" d="M368.71,453.62c.79-4.92,2.87-8.96,4.9-13.37l2.36-5.14-.17-2.52c1.67-.99,2.99-2.08,2.4-4.44.63-.05,2.66.41,3.25.81-.56,1.71-.93,3.79-1.52,4.75-3.05,4.91-5.63,10.02-7.91,15.25-.78,1.79-1.27,3.5-3.31,4.66Z"/>
  <path class="cls-1" d="M376.67,79.96c-4.24-.29-7.2,1.63-7.78-.34-.12-.42.76-1.2,1.18-1.43l8.28-4.5c1.52-.82,3.4-1.11,4.89-.36l-.03,3.63c-.83,2.54-3.92,3.18-6.53,3.01Z"/>
  <path class="cls-1" d="M252.01,446.19c-2.67,1.31-4.73,2.2-6.66,4.29-.39.18-1.83-1.03-1.94-1.71-.65-4.06,5.27-5.13,5.52-5.35,2.48-2.11,4.63-4.15,8.39-3.39l-1.02,4.04-4.3,2.11Z"/>
  <path class="cls-1" d="M191.83,182.48c-.42,1.07-1.15,2.42-1.8,2.38s-1.95-1.17-1.87-1.54c1.78-2.07,2.94-4.4,3.88-6.96,2.43-6.62,4.89-12.73,7.79-19.46,1.83,2.51.27,4.38-.5,6.37l-7.5,19.21Z"/>
  <path class="cls-1" d="M298.36,88.88l-6.31,2.26c-1.21-3.56,2.3-4.58,4.85-5.13,3.39-.72,6.89-.12,8.91,3.47-2.07,1.67-5.08,1.12-7.45-.6Z"/>
  <path class="cls-1" d="M318.94,185.37l-1.95,3.37c-3.05-4.15,2.43-2.64,6.63-9.07.34,1.59-.19,9.76-.49,10.17-.55.74-2.41,1.76-3.08,1.35-.76-1.98-.99-3.75-1.12-5.82ZM321.9,188.73l.62-2.13c.13-.45-1.37-1.3-1.71-.99-.78.72.16,2.88,1.08,3.11Z"/>
  <path class="cls-1" d="M407.94,280.29c1.02-.28.37,4.01-.66,3.73l-5.37-1.45c-1.54-.42-2.77-4.09-2.53-5.58.07-.44,1.48-.67,1.82-.39,2.37,1.98.21,3,3.23,4.53.7.36,1.77-.35,3.52-.84Z"/>
  <path class="cls-1" d="M428.25,432.72l-4.42,1.44c-.15-1.2-.19-3.12.23-4.7.34-1.31,2.94-1.57,3.96-.88.79.53,1.56,1.19,1.82,1.7.31.61-.87,2.22-1.59,2.45Z"/>
  <path class="cls-1" d="M356.17,210.16c-.65,1.15-1.18,2.03-1.86,2.92-.05-7.84,3.14-6.94,3.97-14.48.44.48,1.44,1.93,1.82,2.79s-.36,2.43-.92,3.42l-3.02,5.35Z"/>
  <path class="cls-1" d="M566.9,274.16c-1.73,1.32-1.63,1.34-1.76,1.12-2.57-4.26-6.47-2.99-6.04-9.87l-3.25-1.76c-.21-.11-.63-.89-.54-1.1l.32-.78c.36-.88,6.37,4.2,6.91,9.12,1.68.68,3.45,1.89,4.37,3.26Z"/>
  <path class="cls-1" d="M301,97.52c1,3.95-4.72,5.06-6.13,4.84-.59-.09-1.05-1.44-1.07-2.03-.07-1.8,5.43-2.99,7.2-2.81Z"/>
  <path class="cls-1" d="M418.58,270.28c-.72,1.5-1.79,2.99-3.05,3.1-1.51.12-3.14-.51-3.85-1.84,1.76-1.73,5.38-4.26,7.32-2.62.21.18-.06.58-.42,1.37Z"/>
  <path class="cls-1" d="M537.73,406.01l-2.98-2.46c-.57-.47-1.35-1.43-1.45-2.03s1.24-1.48,1.85-1.56l3.88-.4-1.05,2.31c-.22.48.35,1.34.85,2.1.34.5-.6,2.44-1.09,2.04Z"/>
  <path class="cls-1" d="M351.22,372.89c-7.68.63-5.58,6.91-10.53,3.84,1.44-4.19,6.88-4.93,10.53-3.84Z"/>
  <path class="cls-1" d="M280.82,107.99l-1.65-4.3-2.47-1.3,4.09-2.09c.69-.35,2.45,1.29,2.16,2.05l-2.14,5.64Z"/>
  <path class="cls-1" d="M365.63,50c-1.48-1.44-2-3.66-2.5-5.98l-.91-9.33c2.26,4.67,3.24,9.31,3.41,15.31Z"/>
  <path class="cls-1" d="M253.82,399.57c.5.37.54,2.47.06,2.87-1.23,1.05-4.42.41-4.96-1.63-.19-.72,1.42-1.98,2.17-1.92s2.31.37,2.73.68Z"/>
  <path class="cls-1" d="M397.52,129.52c-1.03-1.61-2.16-3.84-3.12-5.94-.24.02-1.35.29-2.27.52l.67-2.33,4.01,1.68c.88,1.53,1.79,3.09.71,6.07Z"/>
  <circle class="cls-1" cx="284.56" cy="419.15" r="2.28"/>
  <path class="cls-1" d="M371.39,189.3l-5.56,5.41,2.18-5.15c.44-1.03,1.49-2.62,2.32-2.41l1.49.39c.23.06-.19,1.52-.44,1.76Z"/>
  <path class="cls-1" d="M551.73,256.58c1.09,1.54,3.03,1.99,3.83,4.37-3.82-.72-5.92-4.76-7.86-8.26,2.97-.6,2.8,2.16,4.02,3.89Z"/>
  <path class="cls-1" d="M261.05,441.24l-3.66-3.94c.15-.37,1.46-1.34,2.14-1.51,1.35-.33,3.85,4.65,1.52,5.45Z"/>
  <path class="cls-1" d="M309.99,452.19c-3.44,3.63-1.44,3.56-3.18,4.17-1.22-2.15.03-4.5,1.8-5.59l1.36-.84c.31-.19,1.31.71,1.1,1s-.64.8-1.07,1.25Z"/>
  <path class="cls-1" d="M315.27,442.44c.23,2.32-.72,4.64-3.19,5l.9-4.36.34-1.67c.08-.41,1.91.62,1.95,1.03Z"/>
  <path class="cls-1" d="M381.21,90.78c-.46-2.38-.34-4.61,1-6.95,1.31,2.46,1.11,4.93-1,6.95Z"/>
  <path class="cls-1" d="M280.84,69.86l-1.54,2.87c-1.13-.07-3.18-1.49-3.8-2.76l5.33-.11Z"/>
  <path class="cls-1" d="M299.43,424.47c.21-2.77,1.52-5.05,3.26-7.31.14,2.59-.66,5.39-3.26,7.31Z"/>
  <circle class="cls-1" cx="159.37" cy="370.27" r="1.68"/>
  <path class="cls-1" d="M212.57,115.48c-1.87-1.5-.24-4.25,1.4-4.86.77,1.35.14,4.16-1.4,4.86Z"/>
  <path class="cls-1" d="M577.51,292.13l-2.07-3.8c.39-.61,2.38-.6,2.8,0,.67.95,2.15,2.11-.73,3.8Z"/>
  <path class="cls-1" d="M221.36,418.95c-.69-.11-.84-2.34-.24-2.76.55-.39,1.56-1.04,2.12-1.37.96,1.7.17,3.55-1.88,4.13Z"/>
  <path class="cls-1" d="M399.5,239.21c.28,1.1.27,3.69-.13,4.73-.22.58-2.84-.18-2.38-.37.5-.36,1.65-7.72,2.51-4.36Z"/>
  <circle class="cls-1" cx="127.86" cy="336.07" r="1.64"/>
  <path class="cls-1" d="M217.61,113.25l-.73,1.26c-.15.25-1.21-.84-1.09-1.09l1.87-3.63c.16-.31.49-.94.69-.88l1,.29c.3.09-.12,1.12-.28,1.41l-1.46,2.63Z"/>
  <circle class="cls-1" cx="404.97" cy="423.44" r="1.56"/>
  <path class="cls-1" d="M379.97,462.3c-.25.22-1.3.53-1.61.44-.43-.12-.95-.91-.9-1.35s.82-1.28,1.24-1.46c.39-.17,1.59.22,1.94.45.44.28-.13,1.46-.66,1.92Z"/>
  <circle class="cls-1" cx="573.77" cy="324.02" r="1.52"/>
  <path class="cls-1" d="M382.98,82.5c-1.36.77-3.78,1.25-4.62.49.48-1.89,3.02-1.91,4.62-.49Z"/>
  <circle class="cls-1" cx="414.73" cy="428.27" r="1.39"/>
  <path class="cls-1" d="M345.27,296.95c-.45-2.1-.6-4.35.41-5.66,1.83,2.12.9,3.88-.41,5.66Z"/>
  <path class="cls-1" d="M406.43,142.34c.56.18.39,1.64-.14,1.58-.79-.09-1.86-.4-2.29-.65l-1.72-2.22,4.16,1.3Z"/>
  <path class="cls-1" d="M520.95,421.09c-.38-.08-.91-1.37-.59-1.58l2.41-1.55.26,1.85c.07.48-1.48,1.41-2.08,1.28Z"/>
  <circle class="cls-1" cx="436.39" cy="435.57" r="1.37"/>
  <path class="cls-1" d="M542.18,366.2c-.87.69-3.22.25-2.78-1.09.18-.55,1.59-1.04,2.09-.84s1.1,1.6.69,1.93Z"/>
  <path class="cls-1" d="M426.44,454.69c-.42-.73,1.65-2.37,2.5-2.08.35.12.29,1.54,0,1.77-.39.31-1.16.37-2.49.31Z"/>
  <path class="cls-1" d="M309.16,428.18c.03-2.1.88-3.77,2.32-5.09-.04,2.1-.88,3.76-2.32,5.09Z"/>
  <circle class="cls-1" cx="442.63" cy="437.71" r="1.15"/>
  <path class="cls-1" d="M298.92,142.64c0,.48-1.35,1.34-1.52.96-.18-.42-.68-1.48-.41-1.78l.94-1.06c.26-.3.99,1.13.99,1.88Z"/>
  <path class="cls-1" d="M342.87,264.63c-.17-.72.13-2.61.52-3.61.86,1.41,1.66,2.98-.52,3.61Z"/>
  <rect class="cls-1" x="407.24" y="112.27" width="1.22" height="3.66"/>
  <path class="cls-1" d="M525.23,220.86l1.23-3.03c.38.47,1.06,1.41,1.38,1.92.36.58-1.5,1.28-2.61,1.11Z"/>
  <path class="cls-1" d="M532.01,230.07l-1.72-4.28c1.3.52,3.44,2.06,1.72,4.28Z"/>
  <rect class="cls-1" x="351.52" y="266.95" width="1.87" height="2.08" transform="translate(57.33 598.07) rotate(-85.45)"/>
  <path class="cls-1" d="M401.41,290.86l1.91-3.13c.37.99.55,1.53.58,1.94s-.78.79-2.49,1.19Z"/>
  <circle class="cls-1" cx="417.73" cy="251.79" r="1.14"/>
  <path class="cls-1" d="M569.05,278.53c.03-.31,1.1-.37,1.36-.22.36.2.98,1.31.6,1.48l-1.06.47c-.38.17-.95-1.29-.9-1.73Z"/>
  <path class="cls-1" d="M303.2,154.04c-.68.06-2.39-.77-2.74-1.51.9-1.47,2.26.05,2.74,1.51Z"/>
  <path class="cls-1" d="M357.53,111.09c-1.08,1.38-2.23.22-2.03.31-.32-.16.37-1.32.72-1.39l1.39-.29c.28-.06.1,1.14-.08,1.37Z"/>
  <path class="cls-1" d="M348.77,233.06l.82-5.03c.68,1.65.4,3.51-.82,5.03Z"/>
  <path class="cls-1" d="M361,121.62c-1.35-1.06-.03-2.72,1.71-2.46-.41.65-1.31,1.97-1.71,2.46Z"/>
  <rect class="cls-1" x="364.26" y="73.08" width="2.3" height="1.5" transform="translate(164.09 387.58) rotate(-68.74)"/>
  <path class="cls-1" d="M326.05,16.04l-3.62-.9c1.52-.73,2.88-1.01,3.62.9Z"/>
  <path class="cls-1" d="M390.84,54.94c-1.62-.64-1.63-2.03-.86-3.73l.86,3.73Z"/>
  <path class="cls-1" d="M499.9,435.9c.3-.13,1.61-.04,1.5.23l-.38.9c-.12.27-1.05.24-1.34.19s-.04-1.21.23-1.32Z"/>
  <path class="cls-1" d="M543.71,250.58c-2.35-.48-4.05-2.57-3.1-5.01l3.1,5.01Z"/>
  <path class="cls-1" d="M524.89,411.57c-.01.82-2.31.87-2.49,0,.03-.66,2.01-.7,2.49,0Z"/>
  <path class="cls-1" d="M541.34,243.44l-2.19-2.12c1.01-.3,1.47-.51,1.74-.28s.31.88.44,2.4Z"/>
  <circle class="cls-1" cx="397.94" cy="154.95" r="1.08"/>
  <path class="cls-1" d="M273.53,25.45l-1.28.82c-.17.11-1.03-.04-.9-.2l1-1.2c.21-.25,1.09-.31,1.76-.4.3-.04-.22.74-.58.97Z"/>
  <rect class="cls-1" x="257.82" y="447.7" width="1.94" height="1.73" transform="translate(-257.73 485.86) rotate(-64.15)"/>
  <rect class="cls-1" x="312.75" y="416.88" width="3.24" height="1.15" transform="translate(-205.34 472.21) rotate(-59.03)"/>
  <path class="cls-1" d="M572.45,283.52c.26.26-1.43.84-1.49.47-.09-.54-.17-1.3-.25-2.26l1.73,1.79Z"/>
  <rect class="cls-1" x="579.79" y="293.07" width="1.54" height="2.15" transform="translate(3.43 594.95) rotate(-54.4)"/>
  <circle class="cls-1" cx="391.62" cy="248.56" r=".92"/>
  <path class="cls-1" d="M344.38,253.09l.89-3.09c.76,1.07.63,2.57-.89,3.09Z"/>
  <path class="cls-1" d="M296.36,153.52c-.15,0-1.14.02-1.39,0-.38-.02-.4-1.24-.22-1.57.22-.42,1.32.8,1.61,1.56Z"/>
  <circle class="cls-1" cx="531.8" cy="408.74" r=".92"/>
  <path class="cls-1" d="M545.99,250.69c-.62-.43-1.04-1.5-.82-2.35.61-.02.95.85.82,2.35Z"/>
  <path class="cls-1" d="M345.96,244.55c-.42-.55-.17-1.55.65-2.41.42.55.17,1.55-.65,2.41Z"/>
  <circle class="cls-1" cx="179.03" cy="203.37" r=".85"/>
  <path class="cls-1" d="M306.77,148.33c-.01-.23,1.16-.02,1.15.22l-.04,1.19c0,.24-1,.58-1.01.34l-.1-1.75Z"/>
  <path d="M280.87,351.53l-3.21-.84c-.79-.21.64-2.51,1.44-2.52s1.71,1.04,2.56,2.24l4.19.17-1.14-3.51c-2.04-1.2-3.84-2.8-4.96-4.98.65-.79,2.27-2.14,2.95-2.49.91,1.35,1.4,2.71,2.76,2.89,2.7.35-3.14-4.71-3.35-6.42l-3.62-2.5c-.08-1.81-.41-2.14-1.78-4.1l5.82,1.07c.05,1.54.35,2.36,1.69,3.08l.17,2.05c4.17-1.54,4.59,1.99,6.39,3.44l6.49,5.21c.63.51,2.37-.14,2.7-.84s-.08-2.77-.98-2.97c-2.06-.45-2.05-2.77-2.85-4.3l-6.03-11.6-3.01-5.39-3.59-7.49-2.6-5.95-2.77-6.76c-1.77-4.33-2.12-9.1-4.1-13.45-.62-1.38-.24-2.76-.53-4.41l-1.37-8.02,5.04,14.42,2.34,6.71c.5,1.42,1.79,3.56,2.76,4.25,1.6-.85,2.56-1.17,4.53-1.64.54-.26-.72-1.59-1.34-2.55-.93-1.44-2.23-4.4-2.81-5.9-.18-.48.65-2.38.16-2.52l-2.52-.71c-1.12-.32-.84-3.47-1.42-4.46l-3.15-5.39,3.86.12c.94-10.06-7.35-5.14-6.18-13.84l.7-5.22c-1.87-.13-2.94-.84-3.01-2.3-.1-2.3.98-2.88,3.3-2.97.9-.03,2.72-.3,3.05.35.44.88.73,2.43.99,3.42l2.04,7.69,1.81,5.04c.8,2.21,1.14,3.78,2.68,5.49l.77-3.92c1.24,1.03,2.36,3.89,1.93,5.53-1.14.11-2.72.36-2.88.55,2.94,3.98,6.4,12.93,7.86,17.4.83,2.56,2.09,4.68,3.43,6.97,1.92,3.27,2.9,6.91,4.12,10.63.69,2.11,3.14,3.99,4.16,5.96,5.44,10.56,4.21,14.73,8.17,24.89,1.66,4.26,4.23,8.38,6.49,12.22.53,5.44-2.97,11.05-3.18,16.46-.26,6.68-.69,18.41-4.33,24.81l-3.5-6.74c-.45.98-.81,1.99-1.3,2.34-.6.42-2.55.03-3.12-.41l-1.64-1.27c-.42-.33.8-1.82.73-2.35-.28-2.22-4.04-3.15-6.44-2.13-1.67-.22-4.22-2.26-5.77-2.89l-5.17-2.09,3.13-1.73c3.69-2.04,6.15,4.71,7.21-1.2.28-1.58,2.57-1.72,3.98-.49l-2.22,2.98,8.45.11c.08-2.72,1.42-3.54,3.55-3.6s2.62,1.81,2.96,4.39c2.46-1.99.19-3.75-.21-5.5-.29-1.29-.18-2.97-1.2-3.26-1.31-.38-3.37.49-3.78,1.79-.16.51-.85,1.38-1.18,1.67s-1.7.12-1.67-.25l.35-2.73c.12-.95-18.95-4.47-18.21-4.42l-13.52-.91c-.18-.73.07-2.88.63-3.6s2.49-1.14,3.76-1.61c.18-.84-.52-3.06.12-3.67.79-.75,2.02-1.3,3.59-2.06l-1.77-1.36,1.55-.53c.33-.12.37-1.45.02-1.54ZM290.93,312.93l-.22-4.64c-4.84-1.37-1.65-6.06-3.17-9.17l-4.17,1.39,3.7,8.51c.85,1.94.87,3.74,3.86,3.9Z"/>
  <path d="M185.61,374.51l-11.42-3.84c-.37-.12-1.2-.97-1.44-1.13-.31-.22.72-1.25,1.14-1.11l13.17,4.4c.47.16-.98,1.84-1.45,1.68Z"/>
  <path d="M281.39,405.92l-5.67-1.43c-.51-.13-1.23-.7-1.52-1.12s.51-2.35.99-2.21l6.78,2.11c.33.1.92,1.08,1.1,1.37.24.39-1.16,1.4-1.67,1.27Z"/>
  <path d="M153.53,359.38c.67,1.87-15.13-4.33-15.46-4.49-.26-.12.28-1.27.66-1.15,4,1.3,10.45,3.29,14.8,5.64Z"/>
  <path d="M326.8,401.02c.02.97-.8,3.27-1.9,3.72-.68.28-2.28-.56-2.81-1.05-.61-.57-1.01-2.7-.44-3.29,1.22-1.26,2.96-.42,5.15.62Z"/>
  <path d="M273.11,374.12c-.75-.19-2.37.68-3.11.61-.84-.08-2.33-1.69-2.34-2.48,1.61-.79,2.85.21,4.36,1.54l.72-3.37c1.55.72,3.48.95,6.38,1.1.38.62-.41,2.11-1.45,3.06-.81.74-2.99-.05-4.54-.45Z"/>
  <path d="M246.19,390.2c-3.09-.96-6.26-1.83-8.86-3.51,3.5-1.46,7.09.78,10.02,1.91.49.19-.62,1.77-1.16,1.6Z"/>
  <rect x="180.74" y="361.48" width="1.75" height="13.83" transform="translate(-225.21 424.92) rotate(-71.67)"/>
  <path d="M258.5,394.38l-6.06-2.28c-.29-.11-.88-.77-1.07-.99-.25-.29,1.44-.88,1.83-.76l5.93,1.8c.42.13,1.32,1.03,1.2,1.46s-1.4.94-1.83.78Z"/>
  <path d="M284.11,401.98l-6.59-1.41c-.47-.1-1.65-1.15-1.32-1.47s1.56-1.15,2-1.02l5.09,1.51c.4.12.68,1.09.83,2.4Z"/>
  <path d="M294.38,405.42c-2.04-.69-4.01-1.26-5.46-1.33-.57-.03-.73-1.88-.25-2.21.58-.4,1.98-.46,2.63-.17l4.05,1.82c.64.29-.36,2.1-.97,1.89Z"/>
  <path d="M319.87,400.09c.07.67-1.89,1.42-2.54,1.2-.76-.26-1.59-1.32-2.09-2.32-.36-.72.77-2.36,2.03-2.46,1.05-.09,2.49,2.34,2.61,3.58Z"/>
  <path d="M270.96,398.3l-5.71-1.88c-.37-.12-1.01-1.33-.66-1.5s1.56-.53,1.92-.4l4.82,1.7c.41.14,1.15.78,1.44,1.06s-1.35,1.16-1.79,1.02Z"/>
  <path d="M273.89,356.46c-1.38-.76-1.15-4.15.48-4.5,1.54-.33,3.16,1.39,2.87,2.47-.43,1.57-1.67,2.96-3.34,2.03Z"/>
  <path d="M278.95,335.41c1.4.77,1.25,6.33-.3,6.04-2.09-.34-2.3-4.25-1.56-5.56.18-.32,1.53-.66,1.85-.48Z"/>
  <path d="M308.68,398.56c-.78.18-2.14.23-2.57.01-.53-.28-1-1.39-.97-2.16.04-.85,2.11-1.54,2.85-1.15.88.45,1.6,3.09.68,3.3Z"/>
  <path d="M315.95,406.34c-.39.07-1.71-.67-2.14-1.11s-.28-2.24.3-2.48c1.38-.58,3.19,1.83,1.84,3.59Z"/>
  <path d="M301.04,397.31c-.82,1.07-1.41,1.67-1.89,1.63s-1.59-.85-1.49-1.22c.54-.82,1.58-.91,3.38-.42Z"/>
  <rect x="273.77" y="340.7" width="1.86" height="2.96" transform="translate(-143.66 209.82) rotate(-33.69)"/>
  <rect x="287.24" y="393.34" width="1.87" height="1.96" transform="translate(-199.38 422.95) rotate(-57.2)"/>
  <path d="M219.46,381.04c-1.04-.18-1.89-.91-2.74-1.98,1.06-.28,2.38.29,2.74,1.98Z"/>
  <path d="M315.41,330.22c-.81.11-2.02.11-1.98-.27l.28-2.37c.53.68,1.1,1.58,1.7,2.64Z"/>
  <path d="M313.99,321.63l1.45-.3c.24-.05.59.9.36.99l-.97.37c-.34.13-1.2-.98-.84-1.06Z"/>
  <path d="M367.44,437.38l-4.74-.59,2.71-4.82c.39-.69,1.67-1.47,2.51-1.61s2.37,1.42,1.95,2.24l-2.44,4.77Z"/>
  <path d="M365.03,425.46c.72.59-.86,2.57-1.9,2.51-1.43-.09-3.25-1.14-2.62-2.75.67-1.71,2.63-1.31,4.52.25Z"/>
  <path d="M357.94,423.49c.27,1.46-1.67,2.26-2.55,1.95-1.25-.44-2.85-1.45-2.17-2.64.8-1.41,4.46-.73,4.72.69Z"/>
  <path d="M371.78,427.45c.49.38-.32,2.52-.95,2.45l-2.59-.27c-.76-.08-.74-2.57-.11-2.99.68-.46,2.78.13,3.65.81Z"/>
  <path d="M373.71,424.14c.22-.2.89.73,1.07.96.24.31-.34,1.41-.69,1.22l-1.2-.65c-.36-.2.32-1.09.81-1.53Z"/>
  <path d="M323.68,208.29l-5.18-2.88c-.38-.24-.11-1.87.36-1.99,1.33-.35,4.32.89,5.28,1.48.62.39-.06,2.81-.46,3.39Z"/>
  <path d="M330,228.01c-.21,1.92-3.8,1.95-4.33.4-.46-1.33.79-3.13,2.07-4.43.84.71,2.39,2.88,2.26,4.03Z"/>
  <path d="M458.09,446.51c-.41-2.22.34-3.69.8-5.71l1.4-6.08,4.77-2.47c1.98-1.02,4.43-.59,5.5,1.2l-1.44,4.74c-1.41,4.65-6.07,7.04-11.03,8.33Z"/>
  <path d="M247.24,428.87c1.01-1.45,4.68,4.42,2.73,4.12-1.57-.23-2.83-2.52-2.73-4.12Z"/>
  <circle cx="246.48" cy="433.26" r=".9"/>
  <path d="M519.5,394.04c-.01-.26,1.15-.03,1.15.21l-.04,1.19c0,.24-1,.58-1.01.34l-.1-1.74Z"/>
  <rect x="362.73" y="108.18" width="2.04" height="2.68" transform="translate(-3.71 13.17) rotate(-2.06)"/>
  <path d="M293.01,136.91c.07.96-.78,2.79-1.92,3.38-.64.33-1.05-2.05-.81-2.75s1.94-1.02,2.73-.63Z"/>
  <path d="M294.1,131.92l-1.2.34c-.32.09-.07-.96.14-1.22.12-.16.91-.54,1.1-.48l.66.2c.32.1-.42,1.08-.7,1.16Z"/>
  <circle cx="538.51" cy="382.54" r="1.34"/>
  <path d="M382.17,265.17c0-.33,1.83-.42,1.78-.09l-.21,1.32c-.07.43-1.56-.8-1.57-1.23Z"/>
  <path d="M321.9,188.73c-.92-.23-1.86-2.39-1.08-3.11.34-.31,1.84.53,1.71.99l-.62,2.13Z"/>
  <path class="cls-1" d="M290.93,312.93c-2.99-.16-3.01-1.96-3.86-3.9l-3.7-8.51,4.17-1.39c1.52,3.1-1.67,7.79,3.17,9.17l.22,4.64Z"/>
</svg>