<?xml version="1.0" encoding="UTF-8"?>
<svg id="Layer_1" data-name="Layer 1" xmlns="http://www.w3.org/2000/svg" viewBox="0 0 738.52 724.45">
  <defs>
    <style>
      .cls-1 {
        fill: #1d1d1d;
      }

      .cls-2 {
        fill: #00fdfd;
      }

      .cls-3 {
        fill: #fefefe;
      }
    </style>
  </defs>
  <path class="cls-1" d="M737.7,336.31c-10.36-158.7-125.22-288.7-278.53-326.2-20.54-5.02-41.2-8.26-61.78-9.78-2.99-.03-5.99-.06-8.98-.07-12.5-.06-25.01.22-37.51-.14-1.24-.04-2.49-.08-3.73-.12C221.16,7.56,104.13,78.29,42.43,193.2c-58.84,109.58-56.32,241.76,6.52,349.04,33.77,57.65,82.9,105.02,141.77,136.94,111.79,60.61,247.65,60.36,359.18-.69,61.26-33.53,112.1-83.66,145.91-145.73,32.92-60.44,46.31-128.7,41.89-196.43ZM614.63,327.64c.14,2.57-1.07,2.86-1.23.54.13-1.15.66-1.59,1.23-.54ZM259.8,231.94c.35,0,.63.28.63.63s-.28.63-.63.63-.63-.28-.63-.63.28-.63.63-.63ZM248.31,230.08c.28,0,.5.22.5.5s-.22.5-.5.5-.5-.22-.5-.5.22-.5.5-.5ZM243.81,223.95c.35,0,.63.28.63.63s-.28.63-.63.63-.63-.28-.63-.63.28-.63.63-.63ZM216.33,185.13c.28,0,.5.22.5.5s-.22.5-.5.5-.5-.22-.5-.5.22-.5.5-.5ZM185.36,153.18c.28,0,.5.22.5.5s-.22.5-.5.5-.5-.22-.5-.5.22-.5.5-.5ZM166.87,129.07c.35,0,.63.28.63.63s-.28.63-.63.63-.63-.28-.63-.63.28-.63.63-.63ZM163.37,128.21c.28,0,.5.22.5.5s-.22.5-.5.5-.5-.22-.5-.5.22-.5.5-.5ZM158.37,121.22c.28,0,.5.22.5.5s-.22.5-.5.5-.5-.22-.5-.5.22-.5.5-.5ZM153.88,115.09c.35,0,.63.28.63.63s-.28.63-.63.63-.63-.28-.63-.63.28-.63.63-.63ZM150.38,97.25c.28,0,.5.22.5.5s-.22.5-.5.5-.5-.22-.5-.5.22-.5.5-.5ZM34.97,327.06c-.61,0-1.11-.5-1.11-1.11s.5-1.11,1.11-1.11,1.11.5,1.11,1.11-.5,1.11-1.11,1.11ZM46.4,360.89c-.79-1.05-.6-2.27-.18-4.06,1.15.57,1.07,1.7.18,4.06ZM54.45,362.54c-.35,0-.63-.28-.63-.63s.28-.63.63-.63.63.28.63.63-.28.63-.63.63ZM65.94,354.41h-1v-13.48h1v13.48ZM115.33,359.89c-.71-1.43-.71-3.01-.04-5.05,1.05,1.07.93,2.43.04,5.05ZM150.6,348.84c-2.11,2.53.37,5.92-1.02,8.88-.58,1.24-3.16,1.33-3.05,2.68.13,1.59.38,2.76.26,4.57-3.27.46-.5-6.12-2.38-7.04-1.84-.9-2.91,3.15-4.85,2.63-.67-.18-1.68-.98-2.49-.67l-.61,11.09c-4.13-9.36,2.38-25.79-5.31-26.21-1.34,4.55,1.68,8.68-1.68,13.01-1.5-9.68-.67-18.37.63-27.83,4.13-30.23,13.59-58.57,28.09-85.39,10.54-19.51,23.58-36.33,39.12-51.98,1.2-1.21,2.23-2.24,2.33-3.65-1.28-.02-2.28.43-3.43,1.62-44.19,45.92-68.12,100.53-71.14,164.82-3.55-4.09.07-8.34-2.12-12.76-2.81.8-.92,3.61-1.09,5.46l-1.33,13.9-1.98-17.16-1.73,7.14-3.94-1.43c-.33,4.31.78,7.56-.51,11.47-1.62-8.5-1.31-17.04-1.02-26.15,7.4-54.26,22.44-91.4,54.59-136.12-26.76,29.71-42.6,67.77-52.31,106.05-.49,1.92-2.63,3.16-.79,5.49-3.22,14.71-3.85,29.03-5.46,44.54-4.1-5.86.65-11.58-2.04-16.97l-.75,13.68-3.01-6.64c-3.29,5.59-.42,11.26-2.23,17.08l-1.3-16.06c-.16-2.01,3.16-9.16.32-7.98-3.29,1.37.79,11.78-2.56,15-2.31-5.65.15-10.5-1.08-16.22-2.27,3,.09,6.6-.94,9.95-1.77,5.74-1.65,11.14-2.1,17.4-1.58,1.31-1.27-15.59-5.17-9.29-2.89,4.68.31,10.7-4.21,15.89.85-9.58-.12-18.43.68-27.76l1.28-14.95c1.1-12.79,3.03-25.28,6.69-37.38l3.63-12.01,3.2-10.69c2.25-7.5,6.85-14,6.78-22.48-12.63,24.76-18.86,51.21-22.57,78.38-.49,3.56-1.9,6.45-1.28,10.46.08.55-4.31,5.83-3.51-12.23-2.46,7.16-3.04,14.24-3.72,22.04-2.59-11.63.43-10.6.08-18.27-5.07.75.25,7.4-3.2,13.29l-.91-8.67c-.99-9.51,3.48-11.38-2.89-6.54,1.91-10.84,2-19.25,5.4-30.03.62-1.98,1.09-3.32,1.47-5.35,5.47-29,18.35-54.78,31.3-81.69-18.1,27.15-28.24,58.48-36.23,89.68-.61,2.38-1.04,3.31-1.39,5.88l-3.76,27.66-2.84,35.98c-1.43-5.43-.6-10.23-1.04-15.12-2.18,6.58-.89,12.56-2,19.12l-.97-15.89c-2.05-.52-.73,2.04-2.51,2.87-1.29-2.83.6-6.52-2.81-8.54-2,6.23-.41,11.66-1.75,17.58l-1.18-20.14c-2.79,2.47,0,5.74-2.17,8.75-2.01-3.27.61-6.28-1.62-8.76-2.26,2.3,1.07,4.8-1.82,6.74-1.75-3.14.93-6.01-1.57-8.93-3.08,2.11-1.28,5.39-2.71,8.43-2.46-8.84-.39-17.87,0-27.03.26-6.1,1.99-11.28,2.55-16.83,1.9-18.88,8.88-35.78,11.98-55.1-8.72,17.21-10.9,35.83-14.82,54.1-1.06,4.93.2,9.79-3.36,14.65-1.6-3.43-.31-6.58-4.05-8.07-1.87,2.65,0,5.57-1.68,8.91-2.67-4.4-.31-8.45-1.39-12.65-2.6,1.41,0,4.04-2.11,6.09-2.49-4.78-.6-9.55.34-15.26-4.2,2.39-1.97,6.82-3.39,11.16-.9-3-1.71-6.83-1.73-10.1,0-1.52,3.69-2.67,1.45-5.42-3.52-4.31-6.78-10.33-5.38-16.67,17.23-78.09,60.04-147.76,123.01-198.39l1.08,7.87c.1.76,1.19,1.52,1.79,1.82,1.08.55,1.76-1.44,4-.82l-4.88,5.09c1.12,1.55,2.46-.16,4.63-.89,0,1.92-1.91,2.79-2.57,4.7,1.4-.54,2.55-1.2,4.24-.87-.32,1.69-1.5,2.31-2.19,3.73l5.38,4.27c-14.04,13.52-28.74,25.64-39.95,42.51,11.89-11.89,22.88-24.85,36.13-35.96.97-.81,1.99-1.44,3.38-1.62l-3.1,6.48c2.54.41,3.03-1.84,5.21-2.01-.06,2.36-2.15,2.81-.95,4.67,1.73-1.21,2.89-3.09,4.98-2.55-1.54,3.35-4.76,3.84-5.31,7.36,2.5-1,3.25-3.69,6.32-3.02-.6,1.67-2.36,2.22-1.76,4.13,2.41-.52,2.94-2.77,5.33-2.91-.07,1.57-1.22,2.08-1.62,2.72-.86,1.37,2.17,2.47,1.73,3.15l-3.36,5.15c3.21-1.56,3.92-5.98,8.04-3.99-18.29,16.24-33.53,34.09-47.84,53.48,3.13-.76,4.47-3.6,6.2-5.88,7.94-10.48,16.23-20.09,25.55-29.39,1.49-1.49,2.67-2.64,4.58-2.46.57-.92,1.05-2.74,3.02-2.83-.7,1.03-1.18,1.64-.82,2.62,4.26-2.87,7.77-6.57,12.38-9-.59,1.43-1.27,1.62-1.5,1.96-.42.63-1.11,2.23.4,2.35.73.06,1.62-.89,3.2-1.02.13,2.68-3.1,2.93-3.54,5.75,2.15-.19,2.75-2.51,5.14-2.86.87-.13,1.41,1.97,1.58,2.69.3,1.24-1.28,2-2.15,4.04,2.06.07,4.09-.09,7.1-.33-.13,2.14-2.51,3.06-3.04,5.19,1.61.5,2.41,2.26,3.27,2.09,1.52-.29,2.14-2.39,4.5-2.57l-3.56,6.12,6.98-4.22c-.16,1.69-1.37,2.53-1.23,3.79,1.41-.75,2.92-.56,4.36-.5-1.79.79-2.2,2.59-3.82,3,.15.7.13,1.36.12,2.44l5.51-2.69-3.67,6.2c3.13-.71,3.11-4.38,6.07-3.07-2.2,4.8-7.47,6.59-10.49,10.49-6.31,8.14-14.97,13.86-19.15,23.85,10.07-9.48,28.16-33.13,39.75-36.56.28,2.04-1.62,2.38-2.31,4.32,1.82.16,2.68-1.66,4.8-1.19.24,1.64-1.7,1.59-1.92,2.96,0,.48,1.43.92,2.09,1.2.62.27.27,1.6.49,2.5,1.45.84,3.28-.38,5.34.5-3.35,3.76-8.21,5.98-10.73,10.95,2.65.07,3.76-2.14,5.94-3.36,2.22,2.17,3.34,4.96,6.66,5.53-1.04,2.2-2.16,3.93-3.71,5.5,2.02.45,2.54-1.3,3.28-.93.49.24.51,1.1.96,2.66,1.81-1.56,3.56-.24,4.85.82,1.64,1.36,1.2,3.37,1.63,5.43,2.26-1.06,3.33-3.5,5.31-2.25-2.18,3.38-5.19,4.05-6.78,7.53.23.06.44.09.64.12-24.75,17.94-53.15,66.49-59.43,95.37-3.55.7-1.45,3.45-1.91,5.19-6.24,23.75-6.26,40.9-8.11,62.84-3.58-7.38-.29-13.72-1.78-20.95ZM163.87,137.7c0,.28-.22.5-.5.5s-.5-.22-.5-.5.22-.5.5-.5.5.22.5.5ZM162.87,139.69c0,.28-.22.5-.5.5s-.5-.22-.5-.5.22-.5.5-.5.5.22.5.5ZM160.71,141.12c0,1.29-.68,2.46-2.82,1.57.8-.61,1.83-.6,2.82-1.57ZM230.91,359.46c-.86-.56-.02,1.41-2.02,2.67-1.65-.45,1.37-17.43-3.32-16.12-4.12,1.15.09,10.24-2.81,11.69-2.35-4.14.36-7.67-1.26-11.93l-1.83,6.74c-2.12-2.55.03-4.7-1.23-8.06-.84,1.78-5.21,1.96-5.39,3.44l-1.71,14.06c-1.32-3.83.42-7.39-1.66-11.01l-1.93,5.27-1.91-5.32c-2.51,4.64-.52,9.04-1.61,14.23-2.1-.18-1.28-2.13-2.29-3.07-2.28,1.04.38,18.26-2.99,12.4-.2-.35.89-.95,1.12-1.81-1.75-18.45-.55-36.66,4.96-54.45.74-2.38,2.11-3.59,2.3-6.74.48-8,5.38-14.64,8.06-21.93,3.15-8.57,8.33-16.02,13.18-23.7.85-1.35,1.71-2.31,1.37-3.63-17.65,19.96-28.24,46.48-31.41,72.83l-2.51,20.91c-.58,4.83,1.07,9.67-.75,14.04-1.3-7.79.9-15.01-1.77-22.45-3.33,2.95-.59,6.42-2.36,10.05-2.96-2.61.3-5.79-1.89-8.75l-1.8,14.18c-2.44-6.11.41-11.46-1.08-17.8-3.39,2.66-.4,6.48-1.82,9.34-.46.93-2.29.51-2.38-.12-.15-1.07.44-2.31-.94-3.55-1.77,5.35-.59,10.98-1.85,17.11l-1.12-21.33c-2.35,3.77-.75,7.33-1.87,11.11-5.8-1.51,2.3-8.81-2.38-12.88-2.44,1.78-1.45,4.18-1.75,6.81-1.64.72-1.54-1.68-4.15-2.26l-1.78,20.54c-1.06-1.41.66-21.81-4.71-19.67l-1.19,16.67-2.04-15.14-1.15,19.16-1.07-19.06,1.74-24.06c5.15-.92,1.72-4.24,2.07-6.29,7.64-44.83,30.25-82.61,62.01-115.17,2.41.18,2.97-2.16,4.9-2.58,1.59,1.33,2.98,1.83,4.85,1.72-2.16,2.61-1.14,3.75.29,5.02,1.61,1.43,2.46-.91,4.41-1.29.22,1.45-1.99,2.59-1.36,3.08l1.82,1.41c.92.71.45,3.01,1.61,3.35,1.48.44,2.57-.91,4.31-.7-1.32,1.31-3.68,2.52-3.78,4.77-.04.9,1.9,1.59,1.67,2.27-.34.98-1.24,1.72-2.19,2.62-1.13,1.65-.14,2.24,1.35,1.01.69-.59,1.75-1.66,2.57-1.37,1.18.42.08,1.84-.66,3.94l3.81-1.08c-.49,2.5-2.9,3-2.43,4.87,2.44-.24,3.03-2.44,4.72-1.09-1.38,1.72-3.27,3-2.67,5.21,3.08-1.2,4.6-4.63,8.72-4.49-3.62,5.7-9.33,7.9-10.92,13.12,2.84.21,9.62-10.28,15.71-12.32l-2.63,4.96c2.68-.77,3.78-2.59,6.04-2.25-.81,2.41-3.16,2.18-3.28,4.48,2.08.04,3.06-1.39,5.1-.7-1.29,1.26-2.63,1.82-3.42,3.99l3.28,1.16c-3.25,2.98-5.99,6.32-8.82,10.04,2.23-.41,2.53-2.56,5.27-2.65.42,1.8-1.42,2.37-1.23,4.3,2.38-1.09,3.17-2.89,5.59-2.99l-2.07,4.8c1.7.01,2.47-1.27,3.77-.84-.22,1.09-2.35,2.71-1.7,3.29,1.06.94,2.13,2.02,2.98,2.19,1.04.21,5.94-5.68,4.29-1.03-1.35.71-1.49,1.83-.54,2.37,1.51-1.5,3.01-3.41,4.81-1.95-27.38,26.45-42.12,61.15-43.14,97.96-1.48-.65-1.67-1.3-2.08-1.57ZM263.8,250.55c0,.28-.22.5-.5.5s-.5-.22-.5-.5.22-.5.5-.5.5.22.5.5ZM261.93,252.05c0,.35-.28.63-.63.63s-.63-.28-.63-.63.28-.63.63-.63.63.28.63.63ZM368.13,478.96c-64.76,0-117.27-52.47-117.27-117.2s52.5-117.2,117.27-117.2,117.27,52.47,117.27,117.2-52.5,117.2-117.27,117.2ZM502.12,436.81c-.28,0-.5-.22-.5-.5s.22-.5.5-.5.5.22.5.5-.22.5-.5.5ZM510.49,441.41c-.5-.84-1.55-.34-2.81-.09l.88-4.79c-.39-.65-1.96.44-2.35-.1-.66-.91-.21-2.47-.84-3.68l-1.71,1.89c-.52.57-5.53-5.58-4.06-6.95-1.54.61-.94,1.92-2.41,3.22l-3.01-6.11c-1.89,1.49-2.21,3.4-3.75,4.05l-.82-2.26c-.2-.55-.48-1.15-.88-.18-.29.71-.5,1.62-2.51.99,14.01-27.54,20.19-57.97,14.68-89.68-.28-1.6.36-2.49.41-3.27.04-.66.88-.68,1.34.16.23.42.41,1.09.85,2.88.57-1,.91-1.91,1.88-2.42,1.01,1.24,1.2,2.33,1.63,3.06.47.79,2.94,1.26,3.06.56l1.01-5.81,2.06,5.13c1.58-2.01.29-3.98,2.1-5.39.83,3.19.36,5.69,2.66,6.89.99-1.43.74-2.93,1.11-4.61l3.23,7.64c.82-3.76-1.4-6.98,1.12-9.72.45,3.26-1.03,7.41,2.9,7.96,1.09.15-.26-4.43,1.57-3.46.62.33.86,1.19,1.44,1.61.13-2.24.37-3.74.74-5.79,1-.13,1.36.56,2.09,1.78,1.11-.83.54-2.41,2.21-4.05,3.45,13.77,3.32,39.66,1.38,54.37-2.57,19.49-8.64,38.39-17.87,55.36-2.79.05-5.11.39-6.31,3.2-.8-1.01-.6-1.69-1.02-2.39ZM523.11,463.41c-.35,0-.63-.28-.63-.63s.28-.63.63-.63.63.28.63.63-.28.63-.63.63ZM540.1,478.75c-.28,0-.5-.22-.5-.5s.22-.5.5-.5.5.22.5.5-.22.5-.5.5ZM542.09,482.75c-.28,0-.5-.22-.5-.5s.22-.5.5-.5.5.22.5.5-.22.5-.5.5ZM590.06,520.33c-.35,0-.63-.28-.63-.63s.28-.63.63-.63.63.28.63.63-.28.63-.63.63ZM623.53,546.78c-.61,0-1.11-.5-1.11-1.11s.5-1.11,1.11-1.11,1.11.5,1.11,1.11-.5,1.11-1.11,1.11ZM627.03,547.66c-.28,0-.5-.22-.5-.5s.22-.5.5-.5.5.22.5.5-.22.5-.5.5ZM628.53,552.77c-.61,0-1.11-.5-1.11-1.11s.5-1.11,1.11-1.11,1.11.5,1.11,1.11-.5,1.11-1.11,1.11ZM641.52,569.75c-.61,0-1.11-.5-1.11-1.11s.5-1.11,1.11-1.11,1.11.5,1.11,1.11-.5,1.11-1.11,1.11ZM721.28,429.36c-1.08,5.02-.11,11.56-3.2,15.89-1.59,2.23.3,2.65-.19,4.76-10.93,47.87-33.25,91.89-62.95,130.81-.66.86-1.6.73-1.92.97-4.64,3.6,1.24-2.54-.4-5.31-1.14-1.92-1.52-1.11-3.73-.96-.71.05-1.95-1-2.72-1.12-.27-.04,1.61-9.19,1.01-11.37-2.66,1.16-2.17,3.33-4.22,3.74-1.13-3.36-3.27-4.82-5.57-7.14,2.35-3.43,20.13-28.06,18.3-29.62-.53-.45-1.5-.07-2,.77-4.73,8.02-9.35,15.82-15.25,23.06-2.26-1.23-1.11-2.62-.86-5.25-2.03.94-2.38,2.55-4.25,3.83-.84-1.8-2.15-2.88-3.94-3.6.55-1.59,2.08-2.62,1.69-4.04-.83-.17-1.83.79-2.45.94-1.01.25-1.09-1.05-1.18-2.2-1.13-.08-1.78,1.04-3.22.64-.05-2.83,1.63-3.45,2.24-5.46-2.23.45-2.56,2.09-4.41,2.87l-1.06-2.8c-2.79,1.39-3.92,3.58-4.93,6.04-2-2.34.11-3.38,1.01-4.78,9.82-15.28,20.52-29.9,26.58-47.41-11.11,18.43-20.29,37.46-34.29,53.54-1.62-1.77.36-2.64.08-3.97-3.16-.06-5.4-2.78-5.49-5.43-1.64.51-2.68,1.02-3.22.33-.98-1.24-1.53-2.34-.61-3.79,8.81-14.01,19.55-26.73,24.7-42.81l-19.89,32.18c-1.57,2.55-4.29,5.21-7.14,3.61.05-1.7,1.53-4.67-.54-6.48-1.59-1.39-3.46-2.72-6.21-1.21-.03-3.33,2.12-3.71,2.38-5.99l-5.59,4.29c-.58-2.3,1.44-3.13,1.51-5.15-1.91-.09-2.28,1.45-4.01,2.11-.57-1.08.61-1.82.12-3.74-1.66.07-2.22,3.17-4.3,1.92,7.08-12.94,16.53-23.46,20.41-38.14.66-2.7-29.07,52.21-27.11,38.24.13-.92.34-2.08,2.19-2.94.09-2.14-2.06-1.99-2.43-.02-.19,1.02-.86,1.5-1.29,1.53-3.03.25.94-3.51-.18-4.98l-3.76,2.63c-.16-1.43,1.22-3.02.2-4.13-.62-.51-3.45.94-3.64-.37,5.2-11.02,14.35-19.41,17.35-31.77-7.92,8.67-10.23,19.87-18.79,27.93-1.16-2.76-.88-5.8-2.37-8.16l-4.03,4.07c-.89-2.46,1.56-3.25,1.74-5.46-.4-1.37-2.09.06-2.95,1.12-1.53-1.43.15-2.89-.07-4.47-1.03,0-2.67.26-3.47-.87-5.53,5.48.57-5.42-.87-4.35-1.41-.05-1.35,1.52-1.89,1.43-.75-.13-1.25-.85-2.31-1.64-1.04.74-.51,3.13-3.06,2.98l10.01-17.66c5.5-9.7,11-19.77,13.28-30.59-8.14,15.76-13.84,31-24.63,44.85-2.28-1.57,1-2.67.49-4.85-.24-1.04-1.72.33-2.07-.06-.75-.86-.15-2.02.61-3.23-1.68-1.58-4.12-1.09-6.05-1.99,1.63-2.88,1.06-3.93-.73-5.07-1.88-1.2-3.29-1.76-5.31-.22.35-3.43-1.84-5.33-2.6-8.31-1.75,1.73-2.09,3.79-3.93,3.62-.38-.75.01-2.65-.69-2.92-.46-.18-1.11.92-2.06,1.54-.43-.77-.5-1.84-1.27-2.63-.45-.47-1.48-.29-2.4-.24.36-1.93,1.39-3.14.83-4.83-2.43.72-2.51,3.93-6.22,3.56,20.17-32.83,31.06-72.61,26.78-111.08-.54-4.87-1.78-9.32.34-13.68.38,2.77,1.81,4.45,1,8.53,2.14-.36,1.96-3.07,2.69-5.47,2.51-.1,1.13,2.31,2.17,4.14l2.16-7.27c.99,2.93-.05,5.56,2.5,7.72,1.59-1.23.78-2.77.95-4.57,1.77-.21,1.81,1.22,2.66,2.22,1.63-1.85.45-3.2.84-5.06,1.85,1.03,1.45,3.07,2.48,4.87.94-2.53.28-4.86,1.52-7.1l1.18,6.45,4.62.26c-.62,2-1.86,2.85-1.79,3.89.09,1.41,1.76,1.47,2.91,1.28,3.2-.53.26-7.94,2.71-9.18,1.41,2.96,2.46,5.41,4.52,7.61l4.35-1.25c.87-3.65-1.32-6.83.77-10.16,3.83,21.03,3.43,48.08.54,68.39-.53,3.75-2.96,7.46-.4,10.92,4.74-20.14,6.36-39.9,4.96-59.99-.36-5.24-1.98-9.91-.71-15.3,2.16,4.12,2.35,8.1,5.45,11.29.83-3.69-.93-6.51,1.45-9.83,2.44.47-.12,6.84,1.52,7.67.82.42,2.28.37,2.62-.7l2.35-7.38c1.78,3.27-1.7,7.2,3.15,8.74-.07-4.88-2.14-8.72-.19-12.72,1.49,3.91-.04,7.36,1.86,10.98,2.45-1.5,3.17-2.76,5.35-2,.53-1.99-1.19-3.84,1.34-5.07l1.83,25.17c1.04,14.28-3.73,30.61.49,33.31,2.54-18.85,1.58-36.27.91-54.29-.07-1.79.11-3.72,1.83-4.27,1.15-.37,3.27-1.46,4.18.59.74,1.67-.04,3.76,1.81,4.98l.56-7.69c3.34.52,1.23,3.17,2.83,5.42l.85-10.35c2.22,3.27,2.7,7.23,2.66,11.34-.05,4.63,1.17,8.73,1.68,13.14,1.13,9.87-.89,19.46.94,28.85.49-15.54.63-30.43,0-45.79-.16-3.98-2.16-7.72-.1-11.31l1.15,8.29c.09.64,1.31,1.06,1.76.96.66-.14.69-1.37,2.17-2.22.16,3.78.98,7.3.73,11.4,2.09-.53,1.27-2.29,2.69-2.84,2.36,1.83,1.32,4.12,2.32,6.61,2.11-2.38.4-5.17,1.52-8.23,2.27.82.01,3.31,2.44,4.73,1.7-3.9-.21-7.54,1.13-11.71,1.27,4.18,1.08,8.75,5.45,11.31.16-5.08-1.04-9.42,2.64-13.35,1.09,2.48.62,5.41.06,8.23-.35,1.78,1.98,2.8,2,4.29l.68,47.06c5.67-9.82.6-34.63,4.63-46.31,2.28,6.36.06,12.17,3.2,17.26,1.32-2.56.69-5.65,2.56-6.17,2.15,5.44-1.23,9.8,1.46,14.46l1.35-18.8c1.74,8.92.8,17.01,1.62,26.29,2.73-5.19,0-10.32,1.1-17.06,1.81,3,1.82,6.86,1.74,10.83l-.43,21c-.09,4.47-1.56,8.46-1.79,13.06-.41,8.45-2.65,16.47-3.66,24.8-.54,4.43-3.65,8.39-1.67,13.24,8.44-31.01,11.41-62.03,10.1-95.02-.09-2.37.08-4.72.85-7.09,3.04,5.57.58,11.59,2.01,18.16l1.02-14.66,2.6,4.16c1.36-1.42-.42-3.4,2.26-3.84-.58,1.91.61,16.63,2.22,18.64l1.42-12.37c1.2,5.03.9,9.58,1.17,15.3,2.25-.65.75-3.18,2.91-3.48.84,3.01-.69,5.87,2.19,7.63,2.66-3.12-1.13-6.64,2.37-9.99-.14,5.39,1.36,11.25-.12,16.24-1.34,4.5,1.89,5.07,2.85,7.71,2.61,7.23-2.43,35.12-3.9,44.9-.71,4.7-3.48,9.21-1.49,14.33,5.78-14.97,6.12-36.06,9.11-48.71.8-3.39-1.06-6.52,1.09-10.3.79,2.18,3.7,1.9,4.73,3.4.57.83-.61,2.92-.83,3.62-.46,1.5,2.58,1.16,3.01,2.35,1.05,2.92-.57,5.9.99,9.03l1.71-2.13c1.95,4.27.32,7.87.87,12.19l2.4-7.41c1.44,3.12.62,5.82.87,9.28,1.52-.04,1.49-1.57,2.81-1.74.34,1.73-.48,2.94-.62,4.62,3.39,4.8,3.92,9.98,2.71,15.6Z"/>
  <path class="cls-1" d="M201.84,187.13c-.48.52-.52,1.82-2.21,1.8.01-.65.29-1.33.83-1.53.5-.19.95-.23,1.39-.27Z"/>
  <path class="cls-1" d="M242.98,246.2c-1.71,5.6-7.29,8.27-9.63,13.32-.83,1.79-2.7,1.86-3.43,2.69,2.97-6.33,7.43-11.07,11.72-16.05.81.28,1.16.03,1.35.04Z"/>
  <path class="cls-1" d="M201.84,187.13c.08-1.24,1-1.4,1.2-1.8.04.66-.46.99-1.2,1.8Z"/>
  <path class="cls-1" d="M157.07,146.97c-1.83,1.23-1.81,3.97-4.23,4.02.94-1.38,2.08-2.29,2.03-3.81l2.2-.21Z"/>
  <path class="cls-1" d="M186.6,160.93c.06.53.25,1.14.54,2.49-2.58-.33-3.15,2.51-5.61,1.39,1.05-2.01,3.33-2.96,5.07-3.89Z"/>
  <path class="cls-3" d="M154.88,147.18c.05,1.52-1.09,2.43-2.03,3.81,2.42-.06,2.4-2.79,4.23-4.02,4.26-2.87,7.77-6.57,12.38-9-.59,1.43-1.27,1.62-1.5,1.96-.42.63-1.11,2.23.4,2.35.73.06,1.62-.89,3.2-1.02.13,2.68-3.1,2.93-3.54,5.75,2.15-.19,2.75-2.51,5.14-2.86.87-.13,1.41,1.97,1.58,2.69.3,1.24-1.28,2-2.15,4.04,2.06.06,4.09-.09,7.1-.33-.13,2.14-2.51,3.06-3.04,5.19,1.61.5,2.41,2.26,3.27,2.09,1.52-.29,2.14-2.39,4.5-2.57l-3.56,6.12,6.98-4.22c-.16,1.69-1.37,2.53-1.23,3.79-1.74.92-4.03,1.87-5.07,3.89,2.46,1.12,3.03-1.72,5.61-1.39.15.7.13,1.36.12,2.44l5.51-2.69-3.67,6.2c3.13-.71,3.11-4.38,6.07-3.07-2.2,4.8-7.47,6.59-10.49,10.49-6.31,8.14-14.97,13.86-19.15,23.85,10.07-9.48,28.16-33.13,39.75-36.56.28,2.04-1.62,2.38-2.31,4.32,1.82.16,2.68-1.66,4.8-1.19.24,1.64-1.7,1.59-1.92,2.96,0,.48,1.43.92,2.09,1.2.62.27.27,1.6.49,2.5,1.45.84,3.28-.38,5.34.5-3.35,3.76-8.21,5.98-10.73,10.95-.2.4-1.12.56-1.2,1.8-.43.04-.89.08-1.39.27-.54.2-.81.88-.83,1.53-1.28-.02-2.28.43-3.43,1.62-44.19,45.92-68.12,100.53-71.14,164.82-3.55-4.09.07-8.34-2.12-12.76-2.81.8-.92,3.61-1.09,5.46l-1.33,13.9-1.98-17.16-1.73,7.14-3.94-1.43c-.33,4.31.78,7.56-.51,11.47-1.62-8.5-1.31-17.04-1.02-26.15,7.4-54.26,22.44-91.4,54.59-136.12-26.75,29.71-42.6,67.77-52.31,106.05-.49,1.92-2.63,3.16-.79,5.49-3.22,14.71-3.85,29.03-5.46,44.54-4.1-5.86.65-11.58-2.04-16.97l-.75,13.68-3.01-6.64c-3.29,5.59-.42,11.26-2.23,17.08l-1.3-16.06c-.16-2.01,3.16-9.16.32-7.98-3.29,1.37.79,11.78-2.56,15-2.31-5.65.15-10.5-1.08-16.22-2.27,3,.09,6.6-.94,9.95-1.77,5.74-1.65,11.14-2.1,17.4-1.58,1.31-1.27-15.59-5.17-9.29-2.89,4.68.31,10.7-4.21,15.89.85-9.58-.12-18.43.68-27.76l1.28-14.95c1.1-12.79,3.03-25.28,6.69-37.38l3.63-12.01,3.2-10.69c2.25-7.5,6.85-14,6.78-22.48-12.63,24.76-18.86,51.21-22.57,78.38-.49,3.56-1.9,6.45-1.28,10.46.08.55-4.31,5.83-3.51-12.23-2.46,7.16-3.04,14.24-3.72,22.04-2.59-11.63.43-10.6.08-18.27-5.07.75.25,7.4-3.2,13.29l-.91-8.67c-.99-9.51,3.48-11.38-2.88-6.54,1.91-10.84,2-19.25,5.4-30.03.62-1.98,1.09-3.32,1.47-5.35,5.47-29,18.35-54.78,31.3-81.69-18.1,27.15-28.24,58.48-36.23,89.68-.61,2.38-1.04,3.31-1.39,5.88l-3.76,27.66-2.84,35.98c-1.43-5.43-.6-10.23-1.04-15.12-2.18,6.58-.89,12.56-2,19.12l-.97-15.89c-2.05-.52-.73,2.04-2.51,2.87-1.29-2.83.6-6.52-2.81-8.54-2,6.23-.41,11.66-1.75,17.58l-1.18-20.14c-2.79,2.47,0,5.74-2.17,8.75-2.01-3.27.61-6.28-1.62-8.76-2.26,2.3,1.07,4.8-1.82,6.74-1.75-3.14.93-6.01-1.57-8.93-3.08,2.11-1.28,5.39-2.71,8.43-2.46-8.84-.39-17.87,0-27.03.26-6.1,1.99-11.28,2.55-16.83,1.9-18.88,8.88-35.78,11.98-55.1-8.72,17.21-10.9,35.83-14.82,54.1-1.06,4.93.2,9.79-3.36,14.65-1.6-3.43-.31-6.58-4.05-8.07-1.87,2.65,0,5.57-1.68,8.91-2.67-4.4-.31-8.45-1.39-12.65-2.6,1.41,0,4.04-2.11,6.09-2.49-4.78-.6-9.55.34-15.26-4.2,2.39-1.97,6.82-3.39,11.16-.9-3-1.71-6.83-1.73-10.1,0-1.52,3.69-2.67,1.45-5.42-3.52-4.31-6.78-10.33-5.38-16.67,17.23-78.09,60.04-147.76,123.01-198.39l1.08,7.87c.1.76,1.19,1.52,1.79,1.82,1.08.55,1.76-1.44,4-.82l-4.88,5.09c1.12,1.55,2.46-.16,4.63-.89,0,1.92-1.91,2.79-2.57,4.7,1.4-.54,2.55-1.2,4.24-.87-.32,1.69-1.5,2.31-2.19,3.73l5.38,4.27c-14.04,13.52-28.74,25.64-39.95,42.51,11.89-11.89,22.88-24.85,36.13-35.96.97-.81,1.99-1.44,3.38-1.62l-3.1,6.48c2.54.41,3.03-1.84,5.21-2.01-.06,2.36-2.15,2.81-.95,4.67,1.73-1.21,2.89-3.09,4.98-2.55-1.54,3.35-4.76,3.84-5.31,7.36,2.5-1,3.25-3.69,6.32-3.02-.6,1.67-2.36,2.22-1.76,4.13,2.41-.52,2.94-2.77,5.33-2.91-.07,1.57-1.22,2.08-1.62,2.72-.86,1.37,2.17,2.47,1.73,3.15l-3.36,5.15c3.21-1.56,3.92-5.98,8.04-3.99-18.29,16.24-33.53,34.09-47.84,53.48,3.13-.76,4.47-3.6,6.2-5.88,7.94-10.48,16.23-20.09,25.55-29.39,1.49-1.49,2.67-2.64,4.58-2.46ZM143.02,101.24c0-.35-.28-.63-.63-.63s-.63.28-.63.63.28.63.63.63.63-.28.63-.63ZM144.88,104.74c0-.28-.22-.5-.5-.5s-.5.22-.5.5.22.5.5.5.5-.22.5-.5ZM158.87,129.71c0-.28-.22-.5-.5-.5s-.5.22-.5.5.22.5.5.5.5-.22.5-.5ZM156.88,131.7c0-.28-.22-.5-.5-.5s-.5.22-.5.5.22.5.5.5.5-.22.5-.5ZM166.87,142.69c0-.28-.22-.5-.5-.5s-.5.22-.5.5.22.5.5.5.5-.22.5-.5ZM165.87,144.69c0-.28-.22-.5-.5-.5s-.5.22-.5.5.22.5.5.5.5-.22.5-.5ZM168.31,157.1c1.27-1.12.2-2.67-1.27-1.95-14.04,14.92-28.45,29.78-37.92,47.29,13.15-16.07,23.74-31.83,39.19-45.34ZM94.36,171.1l-2.94,3.71,1.46,1.16,2.94-3.71-1.46-1.16ZM89.33,175.85l-.6,4.19,2.1.3.6-4.19-2.1-.3ZM112.89,194.18c3.6-1,4.51-4.31,3.57-7.16-.43,2.8-2.84,4.05-3.57,7.16ZM112.76,196.7c.73-2.14-1.98-2.28-2.1-.13-.72,4.57-6.03,5.88-5.52,11.09l7.63-10.96ZM127.1,203.01l-1.4,4.19,1.8.6,1.4-4.19-1.8-.6ZM102.36,336.92c.89-2.36.97-3.49-.18-4.06-.42,1.78-.61,3.01.18,4.06ZM118.08,338.86c2.51-.62,2.15-2.4,1.58-3.02-.73-.78-2.47-1.46-2.68-.37s-.58,3.81,1.1,3.39Z"/>
  <path class="cls-3" d="M229.91,262.21c.74-.83,2.6-.9,3.43-2.69,2.34-5.05,7.93-7.72,9.63-13.32,2.84.21,9.62-10.28,15.71-12.32l-2.63,4.96c2.68-.77,3.78-2.59,6.03-2.25-.81,2.41-3.16,2.18-3.28,4.48,2.08.04,3.06-1.39,5.1-.7-1.29,1.26-2.63,1.82-3.42,3.99l3.28,1.16c-3.25,2.98-5.99,6.32-8.82,10.04,2.23-.41,2.53-2.56,5.27-2.65.42,1.8-1.42,2.37-1.23,4.3,2.38-1.09,3.17-2.89,5.59-2.99l-2.07,4.8c1.7.01,2.47-1.27,3.77-.84-.22,1.09-2.35,2.71-1.7,3.29,1.06.94,2.13,2.02,2.98,2.19,1.04.21,5.94-5.68,4.29-1.03-1.35.71-1.49,1.83-.54,2.37,1.51-1.5,3.01-3.41,4.81-1.95-27.38,26.45-42.12,61.15-43.14,97.96-1.48-.65-1.67-1.3-2.08-1.57-.86-.56-.02,1.41-2.02,2.67-1.65-.45,1.37-17.43-3.32-16.12-4.12,1.15.09,10.24-2.81,11.69-2.35-4.14.36-7.67-1.26-11.93l-1.83,6.74c-2.12-2.55.03-4.7-1.23-8.06-.84,1.78-5.21,1.96-5.39,3.44l-1.71,14.06c-1.32-3.83.42-7.39-1.66-11.01l-1.93,5.27-1.91-5.32c-2.51,4.64-.52,9.04-1.61,14.23-2.1-.18-1.28-2.13-2.29-3.07-2.28,1.04.38,18.26-2.99,12.4-.2-.35.89-.95,1.12-1.81-1.75-18.45-.55-36.66,4.96-54.45.74-2.38,2.11-3.59,2.3-6.74.48-8,5.38-14.64,8.06-21.93,3.15-8.57,8.33-16.02,13.18-23.7.85-1.35,1.71-2.31,1.37-3.63ZM253.94,257.04c0-.35-.28-.63-.63-.63s-.63.28-.63.63.28.63.63.63.63-.28.63-.63ZM256.8,259.54c0-.28-.22-.5-.5-.5s-.5.22-.5.5.22.5.5.5.5-.22.5-.5ZM261.93,260.04c0-.35-.28-.63-.63-.63s-.63.28-.63.63.28.63.63.63.63-.28.63-.63ZM222.98,342c-.07-1.5-2.24-1.5-2.3,0-.12,2.68,2.42,2.68,2.3,0ZM210.4,348.67c.89-2.05.41-3.27.3-4.8-1.52.61-1.79,1.57-1.92,2.55-.18,1.38.25,3.35,1.62,2.25ZM202.24,355.88c.97-3.28,1.01-5.25.02-7.05-.75,2.75-.66,4.89-.02,7.05Z"/>
  <path class="cls-3" d="M242.98,246.2c-.18-.01-.54.24-1.35-.04-4.29,4.98-8.75,9.72-11.72,16.05-17.65,19.96-28.24,46.48-31.41,72.83l-2.51,20.91c-.58,4.83,1.07,9.67-.75,14.04-1.3-7.79.9-15.01-1.77-22.45-3.33,2.95-.59,6.42-2.36,10.05-2.96-2.61.3-5.79-1.89-8.75l-1.8,14.18c-2.44-6.11.41-11.46-1.08-17.8-3.39,2.66-.4,6.48-1.82,9.34-.46.93-2.29.51-2.38-.12-.15-1.07.44-2.31-.94-3.55-1.77,5.35-.59,10.98-1.85,17.11l-1.12-21.33c-2.35,3.77-.75,7.33-1.87,11.11-5.8-1.51,2.3-8.81-2.38-12.88-2.44,1.78-1.45,4.18-1.75,6.81-1.64.72-1.54-1.68-4.15-2.26l-1.78,20.54c-1.06-1.41.66-21.81-4.71-19.67l-1.19,16.67-2.04-15.14-1.15,19.16-1.07-19.06,1.74-24.06c5.15-.92,1.72-4.24,2.07-6.29,7.67-45,30.43-82.91,62.38-115.56-24.87,17.64-53.62,66.67-59.94,95.75-3.55.7-1.45,3.45-1.91,5.19-6.24,23.75-6.26,40.9-8.11,62.84-3.58-7.38-.29-13.72-1.78-20.95-2.11,2.53.37,5.92-1.02,8.88-.58,1.24-3.16,1.33-3.05,2.68.13,1.59.38,2.76.26,4.57-3.27.46-.5-6.12-2.38-7.04s-2.91,3.15-4.85,2.63c-.67-.18-1.68-.98-2.49-.67l-.61,11.09c-4.13-9.36,2.38-25.79-5.31-26.21-1.34,4.55,1.68,8.68-1.68,13.01-1.5-9.68-.67-18.37.63-27.83,4.13-30.23,13.59-58.57,28.09-85.39,10.54-19.51,23.58-36.33,39.12-51.98,1.2-1.21,2.23-2.24,2.33-3.65,1.7.03,1.74-1.28,2.21-1.8.74-.81,1.24-1.14,1.2-1.8,2.65.07,3.76-2.14,5.94-3.36,2.22,2.17,3.34,4.96,6.66,5.53-1.04,2.2-2.16,3.93-3.71,5.5,2.02.45,2.54-1.3,3.28-.93.49.24.51,1.1.96,2.66,1.81-1.56,3.56-.24,4.85.82,1.64,1.36,1.2,3.37,1.63,5.43,2.26-1.06,3.33-3.5,5.31-2.25-2.18,3.38-5.19,4.05-6.78,7.53,3.1.81,3.55-1.99,5.68-2.45,1.59,1.33,2.98,1.83,4.85,1.72-2.16,2.61-1.14,3.75.29,5.02,1.61,1.43,2.46-.91,4.41-1.29.22,1.45-1.99,2.59-1.36,3.08l1.82,1.41c.92.71.45,3.01,1.61,3.35,1.48.44,2.57-.91,4.31-.7-1.32,1.31-3.68,2.52-3.78,4.77-.04.9,1.9,1.59,1.67,2.27-.34.98-1.24,1.72-2.19,2.62-1.13,1.65-.14,2.24,1.35,1.01.69-.59,1.75-1.66,2.57-1.37,1.18.42.08,1.84-.66,3.94l3.81-1.08c-.49,2.5-2.9,3-2.43,4.87,2.44-.24,3.03-2.44,4.72-1.09-1.38,1.72-3.27,3-2.67,5.21,3.08-1.2,4.6-4.63,8.72-4.49-3.62,5.7-9.33,7.9-10.92,13.12ZM227.68,207.11c0-.47-.38-.86-.86-.86s-.86.38-.86.86.38.86.86.86.86-.38.86-.86ZM237.95,223.08c0-.35-.28-.63-.63-.63s-.63.28-.63.63.28.63.63.63.63-.28.63-.63ZM242.81,234.57c0-.28-.22-.5-.5-.5s-.5.22-.5.5.22.5.5.5.5-.22.5-.5ZM240.81,235.57c0-.28-.22-.5-.5-.5s-.5.22-.5.5.22.5.5.5.5-.22.5-.5ZM157.94,343.95c.06,2.26-.55,4.25.4,6.01.41-3.46,3.47-6.72-.4-6.01ZM166.98,344.93c0-.61-.5-1.11-1.11-1.11s-1.11.5-1.11,1.11.5,1.11,1.11,1.11,1.11-.5,1.11-1.11ZM144.33,354.89c.89-2.36.97-3.49-.18-4.06-.42,1.78-.61,3.01.18,4.06Z"/>
  <path class="cls-3" d="M157.07,146.97l-2.2.21c.57-.92,1.05-2.74,3.02-2.83-.7,1.03-1.18,1.64-.82,2.62Z"/>
  <path class="cls-3" d="M187.14,163.43c-.29-1.36-.48-1.97-.54-2.49,1.41-.75,2.92-.56,4.36-.5-1.79.79-2.2,2.59-3.82,3Z"/>
  <rect class="cls-3" x="64.94" y="340.93" width="1" height="13.48"/>
  <path class="cls-3" d="M115.33,359.89c-.71-1.43-.71-3.01-.04-5.05,1.05,1.07.93,2.43.04,5.05Z"/>
  <circle class="cls-3" cx="34.97" cy="325.95" r="1.11"/>
  <path class="cls-3" d="M46.4,360.89c-.79-1.05-.6-2.27-.18-4.06,1.15.57,1.07,1.7.18,4.06Z"/>
  <circle class="cls-3" cx="259.8" cy="232.57" r=".63"/>
  <circle class="cls-3" cx="54.45" cy="361.9" r=".63"/>
  <circle class="cls-3" cx="261.3" cy="252.05" r=".63"/>
  <circle class="cls-3" cx="243.81" cy="224.58" r=".63"/>
  <circle class="cls-3" cx="153.88" cy="115.72" r=".63"/>
  <path class="cls-3" d="M157.89,142.68c.8-.61,1.83-.6,2.82-1.57,0,1.29-.68,2.46-2.82,1.57Z"/>
  <circle class="cls-3" cx="166.87" cy="129.71" r=".63"/>
  <circle class="cls-3" cx="162.37" cy="139.69" r=".5"/>
  <circle class="cls-3" cx="263.3" cy="250.55" r=".5"/>
  <circle class="cls-3" cx="158.37" cy="121.72" r=".5"/>
  <circle class="cls-3" cx="248.31" cy="230.57" r=".5"/>
  <circle class="cls-3" cx="150.38" cy="97.75" r=".5"/>
  <circle class="cls-3" cx="163.37" cy="128.71" r=".5"/>
  <circle class="cls-3" cx="216.33" cy="185.63" r=".5"/>
  <circle class="cls-3" cx="163.37" cy="137.7" r=".5"/>
  <circle class="cls-3" cx="185.36" cy="153.67" r=".5"/>
  <g>
    <path class="cls-3" d="M604.94,522.66c-1.57,2.55-4.29,5.21-7.14,3.61.05-1.7,1.53-4.67-.54-6.48-1.59-1.39-3.46-2.72-6.21-1.21-.03-3.33,2.12-3.71,2.38-5.99l-5.59,4.29c-.58-2.3,1.44-3.13,1.51-5.15-1.91-.09-2.28,1.45-4.01,2.11-.57-1.08.61-1.82.12-3.74-1.66.07-2.22,3.17-4.3,1.92,7.08-12.94,16.53-23.46,20.41-38.14.66-2.7-29.07,52.21-27.11,38.24.13-.92.34-2.08,2.19-2.94.09-2.14-2.06-1.99-2.43-.02-.19,1.02-.86,1.5-1.29,1.53-3.03.25.94-3.51-.18-4.98l-3.76,2.63c-.16-1.43,1.22-3.02.2-4.13-.62-.51-3.45.94-3.64-.37,5.2-11.02,14.35-19.41,17.35-31.77-7.92,8.67-10.23,19.87-18.79,27.93-1.16-2.76-.88-5.8-2.37-8.16l-4.03,4.07c-.89-2.46,1.56-3.25,1.74-5.46-.4-1.37-2.09.06-2.95,1.12-1.53-1.43.15-2.89-.07-4.47-1.03,0-2.67.26-3.47-.87-5.53,5.48.57-5.42-.87-4.35-1.41-.05-1.35,1.52-1.89,1.43-.75-.13-1.25-.85-2.31-1.64-1.04.74-.51,3.13-3.06,2.98l10.01-17.66c5.5-9.7,11-19.77,13.28-30.59-8.14,15.76-13.84,31-24.63,44.85-2.28-1.57,1-2.67.49-4.85-.24-1.04-1.72.33-2.07-.06-.75-.86-.15-2.02.61-3.23-1.68-1.58-4.12-1.09-6.05-1.99,1.63-2.88,1.06-3.93-.73-5.07-1.88-1.2-3.29-1.76-5.31-.22.35-3.43-1.84-5.33-2.6-8.31-1.75,1.73-2.09,3.79-3.93,3.62-.38-.75.01-2.65-.69-2.92-.46-.18-1.11.92-2.06,1.54-.43-.77-.5-1.84-1.27-2.63-.45-.47-1.48-.29-2.4-.24.36-1.93,1.39-3.14.83-4.83-2.43.72-2.51,3.93-6.22,3.56,20.17-32.83,31.06-72.61,26.78-111.08-.54-4.87-1.78-9.32.34-13.68.38,2.77,1.81,4.45,1,8.53,2.14-.36,1.96-3.07,2.69-5.47,2.51-.1,1.13,2.31,2.17,4.14l2.16-7.27c.99,2.93-.05,5.56,2.5,7.72,1.59-1.23.78-2.77.95-4.57,1.77-.21,1.81,1.22,2.66,2.22,1.63-1.85.45-3.2.84-5.06,1.85,1.03,1.45,3.07,2.48,4.87.94-2.53.28-4.86,1.52-7.1l1.18,6.45,4.62.26c-.62,2-1.86,2.85-1.79,3.89.09,1.41,1.76,1.47,2.91,1.28,3.2-.53.26-7.94,2.71-9.18,1.41,2.96,2.46,5.41,4.52,7.61l4.35-1.25c.87-3.65-1.32-6.83.77-10.16,3.83,21.03,3.43,48.08.54,68.39-.53,3.75-2.96,7.46-.4,10.92,4.74-20.14,6.36-39.9,4.96-59.99-.36-5.24-1.98-9.91-.71-15.3,2.16,4.12,2.35,8.1,5.45,11.29.83-3.69-.93-6.51,1.45-9.83,2.44.47-.12,6.84,1.52,7.67.82.42,2.28.37,2.62-.7l2.35-7.38c1.78,3.27-1.7,7.2,3.15,8.74-.07-4.88-2.14-8.72-.19-12.72,1.49,3.91-.04,7.36,1.86,10.98,2.45-1.5,3.17-2.76,5.35-2,.53-1.99-1.19-3.84,1.34-5.07l1.83,25.17c1.04,14.28-3.73,30.61.49,33.31,2.54-18.85,1.58-36.27.91-54.29-.07-1.79.11-3.72,1.83-4.27,1.15-.37,3.27-1.46,4.18.59.74,1.67-.04,3.76,1.81,4.98l.56-7.69c3.34.52,1.23,3.17,2.83,5.42l.85-10.35c2.22,3.27,2.7,7.23,2.66,11.34-.05,4.63,1.17,8.73,1.68,13.14,1.13,9.87-.89,19.46.94,28.85.49-15.54.63-30.43,0-45.79-.16-3.98-2.16-7.72-.1-11.31l1.15,8.29c.09.64,1.31,1.06,1.76.96.66-.14.69-1.37,2.17-2.22.16,3.78.98,7.3.73,11.4,2.09-.53,1.27-2.29,2.69-2.84,2.36,1.83,1.32,4.12,2.32,6.61,2.11-2.38.4-5.17,1.52-8.23,2.27.82.01,3.31,2.44,4.73,1.7-3.9-.21-7.54,1.13-11.71,1.27,4.18,1.08,8.75,5.45,11.31.16-5.08-1.04-9.42,2.64-13.35,1.09,2.48.62,5.41.06,8.23-.35,1.78,1.98,2.8,2,4.29l.68,47.06c5.67-9.82.6-34.63,4.63-46.31,2.28,6.36.06,12.17,3.2,17.26,1.32-2.56.69-5.65,2.56-6.17,2.15,5.44-1.23,9.8,1.46,14.46l1.35-18.8c1.74,8.92.8,17.01,1.62,26.29,2.73-5.19,0-10.32,1.1-17.06,1.81,3,1.82,6.86,1.74,10.83l-.43,21c-.09,4.47-1.56,8.46-1.79,13.06-.41,8.45-2.65,16.47-3.66,24.8-.54,4.43-3.65,8.39-1.67,13.24,8.44-31.01,11.41-62.03,10.1-95.02-.09-2.37.08-4.72.85-7.09,3.04,5.57.58,11.59,2.01,18.16l1.02-14.66,2.6,4.16c1.36-1.42-.42-3.4,2.26-3.84-.58,1.91.61,16.63,2.22,18.64l1.42-12.37c1.2,5.03.9,9.58,1.17,15.3,2.25-.65.75-3.18,2.91-3.48.84,3.01-.69,5.87,2.19,7.63,2.66-3.12-1.13-6.64,2.37-9.99-.14,5.39,1.36,11.25-.12,16.24-1.34,4.5,1.89,5.07,2.85,7.71,2.61,7.23-2.43,35.12-3.9,44.9-.71,4.7-3.48,9.21-1.49,14.33,5.78-14.97,6.12-36.06,9.11-48.71.8-3.39-1.06-6.52,1.09-10.3.79,2.18,3.7,1.9,4.73,3.4.57.83-.61,2.92-.83,3.62-.46,1.5,2.58,1.16,3.01,2.35,1.05,2.92-.57,5.9.99,9.03l1.71-2.13c1.95,4.27.32,7.87.87,12.19l2.4-7.41c1.44,3.12.62,5.82.87,9.28,1.52-.04,1.49-1.57,2.81-1.74.34,1.73-.48,2.94-.62,4.62,3.39,4.8,3.92,9.98,2.71,15.6-1.08,5.02-.11,11.56-3.2,15.89-1.59,2.23.3,2.65-.19,4.76-10.93,47.87-33.25,91.89-62.95,130.81-.66.86-1.6.73-1.92.97-4.64,3.6,1.24-2.54-.4-5.31-1.14-1.92-1.52-1.11-3.73-.96-.71.05-1.95-1-2.72-1.12-.27-.04,1.61-9.19,1.01-11.37-2.66,1.16-2.17,3.33-4.22,3.74-1.13-3.36-3.27-4.82-5.57-7.14,2.35-3.43,20.13-28.06,18.3-29.62-.53-.45-1.5-.07-2,.77-4.73,8.02-9.35,15.82-15.25,23.06-2.26-1.23-1.11-2.62-.86-5.25-2.03.94-2.38,2.55-4.25,3.83-.84-1.8-2.15-2.88-3.94-3.6.55-1.59,2.08-2.62,1.69-4.04-.83-.17-1.83.79-2.45.94-1.01.25-1.09-1.05-1.18-2.2-1.13-.08-1.78,1.04-3.22.64-.05-2.83,1.63-3.45,2.24-5.46-2.23.45-2.56,2.09-4.41,2.87l-1.06-2.8c-2.79,1.39-3.92,3.58-4.93,6.04-2-2.34.11-3.38,1.01-4.78,9.82-15.28,20.52-29.9,26.58-47.41-11.11,18.43-20.29,37.46-34.29,53.54-1.62-1.77.36-2.64.08-3.97-3.16-.06-5.4-2.78-5.49-5.43-1.64.51-2.68,1.02-3.22.33-.98-1.24-1.53-2.34-.61-3.79,8.81-14.01,19.55-26.73,24.7-42.81l-19.89,32.18ZM630.62,333.63c-.56-1.04-1.1-.61-1.23.54.16,2.32,1.36,2.02,1.23-.54ZM680.63,347.92c0-.35-.28-.63-.63-.63s-.63.28-.63.63.28.63.63.63.63-.28.63-.63ZM711.62,401.76c-.85-1.67-2.22-1.12-2.31.45.18,2.53,2.49,2.24,2.31-.45ZM521.74,454.78c0-.35-.28-.63-.63-.63s-.63.28-.63.63.28.63.63.63.63-.28.63-.63ZM584.73,469.84c-.23-1.25-1.1-1.25-1.33,0,.14,2.31,1.19,2.31,1.33,0ZM545.73,473.76c0-.35-.28-.63-.63-.63s-.63.28-.63.63.28.63.63.63.63-.28.63-.63ZM590.69,509.71c0-.35-.28-.63-.63-.63s-.63.28-.63.63.28.63.63.63.63-.28.63-.63ZM596.67,514.84c0-.54-.44-.98-.98-.98s-.98.44-.98.98.44.98.98.98.98-.44.98-.98ZM632.37,547.26c.12,1.6,1.06,1.71,1.65,1.4.54-.29.77-.93.51-1.49s-1.12-1.11-2.16.09ZM650.51,573.13c0-.28-.22-.5-.5-.5s-.5.22-.5.5.22.5.5.5.5-.22.5-.5Z"/>
    <path class="cls-3" d="M500.9,337.72c-.28-1.6.36-2.49.41-3.27.04-.66.88-.68,1.34.16.23.42.41,1.09.85,2.88.57-1,.91-1.91,1.88-2.42,1.01,1.24,1.2,2.33,1.63,3.06.47.79,2.94,1.26,3.06.56l1.01-5.81,2.06,5.13c1.58-2.01.29-3.98,2.1-5.39.83,3.19.36,5.69,2.66,6.89.99-1.43.74-2.93,1.11-4.61l3.23,7.64c.82-3.76-1.4-6.98,1.12-9.72.45,3.26-1.03,7.41,2.9,7.96,1.09.15-.26-4.43,1.57-3.46.62.33.86,1.19,1.44,1.61.13-2.24.37-3.74.75-5.79,1-.13,1.36.56,2.09,1.78,1.11-.83.54-2.41,2.21-4.05,3.45,13.77,3.32,39.66,1.38,54.37-2.57,19.49-8.64,38.39-17.87,55.36-2.79.05-5.11.39-6.31,3.2-.8-1.01-.6-1.69-1.02-2.39-.5-.84-1.55-.34-2.81-.09l.88-4.79c-.39-.65-1.96.44-2.35-.1-.66-.91-.21-2.47-.84-3.68l-1.71,1.89c-.52.57-5.53-5.58-4.06-6.95-1.54.61-.94,1.92-2.41,3.22l-3.01-6.11c-1.89,1.49-2.21,3.4-3.75,4.05l-.82-2.26c-.2-.55-.48-1.15-.88-.18-.29.71-.5,1.62-2.51.99,14.01-27.54,20.19-57.97,14.68-89.68ZM513.03,340.6c-.61,1.58,1.25,2.56,1.91,2.09.51-.37.42-1.45.18-1.88s-1.55-1.6-2.09-.21ZM511.75,438.8c0-.35-.28-.63-.63-.63s-.63.28-.63.63.28.63.63.63.63-.28.63-.63Z"/>
    <circle class="cls-3" cx="623.53" cy="545.66" r="1.11"/>
    <circle class="cls-3" cx="641.52" cy="568.63" r="1.11"/>
    <circle class="cls-3" cx="628.53" cy="551.66" r="1.11"/>
    <path class="cls-3" d="M614.63,327.64c.14,2.57-1.07,2.86-1.23.54.13-1.15.66-1.59,1.23-.54Z"/>
    <circle class="cls-3" cx="523.11" cy="462.77" r=".63"/>
    <circle class="cls-3" cx="590.06" cy="519.7" r=".63"/>
    <circle class="cls-3" cx="502.12" cy="436.31" r=".5"/>
    <circle class="cls-3" cx="540.1" cy="478.25" r=".5"/>
    <circle class="cls-3" cx="542.09" cy="482.25" r=".5"/>
    <circle class="cls-3" cx="627.03" cy="547.16" r=".5"/>
    <path class="cls-1" d="M711.62,401.76c.18,2.7-2.13,2.98-2.31.45.08-1.58,1.46-2.13,2.31-.45Z"/>
    <path class="cls-1" d="M632.37,547.26c1.03-1.19,1.89-.66,2.16-.09s.04,1.2-.51,1.49c-.59.31-1.53.2-1.65-1.4Z"/>
    <circle class="cls-1" cx="595.69" cy="514.84" r=".98"/>
    <path class="cls-1" d="M630.62,333.63c.14,2.57-1.07,2.86-1.23.54.13-1.15.66-1.59,1.23-.54Z"/>
    <path class="cls-1" d="M584.73,469.84c-.14,2.31-1.19,2.31-1.33,0,.23-1.25,1.1-1.25,1.33,0Z"/>
    <circle class="cls-1" cx="521.11" cy="454.78" r=".63"/>
    <circle class="cls-1" cx="590.06" cy="509.71" r=".63"/>
    <circle class="cls-1" cx="679.99" cy="347.92" r=".63"/>
    <circle class="cls-1" cx="545.09" cy="473.76" r=".63"/>
    <circle class="cls-1" cx="650.01" cy="573.13" r=".5"/>
    <path class="cls-1" d="M513.03,340.6c.54-1.39,1.84-.22,2.09.21s.34,1.51-.18,1.88c-.66.47-2.53-.51-1.91-2.09Z"/>
    <circle class="cls-1" cx="511.12" cy="438.8" r=".63"/>
    <g>
      <path class="cls-2" d="M485.4,361.76c0,64.73-52.5,117.2-117.27,117.2s-117.27-52.47-117.27-117.2,52.5-117.2,117.27-117.2,117.27,52.47,117.27,117.2ZM382.03,358.01c-2.52-7.75-10.29-12.59-17.77-10.3-6.37,1.95-10.21,8.52-9.95,14.51.3,6.79,4.76,11.75,11.71,13.49,4.74,1.19,9.49-1.13,12.61-4.44s5.04-8.23,3.4-13.27Z"/>
      <path class="cls-3" d="M382.03,358.01c1.64,5.04-.32,10-3.4,13.27s-7.87,5.63-12.61,4.44c-6.95-1.75-11.41-6.7-11.71-13.49-.26-5.99,3.58-12.57,9.95-14.51,7.48-2.29,15.25,2.55,17.77,10.3Z"/>
    </g>
  </g>
  <path class="cls-1" d="M168.31,157.1c-15.45,13.51-26.04,29.27-39.19,45.34,9.47-17.51,23.89-32.37,37.92-47.29,1.47-.72,2.54.83,1.27,1.95Z"/>
  <rect class="cls-1" x="125.09" y="204.46" width="4.42" height="1.9" transform="translate(-107.81 261.26) rotate(-71.57)"/>
  <path class="cls-1" d="M112.76,196.7l-7.63,10.96c-.5-5.21,4.81-6.52,5.52-11.09.12-2.15,2.84-2,2.1.13Z"/>
  <rect class="cls-1" x="91.25" y="172.6" width="4.73" height="1.86" transform="translate(-100.54 139.14) rotate(-51.61)"/>
  <path class="cls-1" d="M112.89,194.18c.74-3.1,3.14-4.35,3.57-7.16.94,2.85.03,6.16-3.57,7.16Z"/>
  <rect class="cls-1" x="87.96" y="177.03" width="4.24" height="2.12" transform="translate(-98.96 242.09) rotate(-81.87)"/>
  <path class="cls-1" d="M102.36,336.92c-.79-1.05-.6-2.27-.18-4.06,1.15.57,1.07,1.7.18,4.06Z"/>
  <circle class="cls-1" cx="142.39" cy="101.24" r=".63"/>
  <circle class="cls-1" cx="158.37" cy="129.71" r=".5"/>
  <circle class="cls-1" cx="156.38" cy="131.7" r=".5"/>
  <circle class="cls-1" cx="165.37" cy="144.69" r=".5"/>
  <circle class="cls-1" cx="166.37" cy="142.69" r=".5"/>
  <circle class="cls-1" cx="144.39" cy="104.74" r=".5"/>
  <path class="cls-1" d="M157.94,343.95c3.87-.71.82,2.55.4,6.01-.95-1.76-.34-3.75-.4-6.01Z"/>
  <circle class="cls-1" cx="165.87" cy="344.93" r="1.11"/>
  <circle class="cls-1" cx="237.32" cy="223.08" r=".63"/>
  <circle class="cls-1" cx="240.31" cy="235.57" r=".5"/>
  <circle class="cls-1" cx="242.31" cy="234.57" r=".5"/>
  <circle class="cls-1" cx="226.82" cy="207.11" r=".86"/>
  <path class="cls-1" d="M144.33,354.89c-.79-1.05-.6-2.27-.18-4.06,1.15.57,1.07,1.7.18,4.06Z"/>
  <path class="cls-1" d="M210.4,348.67c-1.38,1.1-1.81-.87-1.62-2.25.13-.97.4-1.93,1.92-2.55.11,1.53.59,2.74-.3,4.8Z"/>
  <path class="cls-1" d="M202.24,355.88c-.63-2.16-.73-4.3.02-7.05.99,1.81.94,3.78-.02,7.05Z"/>
  <path class="cls-1" d="M222.98,342c.12,2.68-2.42,2.68-2.3,0,.07-1.5,2.24-1.5,2.3,0Z"/>
  <circle class="cls-1" cx="253.31" cy="257.04" r=".63"/>
  <circle class="cls-1" cx="261.3" cy="260.04" r=".63"/>
  <circle class="cls-1" cx="256.3" cy="259.54" r=".5"/>
  <path class="cls-1" d="M118.08,338.86c-1.68.42-1.31-2.28-1.1-3.39s1.94-.41,2.68.37c.58.62.93,2.4-1.58,3.02Z"/>
</svg>